<svg xmlns="http://www.w3.org/2000/svg" xmlns:xlink="http://www.w3.org/1999/xlink" viewBox="0 0 613 400">
  <defs>
    <style>
      .cls-1 {
        fill: #09919c;
      }

      .cls-2 {
        fill: #fff7f5;
      }

      .cls-3 {
        fill: #f3fcff;
      }

      .cls-4 {
        fill: #ffeef4;
      }

      .cls-5 {
        fill: #e7f2ff;
      }

      .cls-25, .cls-6, .cls-8 {
        fill: #fff;
      }

      .cls-7 {
        opacity: 0.05;
      }

      .cls-13, .cls-8 {
        opacity: 0.5;
      }

      .cls-9 {
        opacity: 0.06;
      }

      .cls-10, .cls-11, .cls-12, .cls-15, .cls-27, .cls-28 {
        fill: none;
        stroke-linecap: round;
        stroke-linejoin: round;
      }

      .cls-10, .cls-11, .cls-12 {
        stroke: #d3d5e6;
      }

      .cls-10, .cls-27 {
        stroke-width: 4px;
      }

      .cls-10, .cls-12, .cls-15, .cls-27, .cls-28 {
        fill-rule: evenodd;
      }

      .cls-11, .cls-12, .cls-28 {
        stroke-width: 2px;
      }

      .cls-14 {
        fill: url(#linear-gradient);
      }

      .cls-15 {
        stroke: #000;
        stroke-width: 0.5px;
      }

      .cls-16 {
        fill: url(#linear-gradient-2);
      }

      .cls-17, .cls-25 {
        opacity: 0.65;
      }

      .cls-18 {
        fill: #19d2ff;
      }

      .cls-19 {
        fill: #ecf7ff;
      }

      .cls-20 {
        fill: url(#linear-gradient-3);
      }

      .cls-21 {
        fill: url(#linear-gradient-4);
      }

      .cls-22 {
        fill: url(#linear-gradient-5);
      }

      .cls-23 {
        opacity: 0.1;
      }

      .cls-24 {
        opacity: 0;
      }

      .cls-26 {
        opacity: 0.35;
      }

      .cls-27, .cls-28 {
        stroke: #484d78;
      }

      .cls-29 {
        fill: #fbfbfb;
      }
    </style>
    <linearGradient id="linear-gradient" x1="0.5" x2="0.5" y2="0.999" gradientUnits="objectBoundingBox">
      <stop offset="0" stop-color="#ffe473"/>
      <stop offset="0.181" stop-color="#ffde73"/>
      <stop offset="0.419" stop-color="#ffce73"/>
      <stop offset="0.687" stop-color="#ffb373"/>
      <stop offset="0.977" stop-color="#ff8d73"/>
      <stop offset="1" stop-color="#ff8a73"/>
    </linearGradient>
    <linearGradient id="linear-gradient-2" x1="0" y1="0.502" x2="0.999" y2="0.502" xlink:href="#linear-gradient"/>
    <linearGradient id="linear-gradient-3" x1="-0.001" y1="0.497" x2="0.998" y2="0.497" xlink:href="#linear-gradient"/>
    <linearGradient id="linear-gradient-4" x1="-0.006" y1="0.496" x2="1" y2="0.496" xlink:href="#linear-gradient"/>
    <linearGradient id="linear-gradient-5" x1="0.003" y1="0.5" x2="1.001" y2="0.5" xlink:href="#linear-gradient"/>
  </defs>
  <g id="Group_5" data-name="Group 5" transform="translate(-741 -265)">
    <g id="Group_4" data-name="Group 4">
      <circle id="Ellipse_1" data-name="Ellipse 1" class="cls-1" cx="200" cy="200" r="200" transform="translate(856 265)"/>
      <g id="chemistry" transform="translate(917.7 349.3)">
        <g id="chemistry-2" data-name="chemistry" transform="translate(-5 2)">
          <g id="background" transform="translate(26 61)">
            <g id="color_2_">
              <path id="Shape" class="cls-2" d="M211,159a13.5,13.5,0,0,1,1.3,6h-70V151h56A13.884,13.884,0,0,1,211,159Z"/>
              <path id="Shape-2" data-name="Shape" class="cls-2" d="M197.3,63a5,5,0,0,1,0,10h-40a4.951,4.951,0,0,0-5,5v73h-10V73a10.029,10.029,0,0,1,10-10h45Z"/>
              <path id="Shape-3" data-name="Shape" class="cls-3" d="M195.3,48v2a4.012,4.012,0,0,1-4,4h-22a4.012,4.012,0,0,1-4-4V48a4.012,4.012,0,0,1,4-4h22A4.012,4.012,0,0,1,195.3,48Z"/>
              <path id="Shape-4" data-name="Shape" class="cls-4" d="M190.3,95v28a10,10,0,0,1-20,0V95h20Z"/>
              <path id="Shape-5" data-name="Shape" class="cls-3" d="M190.3,73V95h-20V73Z"/>
              <rect id="Rectangle-path" class="cls-3" width="20" height="9" transform="translate(170.3 54)"/>
              <circle id="Oval" class="cls-4" cx="3" cy="3" r="3" transform="translate(181.9 0.8)"/>
              <path id="Shape-6" data-name="Shape" class="cls-4" d="M174.9,18.8a2,2,0,1,1-2,2A2.006,2.006,0,0,1,174.9,18.8Z"/>
              <path id="Shape-7" data-name="Shape" class="cls-5" d="M120.9,95s1.2,6.4,0,23.7c-2.8,31.3-18.6,45-18.6,45H69.5a28.8,28.8,0,0,1-3.1,1.3H39.3A60.029,60.029,0,0,1,.9,109,64.6,64.6,0,0,1,2.5,95ZM49.8,144.4a2,2,0,1,0-2,2A2.006,2.006,0,0,0,49.8,144.4Zm-24-35a3,3,0,0,0-6,0,3.009,3.009,0,0,0,3,3A2.946,2.946,0,0,0,25.8,109.4Z"/>
              <path id="Shape-8" data-name="Shape" class="cls-3" d="M102.3,65.6l12,13.6L119.2,95H2.6A59.836,59.836,0,0,1,46,50.9V37h3.9l.8,3.7a3.959,3.959,0,0,0,3.9,3.2H67.4a3.976,3.976,0,0,0,3.9-3.2l.8-3.7H76V50.9A59.629,59.629,0,0,1,102.3,65.6Z"/>
              <path id="Shape-9" data-name="Shape" class="cls-3" d="M85.9,23v8a6.018,6.018,0,0,1-6,6h-38a6.018,6.018,0,0,1-6-6V23a6.018,6.018,0,0,1,6-6h38A6.018,6.018,0,0,1,85.9,23Z"/>
              <path id="Shape-10" data-name="Shape" class="cls-3" d="M71.6,2.4a6.05,6.05,0,0,1,5.9,7.2L76,17H45.8L44.3,9.6a6,6,0,0,1,5.9-7.2Z"/>
              <path id="Shape-11" data-name="Shape" class="cls-3" d="M72,37l-.8,3.7a3.959,3.959,0,0,1-3.9,3.2H54.5a3.976,3.976,0,0,1-3.9-3.2L49.8,37Z"/>
              <path id="Shape-12" data-name="Shape" class="cls-5" d="M47.8,142.4a2,2,0,1,1-2,2A1.944,1.944,0,0,1,47.8,142.4Z"/>
              <path id="Shape-13" data-name="Shape" class="cls-5" d="M22.8,106.4a2.946,2.946,0,0,1,3,3,3,3,0,1,1-3-3Z"/>
              <path id="Shape-14" data-name="Shape" class="cls-6" d="M112.7,83.5a1.5,1.5,0,0,0,0-3,1.5,1.5,0,1,0,0,3Z"/>
            </g>
            <g id="shadows" transform="translate(36 2)">
              <path id="Shape-15" data-name="Shape" class="cls-6" d="M24.5,20.1H49.8V15.3H26.1a5.663,5.663,0,0,1,1.8-.3h-14a5.663,5.663,0,0,0-1.8.3H.9v4.8H6.5a1.367,1.367,0,0,1,1.4,1.4h0V29a6.018,6.018,0,0,0,6,6h14a6.018,6.018,0,0,1-6-6V22.7h0A2.582,2.582,0,0,1,24.5,20.1Z"/>
              <path id="Shape-16" data-name="Shape" class="cls-6" d="M39.9,4.8V1H27.7A5.536,5.536,0,0,1,30.3.4h-10a5.834,5.834,0,0,0-2.6.6H9.4V4.8h3a1.95,1.95,0,0,1,1.9,1.8,3.4,3.4,0,0,0,.1,1L15.9,15h10L24.4,7.6h0a2.417,2.417,0,0,1,2.4-2.8Z"/>
              <rect id="Rectangle-path-2" data-name="Rectangle-path" class="cls-7" width="31.6" height="6.6" transform="translate(9.4 33.8)"/>
              <path id="Shape-17" data-name="Shape" class="cls-8" d="M105.3,148V70a10.029,10.029,0,0,1,10-10h45a4.951,4.951,0,0,1,5,5h-49a6.018,6.018,0,0,0-6,6v77Z"/>
              <rect id="Rectangle-path-3" data-name="Rectangle-path" class="cls-9" width="22.2" height="4.7" transform="translate(132.8 71)"/>
              <rect id="Rectangle-path-4" data-name="Rectangle-path" class="cls-7" width="20.7" height="3.4" transform="translate(134.3 52.5)"/>
              <path id="Shape-18" data-name="Shape" class="cls-6" d="M145,45.4h13.1V43.1H144.6a3.928,3.928,0,0,1,2.8-1.1h-8a4.106,4.106,0,0,0-2.8,1.1h-6.9v2.3h4.1a1.473,1.473,0,0,1,1.5,1.5h0v1a4.012,4.012,0,0,0,4,4h8a4.012,4.012,0,0,1-4-4v-.7a1.923,1.923,0,0,1,1.7-1.8Z"/>
              <rect id="Rectangle-path-5" data-name="Rectangle-path" class="cls-6" width="6" height="4.6" transform="translate(139.1 55.9)"/>
              <path id="Shape-19" data-name="Shape" class="cls-8" d="M172.9,153.8H132.8V149h32.5Z"/>
            </g>
            <g id="lines_3_">
              <path id="Shape-20" data-name="Shape" class="cls-10" d="M142.3,151h56a14.041,14.041,0,0,1,14,14h-70V73a10.029,10.029,0,0,1,10-10h45a4.95,4.95,0,0,1,3.5,8.5,5.093,5.093,0,0,1-3.5,1.5h-40a4.951,4.951,0,0,0-5,5v73"/>
              <path id="Shape-21" data-name="Shape" class="cls-10" d="M170.3,73v50a10.029,10.029,0,0,0,10,10h0a10.029,10.029,0,0,0,10-10V73"/>
              <path id="Shape-22" data-name="Shape" class="cls-10" d="M190.3,63V54"/>
              <path id="Shape-23" data-name="Shape" class="cls-10" d="M170.3,54v9"/>
              <path id="Shape-24" data-name="Shape" class="cls-10" d="M169.3,54h22a4.012,4.012,0,0,0,4-4V48a4.012,4.012,0,0,0-4-4h-22a4.012,4.012,0,0,0-4,4v2A4.012,4.012,0,0,0,169.3,54Z"/>
              <circle id="Oval-2" data-name="Oval" class="cls-11" cx="2" cy="2" r="2" transform="translate(172.9 18.8)"/>
              <circle id="Oval-3" data-name="Oval" class="cls-11" cx="3" cy="3" r="3" transform="translate(181.9 0.8)"/>
              <path id="Shape-25" data-name="Shape" class="cls-10" d="M45.9,37V50.9"/>
              <path id="Shape-26" data-name="Shape" class="cls-10" d="M75.9,37V50.9"/>
              <path id="Shape-27" data-name="Shape" class="cls-10" d="M41.9,37h38a6.018,6.018,0,0,0,6-6V23a6.018,6.018,0,0,0-6-6h-38a6.018,6.018,0,0,0-6,6v8A6.018,6.018,0,0,0,41.9,37Z"/>
              <path id="Shape-28" data-name="Shape" class="cls-10" d="M119.3,95H2.6"/>
              <path id="Shape-29" data-name="Shape" class="cls-10" d="M45.8,17,44.3,9.6a6,6,0,0,1,5.9-7.2H71.6a6.05,6.05,0,0,1,5.9,7.2L76,17"/>
              <path id="Shape-30" data-name="Shape" class="cls-10" d="M49.8,37l.8,3.7a3.959,3.959,0,0,0,3.9,3.2H67.3a4.06,4.06,0,0,0,3.9-3.2L72,37"/>
              <path id="Shape-31" data-name="Shape" class="cls-12" d="M80.8,66,91.5,76.8"/>
              <path id="Shape-32" data-name="Shape" class="cls-12" d="M79.2,70.4l8,8"/>
              <circle id="Oval-4" data-name="Oval" class="cls-11" cx="3" cy="3" r="3" transform="translate(19.8 106.4)"/>
              <circle id="Oval-5" data-name="Oval" class="cls-11" cx="2" cy="2" r="2" transform="translate(45.8 142.4)"/>
              <path id="Shape-33" data-name="Shape" class="cls-10" d="M190.3,95h-20"/>
              <path id="Shape-34" data-name="Shape" class="cls-12" d="M211,159H180.3"/>
              <path id="Shape-35" data-name="Shape" class="cls-12" d="M173.3,159h-7.6"/>
              <path id="Shape-36" data-name="Shape" class="cls-10" d="M82.5,165a60,60,0,1,0-43.2,0"/>
              <path id="Shape-37" data-name="Shape" class="cls-10" d="M82.5,165H39.3"/>
            </g>
            <g id="top_lights_1_" class="cls-13" transform="translate(6 56)">
              <ellipse id="Oval-6" data-name="Oval" class="cls-6" cx="25" cy="13" rx="25" ry="13" transform="translate(0.918 38.601) rotate(-49.481)"/>
              <circle id="Oval-7" data-name="Oval" class="cls-6" cx="3.5" cy="3.5" r="3.5" transform="translate(4 51)"/>
              <path id="Shape-38" data-name="Shape" class="cls-6" d="M175.1,21.6h-6V67.2a2.946,2.946,0,0,0,3,3h0a2.946,2.946,0,0,0,3-3Z"/>
            </g>
          </g>
          <g id="main">
            <g id="color_3_" transform="translate(84)">
              <g id="XMLID_10_" transform="translate(0 178)">
                <path id="Shape-39" data-name="Shape" class="cls-14" d="M109.5,20.3A18.039,18.039,0,0,1,94.3,48H18.4a19.126,19.126,0,0,1-6.8-1.3A18.057,18.057,0,0,1,3.2,20.3L10.6,8.7c0-.1.1-.1.1-.2,11.2-16.1,27.1-3.9,46,5h0c14.7,6.9,31.1,11.9,48.4-.1Z"/>
                <path id="Shape-40" data-name="Shape" class="cls-15" d="M109.5,20.3A18.039,18.039,0,0,1,94.3,48H18.4a19.126,19.126,0,0,1-6.8-1.3A18.057,18.057,0,0,1,3.2,20.3L10.6,8.7c0-.1.1-.1.1-.2,11.2-16.1,27.1-3.9,46,5h0c14.7,6.9,31.1,11.9,48.4-.1Z"/>
              </g>
              <g id="XMLID_9_" transform="translate(56 178)">
                <path id="Shape-41" data-name="Shape" class="cls-16" d="M43.8,5l5.3,8.3c-17.3,12-33.7,7.1-48.4.1C18,5.3,32.8-5.6,43.8,5Z"/>
              </g>
              <g id="XMLID_6_" class="cls-17" transform="translate(10 113)">
                <g id="Group">
                  <path id="Shape-42" data-name="Shape" class="cls-6" d="M61.2,25,89.8,70c-10.9-10.6-25.8.3-43.1,8.5h0c-18.9-8.9-34.8-21.1-46-5L31.5,25a18.277,18.277,0,0,0,2.8-9.7V.5h24V15.3A18.107,18.107,0,0,0,61.2,25Z"/>
                </g>
              </g>
              <g id="XMLID_5_" transform="translate(80)">
                <g id="Group-2" data-name="Group">
                  <path id="Shape-43" data-name="Shape" class="cls-18" d="M36.8,3.2a8.028,8.028,0,0,1,0,11.3L18.4,32.9l-3.3-3.3-4.7-4.7L7,21.5,25.4,3.1A7.9,7.9,0,0,1,31,.7,8.8,8.8,0,0,1,36.8,3.2Z"/>
                  <path id="Shape-44" data-name="Shape" class="cls-18" d="M18.4,32.9a3.866,3.866,0,0,1,0,5.6,3.867,3.867,0,0,1-5.6,0L1.5,27.2a3.984,3.984,0,0,1,0-5.7,3.949,3.949,0,0,1,2.8-1.2,3.949,3.949,0,0,1,2.8,1.2l3.4,3.4,4.7,4.7Z"/>
                </g>
              </g>
              <g id="XMLID_8_" transform="translate(58 27)">
                <path id="Shape-45" data-name="Shape" class="cls-19" d="M34.8,11.5,23.5,22.9H.8L23.5.2Z"/>
              </g>
              <g id="XMLID_7_" transform="translate(38 97)">
                <path id="Shape-46" data-name="Shape" class="cls-19" d="M36.3,6.6v4a6.018,6.018,0,0,1-6,6H6.3a6.018,6.018,0,0,1-6-6v-4a6.018,6.018,0,0,1,6-6h24A6.018,6.018,0,0,1,36.3,6.6Z"/>
              </g>
              <g id="XMLID_4_" transform="translate(50 49)">
                <g id="Group-3" data-name="Group">
                  <path id="Shape-47" data-name="Shape" class="cls-20" d="M31.5.9,20.2,12.2a3.866,3.866,0,0,1-5.6,0L8.9,6.5A3.866,3.866,0,0,1,8.9.9Z"/>
                  <path id="Shape-48" data-name="Shape" class="cls-21" d="M14.5,12.2l-4.2,4.2a3.866,3.866,0,0,1-5.6,0,3.867,3.867,0,0,1,0-5.6L8.9,6.6Z"/>
                  <path id="Shape-49" data-name="Shape" class="cls-22" d="M4.6,16.4c13.4,22-13.4,22,0,0Z"/>
                </g>
              </g>
              <path id="Shape-50" data-name="Shape" class="cls-18" d="M18.4,226H8.5c1-.4,2.1-.8,3.1-1.3A18.3,18.3,0,0,0,18.4,226Z"/>
            </g>
            <g id="shadows_1_" transform="translate(122 4)">
              <path id="Shape-51" data-name="Shape" class="cls-6" d="M16.3,103.6v-4h0a1.43,1.43,0,0,1,1.4-1.4H36.1l-3.9-4.3h-12a6.279,6.279,0,0,1,1.9-.3H12.2a6.448,6.448,0,0,0-2,.3H2.4L.2,98.2H4.7a1.52,1.52,0,0,1,1.5,1.4h0v4a6.018,6.018,0,0,0,6,6h10A6,6,0,0,1,16.3,103.6Z"/>
              <rect id="Rectangle-path-6" data-name="Rectangle-path" class="cls-23" width="24.9" height="4.8" transform="translate(5.8 110.1)"/>
              <path id="Shape-52" data-name="Shape" class="cls-24" d="M19.7,188c23.2-17.8,42.9-16.3,47.4-.6C48,204.5,19.7,188,19.7,188Z"/>
              <path id="Shape-53" data-name="Shape" class="cls-25" d="M12.8,71.3c-.5,5.1,6.1,3.9,3.9-6.8C13.6,66.6,12.8,71.3,12.8,71.3Z"/>
              <path id="Shape-54" data-name="Shape" class="cls-25" d="M16.6,60.6l6.8-6.5-4-3.2-4.3,6.2Z"/>
              <g id="Group-4" data-name="Group" class="cls-26" transform="translate(45)">
                <path id="Shape-55" data-name="Shape" class="cls-6" d="M11.1,24.6a4,4,0,0,0-5.6,5.7l-4-4a3.984,3.984,0,0,1,0-5.7,3.949,3.949,0,0,1,2.8-1.2,3.949,3.949,0,0,1,2.8,1.2Z"/>
                <path id="Shape-56" data-name="Shape" class="cls-6" d="M10.3,22.4,28.9,3.8a1.933,1.933,0,0,0,0-2.8h0a1.933,1.933,0,0,0-2.8,0L7.5,19.6Z"/>
              </g>
            </g>
            <g id="lines_2_">
              <path id="Shape-57" data-name="Shape" class="cls-27" d="M260.3,226H7.3"/>
              <path id="Shape-58" data-name="Shape" class="cls-27" d="M279.3,226h-12"/>
              <path id="Shape-59" data-name="Shape" class="cls-27" d="M128.3,113.6h24a6.018,6.018,0,0,0,6-6v-4a6.018,6.018,0,0,0-6-6h-24a6.018,6.018,0,0,0-6,6v4A6.018,6.018,0,0,0,128.3,113.6Z"/>
              <path id="Shape-60" data-name="Shape" class="cls-27" d="M128.3,113.6v14.8a18.538,18.538,0,0,1-2.8,9.7L87.2,198.4a18.039,18.039,0,0,0,15.2,27.7"/>
              <path id="Shape-61" data-name="Shape" class="cls-27" d="M178.3,226a18.039,18.039,0,0,0,15.2-27.7L155.2,138a18.277,18.277,0,0,1-2.8-9.7V113.5"/>
              <path id="Shape-62" data-name="Shape" class="cls-27" d="M95.6,224.7a28.8,28.8,0,0,1-3.1,1.3"/>
              <path id="Shape-63" data-name="Shape" class="cls-27" d="M189.1,191.4c-39.7,27.6-74.9-34.4-94.7-4.3"/>
              <path id="Shape-64" data-name="Shape" class="cls-27" d="M183.8,183c-11-10.6-25.8.3-43.1,8.5h0"/>
              <g id="Group-5" data-name="Group" transform="translate(134)">
                <path id="Shape-65" data-name="Shape" class="cls-27" d="M42.8,38.6,31.5,27.3a3.984,3.984,0,0,1,0-5.7h0a3.984,3.984,0,0,1,5.7,0L48.5,32.9a3.984,3.984,0,0,1,0,5.7h0A4.172,4.172,0,0,1,42.8,38.6Z"/>
                <path id="Shape-66" data-name="Shape" class="cls-27" d="M48.4,32.9,66.8,14.5a8.028,8.028,0,0,0,0-11.3h0a8.028,8.028,0,0,0-11.3,0L37.1,21.6"/>
                <path id="Shape-67" data-name="Shape" class="cls-27" d="M42.8,38.6,20.2,61.2a3.984,3.984,0,0,1-5.7,0L8.8,55.5a3.984,3.984,0,0,1,0-5.7L31.4,27.2"/>
                <path id="Shape-68" data-name="Shape" class="cls-27" d="M14.5,61.2l-4.2,4.2a3.984,3.984,0,0,1-5.7,0h0a3.984,3.984,0,0,1,0-5.7l4.2-4.2"/>
                <path id="Shape-69" data-name="Shape" class="cls-27" d="M4.6,65.4c-13.4,22,13.4,22,0,0"/>
                <path id="Shape-70" data-name="Shape" class="cls-27" d="M8.8,49.9H31.5"/>
                <path id="Shape-71" data-name="Shape" class="cls-28" d="M51.2,23.6l-6,6"/>
                <path id="Shape-72" data-name="Shape" class="cls-28" d="M40.5,25,43,22.5"/>
              </g>
            </g>
            <g id="top_lights" transform="translate(94 31)">
              <path id="Shape-73" data-name="Shape" class="cls-8" d="M29.5,123.5,1.7,166.3a6.025,6.025,0,0,0,5,9.3H22.4a11.342,11.342,0,0,0,11.1-8.8l8.9-37.1a5.755,5.755,0,0,0-2.3-6.2L38,122A5.854,5.854,0,0,0,29.5,123.5Z"/>
              <path id="Shape-74" data-name="Shape" class="cls-25" d="M72.7.3,54,18.9a1.933,1.933,0,0,0,0,2.8h0a1.933,1.933,0,0,0,2.8,0L75.4,3.1Z"/>
              <circle id="Oval-8" data-name="Oval" class="cls-25" cx="3.4" cy="3.4" r="3.4" transform="translate(36.1 110.6)"/>
            </g>
          </g>
        </g>
      </g>
    </g>
    <g id="Group_3" data-name="Group 3">
      <rect id="Rectangle_5" data-name="Rectangle 5" class="cls-1" width="231" height="18" rx="9" transform="translate(754 586)"/>
      <rect id="Rectangle_6" data-name="Rectangle 6" class="cls-1" width="231" height="18" rx="9" transform="translate(1038 617)"/>
      <rect id="Rectangle_7" data-name="Rectangle 7" class="cls-1" width="231" height="18" rx="9" transform="translate(777 296)"/>
      <rect id="Rectangle_8" data-name="Rectangle 8" class="cls-29" width="231" height="18" rx="9" transform="translate(741 343)"/>
      <rect id="Rectangle_9" data-name="Rectangle 9" class="cls-29" width="231" height="18" rx="9" transform="translate(1123 294)"/>
      <rect id="Rectangle_10" data-name="Rectangle 10" class="cls-29" width="231" height="18" rx="9" transform="translate(818 633)"/>
    </g>
  </g>
</svg>
