<svg id="coffee_machine" data-name="coffee machine" xmlns="http://www.w3.org/2000/svg" viewBox="0 0 254 227.81"><defs><style>.cls-1{fill:#ffe095;}.cls-1,.cls-13,.cls-2{opacity:0.25;}.cls-3{fill:#d1b474;}.cls-4{fill:#00b6e3;}.cls-5{fill:#c4f1ff;}.cls-6{fill:#0095ba;}.cls-7{fill:#ddd;}.cls-8{fill:#563528;}.cls-9{fill:#ff5c9b;}.cls-10{fill:#af6e54;}.cls-11{opacity:0.08;}.cls-12,.cls-13,.cls-15{fill:#fff;}.cls-12{opacity:0.5;}.cls-14{opacity:0.15;}.cls-16{fill:#206372;}.cls-17,.cls-18,.cls-19,.cls-20,.cls-21,.cls-22,.cls-23{fill:none;}.cls-17,.cls-18,.cls-19,.cls-20,.cls-22,.cls-23{stroke:#25454a;}.cls-17,.cls-19,.cls-21,.cls-23{stroke-linecap:round;}.cls-17,.cls-19,.cls-21{stroke-linejoin:round;}.cls-17,.cls-18{stroke-width:4px;}.cls-18,.cls-20,.cls-22,.cls-23{stroke-miterlimit:10;}.cls-19,.cls-21,.cls-22,.cls-23{stroke-width:2px;}.cls-21{stroke:#cc3327;}</style></defs><title>coffee machine</title><g id="background"><g id="back_colors" data-name="back colors"><path class="cls-1" d="M521.34,359.88c-1.68-11.06-3.66-22.06-5.13-29.89H482v44h4a8,8,0,0,1,8,8v22h28a1.5,1.5,0,0,1,1.5-1.5C523.89,402.3,527.33,399.33,521.34,359.88Zm-30.82,2.33a22.46,22.46,0,0,1-.21-3.86,4,4,0,0,1,0-.49c0-.15,0-.3,0-.44a7.08,7.08,0,0,1,.14-.94c0-.22.09-.44.14-.66s.1-.37.16-.55.18-.51.29-.75a3,3,0,0,1,.18-.36,4.27,4.27,0,0,1,.3-.51l.19-.27q.13-.18.27-.33a3.68,3.68,0,0,1,.4-.39,4.58,4.58,0,0,1,1.46-.86,4.42,4.42,0,0,1,.55-.17l.09,0a5,5,0,0,1,.58-.11l2.66,19.82C493.41,371.91,491.25,367.69,490.52,362.21Zm9.93,9-2.65-19.82.4,0h.48a5.94,5.94,0,0,1,.86.07,5.13,5.13,0,0,1,.87.26,4.94,4.94,0,0,1,.79.41l.36.26.35.3a1.36,1.36,0,0,1,.24.24l.35.39.31.41h0q.16.23.3.45c.1.16.19.32.28.49s.21.41.3.62l0,.09c.08.18.16.37.23.56s.15.39.22.59l0,.1c.08.24.15.48.22.73s.15.57.22.86.16.75.23,1.14c0,.19.07.38.1.58l.09.6C505.8,366,504.83,370.59,500.45,371.18Z" transform="translate(-282 -178.19)"/><path class="cls-1" d="M515.64,327c-.61-3.21-1.1-5.64-1.37-7h-2.85l1.1,7Z" transform="translate(-282 -178.19)"/><polygon class="cls-1" points="204.91 141.8 200 141.8 200 148.8 205.26 148.8 204.91 141.8"/><path class="cls-1" d="M296.66,359.89c-6,39.44-2.55,42.41-2.14,42.62A1.48,1.48,0,0,1,296,404h28V382a8,8,0,0,1,8-8h4V330H301.79C300.32,337.82,298.34,348.82,296.66,359.89Zm26.21-8.39a5,5,0,0,1,.58.11l.09,0a4.42,4.42,0,0,1,.55.17,4.58,4.58,0,0,1,1.46.86,3.68,3.68,0,0,1,.4.39,6.8,6.8,0,0,1,.46.6,4.27,4.27,0,0,1,.3.51,3,3,0,0,1,.18.36l.18.43.11.32c.06.18.11.36.16.55s.1.44.14.66a7.08,7.08,0,0,1,.14.94c0,.14,0,.29,0,.44a4,4,0,0,1,0,.49,22.46,22.46,0,0,1-.21,3.86c-.73,5.48-2.89,9.7-7.27,9.11Zm-9.94,9,.09-.6c0-.2.06-.39.1-.58.07-.39.14-.77.23-1.14s.14-.58.22-.86.1-.36.16-.53.11-.33.16-.5.12-.33.19-.49.12-.31.19-.46.22-.48.34-.7h0c.19-.34.38-.65.58-.94h0l.31-.41c.12-.13.23-.27.35-.39l.12-.12a.68.68,0,0,1,.12-.12l.35-.3.36-.26a4.94,4.94,0,0,1,.79-.41,5.13,5.13,0,0,1,.87-.26,5.94,5.94,0,0,1,.86-.07h.48l.4,0-2.65,19.82C313.17,370.59,312.2,366,312.93,360.48Z" transform="translate(-282 -178.19)"/><polygon class="cls-1" points="41.55 148.8 54 148.8 54 141.8 42.13 141.8 41.55 148.8"/><polygon class="cls-1" points="39.12 141.8 34.34 141.8 33.52 148.8 38.54 148.8 39.12 141.8"/><polygon class="cls-1" points="31.32 141.8 27.62 141.8 26.51 148.8 30.5 148.8 31.32 141.8"/><path class="cls-1" d="M306.58,320h-2.85c-.27,1.36-.76,3.79-1.37,7h3.12Z" transform="translate(-282 -178.19)"/><polygon class="cls-1" points="227.49 148.8 226.38 141.8 222.68 141.8 223.5 148.8 227.49 148.8"/><polygon class="cls-1" points="220.48 148.8 219.66 141.8 214.88 141.8 215.46 148.8 220.48 148.8"/><polygon class="cls-1" points="212.45 148.8 211.87 141.8 207.91 141.8 208.26 148.8 212.45 148.8"/></g><g id="background_lines_copy" data-name="background lines copy"><g class="cls-2"><path class="cls-3" d="M495.13,351.5c-4.38.59-5.35,5.24-4.62,10.71s2.89,9.7,7.27,9.11l-2.66-19.82Z" transform="translate(-282 -178.19)"/><polygon class="cls-3" points="215.79 193.14 215.79 193.13 215.79 193.13 215.79 193.14"/><path class="cls-3" d="M497.79,351.36h0l2.66,19.82c4.38-.59,5.35-5.23,4.62-10.71S502.17,350.77,497.79,351.36Z" transform="translate(-282 -178.19)"/><polygon class="cls-3" points="218.45 193 218.45 192.99 218.45 192.99 218.45 193"/><path class="cls-3" d="M322.87,351.5h0l-2.66,19.82c4.38.59,6.54-3.63,7.27-9.11S327.25,352.09,322.87,351.5Z" transform="translate(-282 -178.19)"/><polygon class="cls-3" points="38.21 193.14 38.21 193.13 38.21 193.13 38.21 193.14"/><path class="cls-3" d="M320.21,351.36c-4.38-.59-6.54,3.64-7.28,9.11s.24,10.12,4.62,10.71l2.66-19.82Z" transform="translate(-282 -178.19)"/><polygon class="cls-3" points="35.55 192.99 35.55 192.99 35.55 193 35.55 192.99"/><path class="cls-3" d="M517,318.19a1.5,1.5,0,0,0-1.47-1.2H482a1.5,1.5,0,0,0,0,3h4.91l.35,7H482a1.5,1.5,0,0,0,0,3h34.21c1.47,7.83,3.45,18.83,5.13,29.89,6,39.45,2.55,42.42,2.16,42.62a1.5,1.5,0,0,0,0,3,3.06,3.06,0,0,0,2.42-1.21C532.66,396,518.6,326.14,517,318.19ZM505.5,327l-.81-7h3.69l1.11,7Zm-3.83-7,.81,7h-5l-.58-7Zm-11.75,0h4l.58,7h-4.19Zm22.61,7-1.11-7h2.86c.27,1.35.75,3.79,1.37,7Z" transform="translate(-282 -178.19)"/><path class="cls-3" d="M336,320a1.5,1.5,0,0,0,0-3H302.5a1.5,1.5,0,0,0-1.47,1.2c-1.63,7.94-15.69,77.84-9,86.1a3.06,3.06,0,0,0,2.42,1.21A1.51,1.51,0,0,0,296,404a1.49,1.49,0,0,0-1.49-1.5c-.41-.21-3.85-3.17,2.14-42.62,1.68-11.07,3.66-22.07,5.13-29.9H336a1.5,1.5,0,0,0,0-3H323.55l.58-7Zm-27.49,7,1.11-7h3.69l-.81,7Zm-4.79-7h2.86l-1.11,7h-3.12C303,323.78,303.46,321.35,303.73,320Zm16.81,7h-5l.81-7h4.78Z" transform="translate(-282 -178.19)"/></g></g></g><g id="color"><path class="cls-4" d="M494,382v22H463.92L449,389.08V389H368.92v.08L354,404H324V382a8,8,0,0,1,8-8H486A8,8,0,0,1,494,382Z" transform="translate(-282 -178.19)"/><path class="cls-4" d="M494,234v20a8,8,0,0,1-8,8H470.57a15.94,15.94,0,0,0-8.57,2.5,15.51,15.51,0,0,0-2.77,2.22l-5.53,5.56A16,16,0,0,1,442.34,277l-66.81-.07a16,16,0,0,1-11.29-4.68l-5.55-5.55A16,16,0,0,0,347.37,262H332a8,8,0,0,1-8-8V234a8,8,0,0,1,8-8H486A8,8,0,0,1,494,234Zm-10,10a5,5,0,0,0-5-5H459a5,5,0,0,0,0,10h20a5,5,0,0,0,5-5Zm-60.38,12.92a13,13,0,1,0-13,13A13,13,0,0,0,423.62,256.92ZM386,244a6,6,0,1,0-6,6A6,6,0,0,0,386,244Zm-20,0a6,6,0,1,0-6,6A6,6,0,0,0,366,244Zm-20,0a6,6,0,1,0-6,6A6,6,0,0,0,346,244Z" transform="translate(-282 -178.19)"/><path class="cls-5" d="M479,239a5,5,0,1,1,0,10h-3V239Z" transform="translate(-282 -178.19)"/><path class="cls-6" d="M482,328.49V374H423.09v-5h0c9.43-4.2,12-13.66,12-24.65H410.62a3.38,3.38,0,0,1-.11-.34.14.14,0,0,1,0-.07c0-.12-.06-.24-.08-.36a19.74,19.74,0,0,1,0-3.9.2.2,0,0,1,0-.07c.7-5,3-11.74,1.23-17.58h2.93v-7h10v-8h4V287h13.71V277a16,16,0,0,0,11.36-4.71l5.53-5.56A15.51,15.51,0,0,1,462,264.5V286l-8,7h28v35.49Z" transform="translate(-282 -178.19)"/><polygon class="cls-6" points="200 83.81 200 114.81 192 107.81 192 83.81 200 83.81"/><polygon class="cls-7" points="200 114.81 172 114.81 180 107.81 192 107.81 200 114.81"/><rect class="cls-5" x="180" y="60.81" width="14" height="10"/><path class="cls-7" d="M474,262v24H462V264.5a15.94,15.94,0,0,1,8.57-2.5Z" transform="translate(-282 -178.19)"/><path class="cls-5" d="M462,239v10h-3a5,5,0,1,1,0-10Z" transform="translate(-282 -178.19)"/><polygon class="cls-4" points="167.62 9 163.63 9 93.62 9 89.62 9 96.62 2 160.62 2 167.62 9"/><path class="cls-8" d="M445.63,199.92v7.27h-70v-5.11c2.13-1.25,5.55-1.66,7.3-.41.91-3.59,5.75-3.34,6.25-1.34,1.41-.75,4.16-.08,4.25,1.34,1.25-.84,3.41-.17,3.58.75,1.25-1.42,5.17-.92,5.92.66,1-.25,2.66-.41,3.08.34,1.25-2.09,4.75-2.84,5.58-1.09.84-1.25,3-2.56,4.92-1.24.17-2,5.75-4,5.83-1,1.09.17,3.59.84,3.42,2.59.67-1.09,3.58-1.5,4.42-.17,1-1.83,6.16-2.58,6.83-.58.42-1.09,3.17-3.09,4.67-1.59C442.92,199.5,444.5,198.67,445.63,199.92Z" transform="translate(-282 -178.19)"/><path class="cls-7" d="M445.63,187.19v12.73c-1.13-1.25-2.71-.42-4,.41-1.5-1.5-4.25.5-4.67,1.59-.67-2-5.83-1.25-6.83.58-.84-1.33-3.75-.92-4.42.17.17-1.75-2.33-2.42-3.42-2.59-.08-3-5.66-1-5.83,1-1.92-1.32-4.08,0-4.92,1.24-.83-1.75-4.33-1-5.58,1.09-.42-.75-2.08-.59-3.08-.34-.75-1.58-4.67-2.08-5.92-.66-.17-.92-2.33-1.59-3.58-.75-.09-1.42-2.84-2.09-4.25-1.34-.5-2-5.34-2.25-6.25,1.34-1.75-1.25-5.17-.84-7.3.41V187.19Z" transform="translate(-282 -178.19)"/><polygon class="cls-8" points="163.63 29 153.62 40.81 103.62 40.81 93.62 29 163.63 29"/><polygon class="cls-4" points="160.34 98.8 160.34 108.8 146.63 108.79 110.62 108.75 93.53 108.73 93.53 98.73 160.34 98.8"/><rect class="cls-4" x="103.62" y="40.81" width="50" height="7"/><path class="cls-9" d="M410.62,344.31h24.46c0,11-2.56,20.45-12,24.65h-22c-9.44-4.2-12-13.66-12-24.66h21.54Z" transform="translate(-282 -178.19)"/><polygon class="cls-7" points="146.63 108.8 146.63 128.8 142.62 128.8 114.62 128.8 110.62 128.8 110.62 114.8 110.62 108.8 110.62 108.75 146.63 108.79 146.63 108.8"/><polygon class="cls-7" points="142.62 128.8 142.62 136.8 132.62 136.8 124.62 136.8 114.62 136.8 114.62 128.8 142.62 128.8"/><rect class="cls-9" x="119.09" y="190.78" width="22" height="5.03"/><path class="cls-7" d="M410.62,243.92a13,13,0,1,1-13,13A13,13,0,0,1,410.62,243.92Zm2,13a2,2,0,1,0-4,0,2,2,0,0,0,2,2A2,2,0,0,0,412.62,256.92Z" transform="translate(-282 -178.19)"/><polygon class="cls-7" points="132.62 136.8 132.62 143.8 129.69 143.8 127.25 143.8 124.62 143.8 124.62 136.8 132.62 136.8"/><path class="cls-6" d="M410.62,344.31H389.08c0,11,2.57,20.46,12,24.66v5H336V303h32.5v-2h24v-8h.12v14h4v8h10v7h2.63c2.69,4.64,1.61,12.39,1.21,17.58a.2.2,0,0,0,0,.07,11.14,11.14,0,0,0,0,3.9c0,.12,0,.24.08.36a.14.14,0,0,0,0,.07A2.27,2.27,0,0,0,410.62,344.31Z" transform="translate(-282 -178.19)"/><path class="cls-6" d="M392.62,287v6H368.5v-2H336V262h11.37a16,16,0,0,1,11.32,4.69l5.55,5.55a16,16,0,0,0,11.29,4.68v10l17.09,0Z" transform="translate(-282 -178.19)"/><polygon class="cls-7" points="110.5 114.8 110.5 122.8 86.5 122.8 86.5 115.8 86.5 114.8 110.5 114.8"/><circle class="cls-5" cx="98" cy="65.81" r="6"/><polygon class="cls-10" points="86.5 122.8 86.5 124.8 77.5 124.8 86.5 115.8 86.5 122.8"/><polygon class="cls-10" points="86.5 114.8 86.5 115.8 77.5 124.8 67.5 124.8 79.37 112.93 79.37 112.8 86.5 112.8 86.5 114.8"/><circle class="cls-5" cx="78" cy="65.81" r="6"/><polygon class="cls-10" points="79.37 112.8 79.37 112.93 67.5 124.8 57.5 124.8 69.37 112.93 69.37 112.8 79.37 112.8"/><polygon class="cls-10" points="69.37 112.8 69.37 112.93 57.5 124.8 54 124.8 47.5 124.8 59.37 112.93 59.37 112.8 69.37 112.8"/><circle class="cls-5" cx="58" cy="65.81" r="6"/><polygon class="cls-10" points="59.37 112.8 59.37 112.93 47.5 124.8 37.5 124.8 49.37 112.93 49.37 112.8 54 112.8 59.37 112.8"/><polygon class="cls-10" points="49.37 112.8 49.37 112.93 37.5 124.8 37.5 122.8 37.5 114.8 37.5 112.8 49.37 112.8"/><path class="cls-10" d="M324,247v6h-4a4,4,0,0,1-4-4v-2Z" transform="translate(-282 -178.19)"/><rect class="cls-10" x="34" y="62.81" width="8" height="6"/><path class="cls-10" d="M324,235v6h-8v-2a4,4,0,0,1,4-4Z" transform="translate(-282 -178.19)"/><rect class="cls-7" x="30.5" y="114.8" width="7" height="8"/></g><g id="shadows"><path class="cls-11" d="M390.13,359.16c10.63,8.35,36.55,4.78,40.13-14.84a11.93,11.93,0,0,1,4.84.69s3.72,17.06-12,24v5.53l-21.34-.5v-4Z" transform="translate(-282 -178.19)"/><path class="cls-12" d="M493.29,378.71A7.87,7.87,0,0,0,490,378H336c-6.29,0-8,2.21-8,8v18h-4V382a8,8,0,0,1,8-8H486A8,8,0,0,1,493.29,378.71Z" transform="translate(-282 -178.19)"/><path class="cls-11" d="M455.67,394.08c9.92,6.58,37.62,6.67,37.62-11.58l.71,21H463.42Z" transform="translate(-282 -178.19)"/><rect class="cls-13" x="34" y="56.81" width="8" height="18"/><path class="cls-12" d="M492.56,230.42A8,8,0,0,0,490,230H336c-5.92,0-8,1.5-8,8v20a8,8,0,0,0,1.44,4.58A8,8,0,0,1,324,255V235a8,8,0,0,1,8-8H486A8,8,0,0,1,492.56,230.42Z" transform="translate(-282 -178.19)"/><rect class="cls-12" x="30.5" y="114.8" width="5.77" height="4"/><rect class="cls-13" x="37.5" y="112.8" width="48.25" height="4.51"/><rect class="cls-12" x="85.5" y="114.8" width="25.77" height="4"/><path class="cls-14" d="M482,262v10h-7.33l-2.1-4a16,16,0,0,0-10,3.5c-.47.38-.93,4.78-1.36,5.22l-5.53,5.56A16,16,0,0,1,444.34,287l-66.81-.07a16,16,0,0,1-11.29-4.68l-5.55-5.55A16,16,0,0,0,349.37,272H336V262h11.37a16,16,0,0,1,11.32,4.69l5.55,5.55a16,16,0,0,0,11.29,4.68l66.81.07a16,16,0,0,0,11.36-4.71l5.53-5.56A16,16,0,0,1,470.57,262Z" transform="translate(-282 -178.19)"/><path class="cls-11" d="M336,272v0Z" transform="translate(-282 -178.19)"/><path class="cls-13" d="M345.79,241.55a5.91,5.91,0,0,0-3.12-.88,6,6,0,0,0-6,6,5.91,5.91,0,0,0,.88,3.12,6,6,0,1,1,8.24-8.24Z" transform="translate(-282 -178.19)"/><path class="cls-13" d="M365.79,241.55a5.91,5.91,0,0,0-3.12-.88,6,6,0,0,0-6,6,5.91,5.91,0,0,0,.88,3.12,6,6,0,1,1,8.24-8.24Z" transform="translate(-282 -178.19)"/><path class="cls-13" d="M385.79,241.55a5.91,5.91,0,0,0-3.12-.88,6,6,0,0,0-6,6,5.91,5.91,0,0,0,.88,3.12,6,6,0,1,1,8.24-8.24Z" transform="translate(-282 -178.19)"/><path class="cls-13" d="M482.7,243a4.93,4.93,0,0,0-2.39-.61h-20a5,5,0,0,0-5,5,4.93,4.93,0,0,0,.61,2.39,5,5,0,0,1,2.39-9.39h20A5,5,0,0,1,482.7,243Z" transform="translate(-282 -178.19)"/><path class="cls-15" d="M421.19,250.07A13,13,0,0,0,403,268.21a13,13,0,1,1,18.14-18.14Z" transform="translate(-282 -178.19)"/><rect class="cls-14" x="104" y="40.81" width="48.88" height="7"/><rect class="cls-12" x="94.5" y="1.43" width="70.38" height="4.07"/><path class="cls-11" d="M336,284c0,51.78,16,66.79,51,70.38,2.1,3.62,4.48,14.59,23.6,14.59,21.55,0,19.94-11.15,22.88-19,.36-1,5.91-1.13,6.29-2C469.89,331.06,482,289.11,482,264l-.67,110-145.9.5Z" transform="translate(-282 -178.19)"/><rect class="cls-14" x="109.75" y="109.56" width="37.5" height="3.37"/><rect class="cls-14" x="124.62" y="136.8" width="8" height="6.13"/><rect class="cls-14" x="114.62" y="128.8" width="30.5" height="4"/><path class="cls-14" d="M423.66,257.7a13,13,0,0,1-23.57,7.57,13,13,0,0,0,18.14-18.14A13,13,0,0,1,423.66,257.7Z" transform="translate(-282 -178.19)"/><polygon class="cls-16" points="72.69 225.81 87.03 211.47 167 211.47 181.13 225.6 72.69 225.81"/><rect class="cls-12" x="115.62" y="107.81" width="6.88" height="20.38"/><rect class="cls-12" x="119.69" y="128.18" width="4" height="7.88"/><rect class="cls-12" x="180.5" y="85.06" width="3.63" height="22.75"/><polygon class="cls-12" points="183.25 108.31 180 115.23 175 114.81 180 106.56 183.25 108.31"/><ellipse class="cls-12" cx="397.48" cy="353.74" rx="3.44" ry="5.09" transform="translate(-367.43 -47.87) rotate(-16.84)"/><path class="cls-12" d="M433.81,347.81H390.13c-1.19,4.75-.31-3.56-.31-3.56H433Z" transform="translate(-282 -178.19)"/><ellipse class="cls-12" cx="403.15" cy="351.34" rx="1.43" ry="2.12" transform="translate(-374.35 -27.97) rotate(-18.98)"/></g><g id="lines"><path class="cls-17" d="M423.09,374v-5c9.43-4.2,12-13.66,12-24.65h-46c0,11,2.57,20.46,12,24.66v5" transform="translate(-282 -178.19)"/><path class="cls-18" d="M434.87,349.45h.21a5.64,5.64,0,1,1,0,11.28,5.51,5.51,0,0,1-2.82-.76" transform="translate(-282 -178.19)"/><line class="cls-19" x1="119.09" y1="190.78" x2="141.09" y2="190.78"/><path class="cls-18" d="M409.25,322c3.81,6.57.06,19.38,1.38,22.32-1.75-4.44,3.44-14.25,1.06-22.32" transform="translate(-282 -178.19)"/><path class="cls-17" d="M494,404V382a8,8,0,0,0-8-8H332a8,8,0,0,0-8,8v22h30l14.92-14.92V389H449v.08L463.92,404Z" transform="translate(-282 -178.19)"/><line class="cls-17" x1="54" y1="112.8" x2="54" y2="83.81"/><line class="cls-17" x1="54" y1="195.81" x2="54" y2="124.8"/><line class="cls-17" x1="200" y1="195.81" x2="200" y2="83.81"/><line class="cls-17" x1="181.92" y1="225.81" x2="161.92" y2="225.81"/><line class="cls-17" x1="212" y1="225.81" x2="252" y2="225.81"/><line class="cls-17" x1="72" y1="225.81" x2="92" y2="225.81"/><line class="cls-17" x1="42" y1="225.81" x2="2" y2="225.81"/><line class="cls-17" x1="106" y1="225.81" x2="154.92" y2="225.81"/><line class="cls-17" x1="99.01" y1="225.81" x2="99" y2="225.81"/><path class="cls-17" d="M324,235h-4a4,4,0,0,0-4,4v10a4,4,0,0,0,4,4h4" transform="translate(-282 -178.19)"/><path class="cls-17" d="M449,276.92" transform="translate(-282 -178.19)"/><path class="cls-17" d="M453.7,272.28l5.53-5.56A16,16,0,0,1,470.57,262H486a8,8,0,0,0,8-8V234a8,8,0,0,0-8-8H332a8,8,0,0,0-8,8v20a8,8,0,0,0,8,8h15.37a16,16,0,0,1,11.31,4.69l5.55,5.55a16,16,0,0,0,11.3,4.69l66.8.07A16,16,0,0,0,453.7,272.28Z" transform="translate(-282 -178.19)"/><circle class="cls-17" cx="128.62" cy="78.73" r="13"/><circle class="cls-19" cx="128.62" cy="78.73" r="2"/><polyline class="cls-17" points="93.53 98.73 93.53 108.73 160.34 108.8 160.34 98.8"/><polyline class="cls-17" points="146.63 108.8 146.63 128.8 110.63 128.8 110.63 108.8"/><polyline class="cls-17" points="142.63 128.8 142.63 136.8 114.63 136.8 114.63 128.8"/><polyline class="cls-17" points="132.63 136.8 132.63 143.8 124.63 143.8 124.63 136.8"/><polyline class="cls-17" points="86.5 114.8 110.5 114.8 110.5 122.8 86.5 122.8"/><polyline class="cls-17" points="37.5 122.8 30.5 122.8 30.5 114.8 37.5 114.8"/><rect class="cls-17" x="37.5" y="112.8" width="49" height="12"/><line class="cls-17" x1="108.62" y1="92.73" x2="108.63" y2="92.73"/><line class="cls-17" x1="148.62" y1="92.73" x2="148.63" y2="92.73"/><circle class="cls-18" cx="58" cy="65.81" r="6"/><circle class="cls-18" cx="78" cy="65.81" r="6"/><circle class="cls-18" cx="98" cy="65.81" r="6"/><rect class="cls-18" x="172" y="60.81" width="30" height="10" rx="5" ry="5"/><line class="cls-18" x1="115.62" y1="57.73" x2="141.62" y2="57.73"/><polyline class="cls-17" points="153.63 47.81 153.63 40.81 103.63 40.81 103.63 47.81"/><polyline class="cls-17" points="103.63 40.81 93.63 29 93.63 9"/><polyline class="cls-17" points="153.63 40.81 163.63 29 163.63 9"/><polygon class="cls-17" points="160.62 2 96.62 2 89.62 9 167.62 9 160.62 2"/><line class="cls-19" x1="93.62" y1="29" x2="163.63" y2="29"/><line class="cls-18" x1="49" y1="205.81" x2="75" y2="205.81"/><path class="cls-20" d="M375.63,202.08c2.13-1.25,5.54-1.67,7.29-.42.92-3.58,5.75-3.33,6.25-1.33,1.42-.75,4.17-.08,4.25,1.33,1.25-.83,3.42-.17,3.58.75,1.25-1.42,5.17-.92,5.92.67,1-.25,2.67-.42,3.08.33,1.25-2.08,4.75-2.83,5.58-1.08.83-1.25,3-2.56,4.92-1.24.17-2,5.75-4,5.83-1,1.08.17,3.58.83,3.42,2.58.67-1.08,3.58-1.5,4.42-.17,1-1.83,6.17-2.58,6.83-.58.42-1.08,3.17-3.08,4.67-1.58,1.25-.83,2.83-1.67,4-.42" transform="translate(-282 -178.19)"/><polyline class="cls-17" points="188.57 83.81 192 83.81 192 107.81 180 107.81 180 86.31"/><polyline class="cls-17" points="192 107.81 200 114.81 172 114.81 180 107.81"/><line class="cls-19" x1="194" y1="60.81" x2="194" y2="70.81"/><line class="cls-19" x1="180" y1="60.81" x2="180" y2="70.81"/><path class="cls-21" d="M402.63,256.92a8,8,0,1,1,16,0" transform="translate(-282 -178.19)"/><line class="cls-19" x1="125.79" y1="81.56" x2="134.28" y2="73.07"/><line class="cls-22" x1="34" y1="62.81" x2="42" y2="62.81"/><line class="cls-22" x1="34" y1="68.81" x2="42" y2="68.81"/><line class="cls-22" x1="37.5" y1="124.8" x2="49.37" y2="112.93"/><line class="cls-22" x1="47.5" y1="124.8" x2="59.37" y2="112.93"/><line class="cls-22" x1="57.5" y1="124.8" x2="69.37" y2="112.93"/><line class="cls-22" x1="67.5" y1="124.8" x2="79.37" y2="112.93"/><line class="cls-22" x1="77.5" y1="124.8" x2="86.5" y2="115.8"/><line class="cls-23" x1="194" y1="179.81" x2="194" y2="195.81"/><line class="cls-23" x1="190" y1="187.81" x2="190" y2="195.81"/></g><g id="top_lights" data-name="top lights"><polygon class="cls-12" points="108.2 11.05 95.57 23.68 95.57 28.48 100.03 33.5 122.48 11.04 108.2 11.05"/><polygon class="cls-12" points="128.2 11.04 102.63 36.62 104.63 38.86 114.67 38.86 142.48 11.04 128.2 11.04"/></g></svg>