<svg xmlns="http://www.w3.org/2000/svg" viewBox="0 0 348 296.69"><defs><style>.cls-1{fill:#ddd;}.cls-2{fill:#ff442e;}.cls-3{fill:#54c972;}.cls-11,.cls-12,.cls-13,.cls-14,.cls-4,.cls-9{fill:none;}.cls-12,.cls-4{stroke:#fff;}.cls-11,.cls-12,.cls-4,.cls-9{stroke-linecap:round;stroke-linejoin:round;}.cls-11,.cls-4{stroke-width:2px;}.cls-13,.cls-5{opacity:0.1;}.cls-6{opacity:0.08;}.cls-17,.cls-7,.cls-8{fill:#fff;}.cls-7{opacity:0.33;}.cls-11,.cls-9{stroke:#3c5b66;}.cls-12,.cls-9{stroke-width:4px;}.cls-10{fill:#47a155;}.cls-15{fill:#00b6e3;}.cls-16{fill:#ffd18c;}.cls-17{opacity:0.66;}.cls-18{opacity:0.25;}.cls-19{opacity:0.5;}.cls-20{fill:#3c5b66;}</style></defs><title>winter coffee</title><g id="coffee"><g id="coffee-2" data-name="coffee"><polygon class="cls-1" points="237.07 132.69 247.07 148.69 239.07 148.69 123.07 148.69 115.07 148.69 125.07 132.69 131.07 132.69 231.07 132.69 237.07 132.69"/><polygon class="cls-2" points="239.07 148.69 236.33 188.69 125.81 188.69 123.07 148.69 239.07 148.69"/><polygon class="cls-3" points="236.33 188.69 231.12 264.69 131.02 264.69 125.81 188.69 236.33 188.69"/><polygon class="cls-2" points="231.12 264.69 229.07 294.69 133.07 294.69 131.02 264.69 231.12 264.69"/><polygon class="cls-1" points="231.07 118.69 231.07 132.69 131.07 132.69 131.07 122.69 231.07 118.69"/><circle class="cls-4" cx="433.83" cy="392.43" r="2" transform="translate(-369.5 193.5) rotate(-45)"/><polyline class="cls-4" points="213.34 162.81 210.51 159.98 210.51 157.49"/><line class="cls-4" x1="210.51" y1="159.98" x2="207.85" y2="159.98"/><polyline class="cls-4" points="213.34 165.64 210.51 168.47 208.02 168.47"/><line class="cls-4" x1="210.51" y1="168.47" x2="210.51" y2="171.13"/><polyline class="cls-4" points="216.16 165.64 218.99 168.47 218.99 170.96"/><line class="cls-4" x1="218.99" y1="168.47" x2="221.65" y2="168.47"/><polyline class="cls-4" points="216.16 162.81 218.99 159.98 221.48 159.98"/><line class="cls-4" x1="218.99" y1="159.98" x2="218.99" y2="157.32"/><line class="cls-4" x1="214.75" y1="158.49" x2="214.75" y2="162.22"/><line class="cls-4" x1="209.02" y1="164.22" x2="212.75" y2="164.22"/><line class="cls-4" x1="214.75" y1="169.96" x2="214.75" y2="166.22"/><line class="cls-4" x1="220.48" y1="164.22" x2="216.75" y2="164.22"/><circle class="cls-4" cx="397.05" cy="406.44" r="2" transform="translate(-390.18 171.6) rotate(-45)"/><polyline class="cls-4" points="176.56 176.82 173.73 173.99 173.73 171.5"/><line class="cls-4" x1="173.73" y1="173.99" x2="171.07" y2="173.99"/><polyline class="cls-4" points="176.56 179.65 173.73 182.48 171.24 182.48"/><line class="cls-4" x1="173.73" y1="182.48" x2="173.73" y2="185.14"/><polyline class="cls-4" points="179.38 179.65 182.21 182.48 182.21 184.97"/><line class="cls-4" x1="182.21" y1="182.48" x2="184.87" y2="182.48"/><polyline class="cls-4" points="179.38 176.82 182.21 173.99 184.7 173.99"/><line class="cls-4" x1="182.21" y1="173.99" x2="182.21" y2="171.33"/><line class="cls-4" x1="177.97" y1="172.5" x2="177.97" y2="176.23"/><line class="cls-4" x1="172.24" y1="178.23" x2="175.97" y2="178.23"/><line class="cls-4" x1="177.97" y1="183.97" x2="177.97" y2="180.23"/><line class="cls-4" x1="183.7" y1="178.23" x2="179.97" y2="178.23"/><circle class="cls-4" cx="375.51" cy="505.02" r="2" transform="translate(-466.2 185.24) rotate(-45)"/><polyline class="cls-4" points="155.02 275.41 152.19 272.58 152.19 270.09"/><line class="cls-4" x1="152.19" y1="272.58" x2="149.53" y2="272.58"/><polyline class="cls-4" points="155.02 278.23 152.19 281.06 149.7 281.06"/><line class="cls-4" x1="152.19" y1="281.06" x2="152.19" y2="283.72"/><polyline class="cls-4" points="157.84 278.23 160.67 281.06 160.67 283.55"/><line class="cls-4" x1="160.67" y1="281.06" x2="163.33" y2="281.06"/><polyline class="cls-4" points="157.84 275.41 160.67 272.58 163.16 272.58"/><line class="cls-4" x1="160.67" y1="272.58" x2="160.67" y2="269.92"/><line class="cls-4" x1="156.43" y1="271.09" x2="156.43" y2="274.82"/><line class="cls-4" x1="150.7" y1="276.82" x2="154.43" y2="276.82"/><line class="cls-4" x1="156.43" y1="282.55" x2="156.43" y2="278.82"/><line class="cls-4" x1="162.16" y1="276.82" x2="158.43" y2="276.82"/><circle class="cls-4" cx="357.05" cy="390.43" r="2" transform="translate(-390.58 138.62) rotate(-45)"/><polyline class="cls-4" points="136.56 160.81 133.73 157.98 133.73 155.49"/><line class="cls-4" x1="133.73" y1="157.98" x2="131.07" y2="157.98"/><polyline class="cls-4" points="136.56 163.64 133.73 166.47 131.24 166.47"/><line class="cls-4" x1="133.73" y1="166.47" x2="133.73" y2="169.13"/><polyline class="cls-4" points="139.38 163.64 142.21 166.47 142.21 168.96"/><line class="cls-4" x1="142.21" y1="166.47" x2="144.87" y2="166.47"/><polyline class="cls-4" points="139.38 160.81 142.21 157.98 144.7 157.98"/><line class="cls-4" x1="142.21" y1="157.98" x2="142.21" y2="155.32"/><line class="cls-4" x1="137.97" y1="156.49" x2="137.97" y2="160.22"/><line class="cls-4" x1="132.24" y1="162.22" x2="135.97" y2="162.22"/><line class="cls-4" x1="137.97" y1="167.96" x2="137.97" y2="164.22"/><line class="cls-4" x1="143.7" y1="162.22" x2="139.97" y2="162.22"/></g><g id="shadows"><path class="cls-5" d="M347.27,451.57c2.16,31.5,103.56,34.15,108.14-33.18-2.84,39.95-7.26,104.5-7.26,104.5h-96Z" transform="translate(-219.08 -228.2)"/><rect class="cls-6" x="123.07" y="146.92" width="115.49" height="7.38"/><polygon class="cls-7" points="128.18 206.29 132.44 193.69 235.98 193.69 235.98 190.19 124.69 188.69 128.18 206.29"/><polygon class="cls-8" points="136.58 132.69 136.58 127.6 231.07 122.94 231.07 118.69 131.07 124.31 131.07 132.69 136.58 132.69"/><polygon class="cls-8" points="131.07 148.69 123.07 144.55 127.07 137.72 239.07 137.72 237.07 132.69 125.07 132.69 115.07 148.69 131.07 148.69"/></g><g id="coffee_copy" data-name="coffee copy"><polygon class="cls-9" points="133.07 294.69 229.07 294.69 239.07 148.69 123.07 148.69 133.07 294.69"/><polygon class="cls-9" points="237.07 132.69 125.07 132.69 115.07 148.69 247.07 148.69 237.07 132.69"/><polyline class="cls-9" points="131.07 132.69 131.07 122.69 231.07 118.69 231.07 132.69"/><line class="cls-9" x1="236.33" y1="188.69" x2="125.81" y2="188.69"/><line class="cls-9" x1="231.12" y1="264.69" x2="131.02" y2="264.69"/><path class="cls-10" d="M411.66,441.26a2,2,0,0,0-.29-3.08c-6.13-4-15.84-2-22.89,5s-9,16.75-5,22.89a2,2,0,0,0,3.08.29Z" transform="translate(-219.08 -228.2)"/><path class="cls-10" d="M413.78,443.38a2,2,0,0,1,3.08.29c4,6.13,2,15.84-5,22.89s-16.75,9-22.89,5a2,2,0,0,1-.29-3.08Z" transform="translate(-219.08 -228.2)"/><line class="cls-11" x1="161.43" y1="259.69" x2="189.43" y2="259.69"/><line class="cls-11" x1="199.43" y1="255.69" x2="189.43" y2="255.69"/><line class="cls-11" x1="183.43" y1="255.69" x2="171.43" y2="255.69"/><line class="cls-11" x1="186.43" y1="255.69" x2="186.43" y2="255.69"/><line class="cls-11" x1="132.43" y1="193.69" x2="160.43" y2="193.69"/><path class="cls-12" d="M422.6,338.2a12,12,0,0,1,0-24" transform="translate(-219.08 -228.2)"/><path class="cls-12" d="M432.6,278.2a18,18,0,1,1,0,36" transform="translate(-219.08 -228.2)"/><path class="cls-12" d="M403.35,239.87a24,24,0,0,1,19.25-9.67" transform="translate(-219.08 -228.2)"/><path class="cls-12" d="M399.88,246.47A24,24,0,0,0,422.6,278.2" transform="translate(-219.08 -228.2)"/><line class="cls-12" x1="213.52" y1="2" x2="213.53" y2="2"/></g></g><g id="snow"><g id="color"><path class="cls-8" d="M544.46,457.27a5,5,0,1,1-5,5A5,5,0,0,1,544.46,457.27Z" transform="translate(-219.08 -228.2)"/><circle class="cls-8" cx="305.25" cy="136.44" r="6.5"/><path class="cls-8" d="M500.46,326.27a4,4,0,1,1-4,4A4,4,0,0,1,500.46,326.27Z" transform="translate(-219.08 -228.2)"/><circle class="cls-8" cx="265.25" cy="194.44" r="6.5"/><path class="cls-8" d="M358.54,503.3a20.12,20.12,0,0,1,15.54,19.59H327.8A28,28,0,0,0,279.22,505h0C252.33,437.39,378.58,440.64,358.54,503.3Z" transform="translate(-219.08 -228.2)"/><path class="cls-8" d="M327.8,522.89H271.86a27.65,27.65,0,0,1,3.8-13.06,27.09,27.09,0,0,1,3.56-4.81,28,28,0,0,1,48.58,17.87Z" transform="translate(-219.08 -228.2)"/><circle class="cls-8" cx="101.25" cy="76.44" r="6.5"/><path class="cls-8" d="M310.46,316.27a4,4,0,1,1-4,4A4,4,0,0,1,310.46,316.27Z" transform="translate(-219.08 -228.2)"/><path class="cls-8" d="M283.46,384.27a5,5,0,1,1-5,5A5,5,0,0,1,283.46,384.27Z" transform="translate(-219.08 -228.2)"/><path class="cls-8" d="M275.66,509.83a27.65,27.65,0,0,0-3.8,13.06H257.09c0-.13,0-.25,0-.38a13.62,13.62,0,0,1,13.63-13.62A13.33,13.33,0,0,1,275.66,509.83Z" transform="translate(-219.08 -228.2)"/><circle class="cls-8" cx="42.25" cy="245.44" r="6.5"/><path class="cls-8" d="M259.46,491.27a5,5,0,1,1-5,5A5,5,0,0,1,259.46,491.27Z" transform="translate(-219.08 -228.2)"/></g><g id="shadows-2" data-name="shadows"><path class="cls-5" d="M275.66,511.92c-5.1,8.28,54.57,11.06,44.79-6.9,6.22,5,7.35,17.87,7.35,17.87H271.86S272.33,512.46,275.66,511.92Z" transform="translate(-219.08 -228.2)"/><path class="cls-5" d="M263.24,512.83c-4.64,3.45,4.91,9.83,9.69,3.06-.73,3.64-1.06,7-1.06,7l-14.78-.38S257.79,514.86,263.24,512.83Z" transform="translate(-219.08 -228.2)"/><path class="cls-5" d="M348.89,465.94c12.61,16.78-17.89,43.48-34.46,34.12,6,3,13.67,18.66,13.37,22.83h47s-1.86-12.92-7.51-15c5.58,8.24-16.49,15-32.32,8,.67-4.67,5.2-10.91,12.27-12.87,10.23-1.3,11.44-.25,11.44-.25S368.62,476.83,348.89,465.94Z" transform="translate(-219.08 -228.2)"/><path class="cls-5" d="M276.83,478c-1.37,8.23,3.25,18.17,15.5,18.27C286.5,498.06,280,505,280,505S271.66,485.61,276.83,478Z" transform="translate(-219.08 -228.2)"/><path class="cls-13" d="M255.5,473.64c2.17,3.75,9.91,3.75,10.87-2.25C266.83,479.73,256.33,483.23,255.5,473.64Z" transform="translate(-219.08 -228.2)"/><path class="cls-13" d="M255.5,494.42c-.62,3.86,7.51,5.64,9.5.81C261.67,502.73,254.5,501.61,255.5,494.42Z" transform="translate(-219.08 -228.2)"/><path class="cls-13" d="M278.72,387.67c.44,4.16,8.11,4.28,8.78,0C287.33,395.06,278.28,396.61,278.72,387.67Z" transform="translate(-219.08 -228.2)"/><path class="cls-13" d="M314,303.36c-1.29,7.36,12.37,4.2,12.87-1.8C323.92,310.07,317.92,314.33,314,303.36Z" transform="translate(-219.08 -228.2)"/><path class="cls-13" d="M477.94,423.79c2.27,3.88,12.9,2.68,11.48-5.19C491.17,425.89,483.71,435.18,477.94,423.79Z" transform="translate(-219.08 -228.2)"/><path class="cls-13" d="M546.83,459.73c1.5,3-4.82,5.74-7,4.45C543.33,471.39,551.5,465.56,546.83,459.73Z" transform="translate(-219.08 -228.2)"/><path class="cls-13" d="M517.83,364.64c3.67,4.08,11.89,2.82,11.44-4.21C532.5,373.56,518.5,375.89,517.83,364.64Z" transform="translate(-219.08 -228.2)"/></g><g id="lines"><line class="cls-9" x1="346" y1="294.69" x2="340" y2="294.69"/><polyline class="cls-9" points="27.58 294.69 38.01 294.69 52.78 294.69 65.24 294.69 108.72 294.69 333 294.69"/><line class="cls-9" x1="12.58" y1="294.69" x2="2" y2="294.69"/><line class="cls-9" x1="20.09" y1="294.69" x2="20.07" y2="294.69"/><path class="cls-9" d="M338.32,510.21a20.13,20.13,0,0,1,35.76,12.68" transform="translate(-219.08 -228.2)"/><path class="cls-9" d="M271.86,522.89a28,28,0,0,1,55.94,0" transform="translate(-219.08 -228.2)"/><path class="cls-9" d="M275.66,509.83a13.33,13.33,0,0,0-4.95-.94,13.62,13.62,0,0,0-13.63,13.62c0,.13,0,.25,0,.38" transform="translate(-219.08 -228.2)"/><path class="cls-9" d="M358.55,503.3c20-62.66-106.21-65.91-79.34,1.72" transform="translate(-219.08 -228.2)"/><circle class="cls-14" cx="42.25" cy="245.44" r="6.5"/><circle class="cls-14" cx="40.38" cy="268.07" r="5"/><circle class="cls-14" cx="64.38" cy="161.07" r="5"/><circle class="cls-14" cx="325.38" cy="234.07" r="5"/><circle class="cls-14" cx="265.25" cy="194.44" r="6.5"/><circle class="cls-14" cx="305.25" cy="136.44" r="6.5"/><circle class="cls-14" cx="101.25" cy="76.44" r="6.5"/><circle class="cls-14" cx="91.38" cy="92.07" r="4"/><circle class="cls-14" cx="281.38" cy="102.07" r="4"/></g></g><g id="creckers"><g id="color-2" data-name="color"><path class="cls-15" d="M541.08,498.89a5,5,0,0,1,0,10h-154a5,5,0,0,1,0-10h154Z" transform="translate(-219.08 -228.2)"/><path class="cls-15" d="M387.08,508.89h154a14,14,0,0,1-14,14h-126A14,14,0,0,1,387.08,508.89Z" transform="translate(-219.08 -228.2)"/><path class="cls-16" d="M528.5,498.89H486.7a86.36,86.36,0,0,1,24.3-6.45,26.84,26.84,0,0,1,10.16.62C524.56,494.14,528.5,498.89,528.5,498.89Z" transform="translate(-219.08 -228.2)"/><path class="cls-16" d="M491.29,491.1c8.62-4.62,16.21-2.21,19.71,1.34a86.36,86.36,0,0,0-24.3,6.45,24.18,24.18,0,0,0,4.58-7.79Z" transform="translate(-219.08 -228.2)"/><path class="cls-16" d="M491.45,482a13.82,13.82,0,0,1-.16,9.08h0a24.18,24.18,0,0,1-4.58,7.79H426.83c.83-9.42,11.19-19.73,26-24.88C470.48,467.87,487.78,471.45,491.45,482Z" transform="translate(-219.08 -228.2)"/></g><g id="shadows-3" data-name="shadows"><rect class="cls-17" x="163" y="271.09" width="163.25" height="4.32"/><rect class="cls-18" x="169.25" y="280.86" width="151.75" height="4.17"/><path class="cls-5" d="M436.5,522.89c40.17,0,71.67,1.41,71.67-13.63,7.17-.21,31.92-.21,31.92-.21s.08,13.87-16.58,13.87Z" transform="translate(-219.08 -228.2)"/><path class="cls-18" d="M491.29,497.1v-7.71s16.67-2.62,16.17,4.75C502.71,493.78,491.29,497.1,491.29,497.1Z" transform="translate(-219.08 -228.2)"/><path class="cls-5" d="M430.46,490.5c-4.5,8.27,69.63,9.89,53.13-14.73,18.38,7.38,2.88,22.88,2.88,22.88l-58.5.25S428.21,490.74,430.46,490.5Z" transform="translate(-219.08 -228.2)"/><path class="cls-5" d="M500,495.64c5.13.88,20.88,1.25,19.88-2,5.75.38,5.88,5,5.88,5H494.46Z" transform="translate(-219.08 -228.2)"/><g class="cls-19"><path class="cls-8" d="M480.75,473.63c-10.33-.24-35.19,2.13-50.14,18.49,9.47-17.89,23.07-18.94,28.29-19.85S477.92,471.5,480.75,473.63Z" transform="translate(-219.08 -228.2)"/><ellipse class="cls-8" cx="465.9" cy="480.91" rx="13.47" ry="3.5" transform="translate(-306.72 -124.03) rotate(-11.67)"/><ellipse class="cls-8" cx="445.75" cy="486" rx="3.93" ry="1.68" transform="matrix(0.96, -0.29, 0.29, 0.96, -341.58, -76.83)"/></g></g><g id="lines-2" data-name="lines"><rect class="cls-9" x="163" y="270.69" width="164" height="10" rx="5" ry="5"/><path class="cls-9" d="M168,280.69H322a0,0,0,0,1,0,0v0a14,14,0,0,1-14,14H182a14,14,0,0,1-14-14v0A0,0,0,0,1,168,280.69Z"/><path class="cls-9" d="M426.83,498.89c.83-9.42,11.19-19.73,26-24.88,17.67-6.14,35-2.56,38.64,8,1.85,5.31-.1,11.37-4.75,16.87,12.2-5.17,27.13-8.17,34.46-5.83,3.4,1.08,7.33,5.83,7.33,5.83" transform="translate(-219.08 -228.2)"/><path class="cls-9" d="M511,492.45c-3.51-3.55-11.1-6-19.72-1.34" transform="translate(-219.08 -228.2)"/><path class="cls-20" d="M451.82,480c1.64,1,2.87,2.3,4,.5s.55-2.5-.68-2.81S450.18,479,451.82,480Z" transform="translate(-219.08 -228.2)"/><path class="cls-20" d="M472,475.14c1.09,1.55,1.64,3.29,3.41,2.12s1.54-2,.55-2.83S470.89,473.59,472,475.14Z" transform="translate(-219.08 -228.2)"/><path class="cls-20" d="M465.42,485.48c1-1.67,4.33.21,2.83,1.85S463.58,488.56,465.42,485.48Z" transform="translate(-219.08 -228.2)"/><path class="cls-20" d="M487.73,477.92a4.33,4.33,0,0,0,3.55,6A10,10,0,0,0,487.73,477.92Z" transform="translate(-219.08 -228.2)"/><path class="cls-20" d="M479.83,487.33c2-1.5,5.54,2.41,2.92,2.81S477.92,488.77,479.83,487.33Z" transform="translate(-219.08 -228.2)"/><path class="cls-20" d="M436.5,484.31c1.88,1,5.58,4.24,3.33-2.38C438.25,483.14,436.5,484.31,436.5,484.31Z" transform="translate(-219.08 -228.2)"/><path class="cls-20" d="M451.41,490.2c-1.58-1.67-3.16-.64-2.91,1S454.16,493.09,451.41,490.2Z" transform="translate(-219.08 -228.2)"/><path class="cls-20" d="M442.33,497.73c-1.75-1.58-4.5-4.75-4.92-.5C441.08,498.39,442.33,497.73,442.33,497.73Z" transform="translate(-219.08 -228.2)"/><path class="cls-20" d="M471.8,493.06c-1.78-1.13-4.3,0-2.3,2S474.3,494.65,471.8,493.06Z" transform="translate(-219.08 -228.2)"/></g></g></svg>