<svg xmlns="http://www.w3.org/2000/svg" viewBox="0 0 322 271.02"><defs><style>.cls-1{fill:#f7f7f7;}.cls-2{fill:#f5ffed;}.cls-3{fill:#eaeaea;}.cls-4{fill:#ffefed;}.cls-5{opacity:0.06;}.cls-14,.cls-30,.cls-33,.cls-34,.cls-36,.cls-37,.cls-6,.cls-8,.cls-9{fill:#fff;}.cls-6{opacity:0.6;}.cls-7{opacity:0.07;}.cls-8{opacity:0.35;}.cls-9{opacity:0.7;}.cls-10,.cls-11,.cls-12,.cls-13,.cls-15,.cls-28,.cls-38,.cls-41,.cls-42{fill:none;}.cls-10,.cls-11,.cls-12,.cls-13,.cls-15{stroke:#cedaeb;}.cls-10,.cls-11,.cls-38,.cls-41{stroke-linecap:round;}.cls-10,.cls-11,.cls-15,.cls-28,.cls-38,.cls-41{stroke-linejoin:round;}.cls-10,.cls-12{stroke-width:3px;}.cls-11,.cls-13,.cls-15{stroke-width:1.5px;}.cls-12,.cls-13,.cls-42{stroke-miterlimit:10;}.cls-14{opacity:0.8;}.cls-16{fill:#ced2d6;}.cls-17{fill:#efcd72;}.cls-18{fill:#f5b242;}.cls-19{fill:#f55851;}.cls-20{fill:#e4cfd4;}.cls-21{fill:#b3b3b3;}.cls-22{fill:#e2f4f7;}.cls-23{fill:#ffe5ab;}.cls-24{fill:#e8e8e8;}.cls-25{fill:#e6e6e6;}.cls-26{fill:#ff9292;}.cls-27{fill:#00b6e3;}.cls-28,.cls-38,.cls-41,.cls-42{stroke:#3a4860;}.cls-28,.cls-41,.cls-42{stroke-width:2px;}.cls-29,.cls-30{opacity:0.25;}.cls-31,.cls-33{opacity:0.15;}.cls-32,.cls-36{opacity:0.2;}.cls-34{opacity:0.5;}.cls-35{opacity:0.1;}.cls-37{opacity:0.75;}.cls-38{stroke-width:4px;}.cls-39{opacity:0.12;}.cls-40{opacity:0.08;}</style></defs><title>coffee-machine-illy</title><g id="background"><g id="color"><path class="cls-1" d="M528.38,387.33v88a4,4,0,0,1-4,4h-60a4,4,0,0,1-4-4v-88a4,4,0,0,1,4-4h60A4,4,0,0,1,528.38,387.33Zm-19,38.71V408a6,6,0,0,0-6-6h-18a6,6,0,0,0-6,6v18a6,6,0,0,0,6,6h18A6,6,0,0,0,509.38,426Z" transform="translate(-250.67 -217.32)"/><path class="cls-2" d="M528.38,373v6.34a4,4,0,0,1-4,4h-60a4,4,0,0,1-4-4V373Z" transform="translate(-250.67 -217.32)"/><path class="cls-2" d="M528.38,373h-68a4,4,0,0,1,1.17-2.83l1.07-1.07a6,6,0,0,1,4.25-1.76h55a6,6,0,0,1,4.24,1.75l1.07,1.08A4,4,0,0,1,528.38,373Z" transform="translate(-250.67 -217.32)"/><path class="cls-3" d="M526.38,481.33v2a2,2,0,0,1-2,2h-60a2,2,0,0,1-2-2v-2a2,2,0,0,1,2-2h60A2,2,0,0,1,526.38,481.33Z" transform="translate(-250.67 -217.32)"/><path class="cls-4" d="M509.38,408v18a6,6,0,0,1-6,6h-18a6,6,0,0,1-6-6V408a6,6,0,0,1,6-6h18A6,6,0,0,1,509.38,408Z" transform="translate(-250.67 -217.32)"/><path class="cls-1" d="M360.38,387.33v88a4,4,0,0,1-4,4h-60a4,4,0,0,1-4-4v-88a4,4,0,0,1,4-4h60A4,4,0,0,1,360.38,387.33Zm-19,38.71V408a6,6,0,0,0-6-6h-18a6,6,0,0,0-6,6v18a6,6,0,0,0,6,6h18A6,6,0,0,0,341.38,426Z" transform="translate(-250.67 -217.32)"/><path class="cls-4" d="M360.38,373v6.34a4,4,0,0,1-4,4h-60a4,4,0,0,1-4-4V373Z" transform="translate(-250.67 -217.32)"/><path class="cls-4" d="M360.38,373h-68a4,4,0,0,1,1.17-2.83l1.07-1.07a6,6,0,0,1,4.25-1.76h55a6,6,0,0,1,4.24,1.75l1.07,1.08A4,4,0,0,1,360.38,373Z" transform="translate(-250.67 -217.32)"/><rect class="cls-3" x="43.71" y="262.01" width="64" height="6" rx="2" ry="2"/><path class="cls-4" d="M341.38,408v18a6,6,0,0,1-6,6h-18a6,6,0,0,1-6-6V408a6,6,0,0,1,6-6h18A6,6,0,0,1,341.38,408Z" transform="translate(-250.67 -217.32)"/></g><g id="shadows"><rect class="cls-5" x="44.4" y="262.52" width="62.85" height="2.5"/><rect class="cls-6" x="42.42" y="166.43" width="2.91" height="95.56"/><rect class="cls-7" x="41.71" y="166.93" width="66.95" height="2.5"/><path class="cls-8" d="M340.85,405.57a6,6,0,0,0-2.47-.53h-20a4,4,0,0,0-4,4v20a6,6,0,0,0,.53,2.47,6,6,0,0,1-3.53-5.47V408a6,6,0,0,1,6-6h18A6,6,0,0,1,340.85,405.57Z" transform="translate(-250.67 -217.32)"/><path class="cls-9" d="M358.5,370.5l-3.87-2.69H296l-2.9,2.9v10.88l2.9.59V374.5a4,4,0,0,1,4-4h5.59v6a3,3,0,0,0,3,3h3.88a3,3,0,0,0,3-3v-6Z" transform="translate(-250.67 -217.32)"/><path class="cls-6" d="M332.5,432v15a6,6,0,0,1-6,6H311.38a6,6,0,0,1-6-6V403a6,6,0,0,1,6-6H326.5a6,6,0,0,1,5.92,5h-15a6,6,0,0,0-6,6v18a6,6,0,0,0,6,6Z" transform="translate(-250.67 -217.32)"/><rect class="cls-5" x="212.4" y="262.52" width="62.85" height="2.5"/><rect class="cls-6" x="210.42" y="166.43" width="2.91" height="95.56"/><rect class="cls-7" x="209.71" y="166.93" width="66.95" height="2.5"/><path class="cls-8" d="M508.85,405.57a6,6,0,0,0-2.47-.53h-20a4,4,0,0,0-4,4v20a6,6,0,0,0,.53,2.47,6,6,0,0,1-3.53-5.47V408a6,6,0,0,1,6-6h18A6,6,0,0,1,508.85,405.57Z" transform="translate(-250.67 -217.32)"/><path class="cls-9" d="M526.5,370.5l-3.87-2.69H464l-2.9,2.9v10.88l2.9.59V374.5a4,4,0,0,1,4-4h5.59v6a3,3,0,0,0,3,3h3.88a3,3,0,0,0,3-3v-6Z" transform="translate(-250.67 -217.32)"/><path class="cls-6" d="M500.5,432v15a6,6,0,0,1-6,6H479.38a6,6,0,0,1-6-6V403a6,6,0,0,1,6-6H494.5a6,6,0,0,1,5.92,5h-15a6,6,0,0,0-6,6v18a6,6,0,0,0,6,6Z" transform="translate(-250.67 -217.32)"/></g><g id="lines"><rect class="cls-10" x="211.71" y="262.02" width="64" height="6" rx="2" ry="2"/><rect class="cls-10" x="209.71" y="166.02" width="68" height="96" rx="4" ry="4"/><path class="cls-10" d="M521.89,367.33h-55a6,6,0,0,0-4.24,1.76l-1.07,1.07a4,4,0,0,0-1.17,2.83v6.34a4,4,0,0,0,4,4h60a4,4,0,0,0,4-4V373a4,4,0,0,0-1.18-2.83l-1.08-1.08A6,6,0,0,0,521.89,367.33Z" transform="translate(-250.67 -217.32)"/><line class="cls-11" x1="277.71" y1="155.67" x2="209.71" y2="155.67"/><rect class="cls-11" x="228.71" y="184.73" width="30" height="30" rx="6" ry="6"/><line class="cls-12" x1="232.51" y1="226.72" x2="226.71" y2="226.72"/><line class="cls-12" x1="260.71" y1="226.72" x2="234.93" y2="226.72"/><line class="cls-13" x1="264.71" y1="247.73" x2="222.71" y2="247.73"/><line class="cls-13" x1="266.71" y1="251.73" x2="220.71" y2="251.73"/><line class="cls-13" x1="248.39" y1="256.72" x2="228.71" y2="256.72"/><line class="cls-13" x1="258.71" y1="256.72" x2="252.18" y2="256.72"/><line class="cls-13" x1="258.71" y1="173.72" x2="228.71" y2="173.72"/><line class="cls-12" x1="234.71" y1="194.73" x2="252.71" y2="194.73"/><line class="cls-12" x1="236.71" y1="204.73" x2="250.71" y2="204.73"/><line class="cls-12" x1="232.71" y1="199.73" x2="254.71" y2="199.73"/><rect class="cls-10" x="43.71" y="262.02" width="64" height="6" rx="2" ry="2"/><rect class="cls-10" x="41.71" y="166.02" width="68" height="96" rx="4" ry="4"/><path class="cls-10" d="M353.89,367.33h-55a6,6,0,0,0-4.24,1.76l-1.07,1.07a4,4,0,0,0-1.17,2.83v6.34a4,4,0,0,0,4,4h60a4,4,0,0,0,4-4V373a4,4,0,0,0-1.18-2.83l-1.08-1.08A6,6,0,0,0,353.89,367.33Z" transform="translate(-250.67 -217.32)"/><line class="cls-11" x1="109.71" y1="155.67" x2="41.71" y2="155.67"/><rect class="cls-11" x="60.71" y="184.73" width="30" height="30" rx="6" ry="6"/><line class="cls-12" x1="64.51" y1="226.72" x2="58.71" y2="226.72"/><line class="cls-12" x1="92.71" y1="226.72" x2="66.93" y2="226.72"/><line class="cls-13" x1="96.71" y1="247.73" x2="54.71" y2="247.73"/><line class="cls-13" x1="98.71" y1="251.73" x2="52.71" y2="251.73"/><line class="cls-13" x1="80.39" y1="256.72" x2="60.71" y2="256.72"/><line class="cls-13" x1="90.71" y1="256.72" x2="84.18" y2="256.72"/><line class="cls-13" x1="90.71" y1="173.72" x2="60.71" y2="173.72"/><line class="cls-12" x1="66.71" y1="194.73" x2="84.71" y2="194.73"/><line class="cls-12" x1="68.71" y1="204.73" x2="82.71" y2="204.73"/><line class="cls-12" x1="64.71" y1="199.73" x2="86.71" y2="199.73"/><line class="cls-11" x1="46.33" y1="184.43" x2="46.33" y2="202.06"/><line class="cls-11" x1="46.33" y1="205.35" x2="46.33" y2="207.35"/><line class="cls-11" x1="231.83" y1="166.01" x2="231.83" y2="170.68"/><line class="cls-11" x1="234.83" y1="166.01" x2="234.83" y2="169.68"/><line class="cls-11" x1="272.71" y1="262.02" x2="272.71" y2="255.51"/><line class="cls-11" x1="272.71" y1="252.72" x2="272.71" y2="250.85"/><line class="cls-11" x1="73.86" y1="184.73" x2="76.73" y2="187.6"/><line class="cls-11" x1="70.33" y1="184.73" x2="73.21" y2="187.6"/><line class="cls-11" x1="277.71" y1="161.01" x2="273.5" y2="161.01"/></g></g><g id="capsule"><g id="color-2" data-name="color"><path class="cls-2" d="M549,481.33v2a2,2,0,0,1-2,2H519a2,2,0,0,1-2-2v-2a2,2,0,0,1,2-2h28A2,2,0,0,1,549,481.33Z" transform="translate(-250.67 -217.32)"/><polygon class="cls-1" points="295.93 258.01 296.33 262.01 268.33 262.01 268.73 258.01 276.33 258.01 295.93 258.01"/><polygon class="cls-1" points="294.73 246.01 295.93 258.01 276.33 258.01 276.33 255.01 288.33 255.01 288.33 249.01 288.33 246.01 294.73 246.01"/><polygon class="cls-1" points="294.33 242.01 294.73 246.01 288.33 246.01 269.93 246.01 270.33 242.01 294.33 242.01"/><path class="cls-2" d="M543.26,454.68l1.74,4.65H521l1.74-4.65a4,4,0,0,1,2.74-2.47,32.57,32.57,0,0,1,15,0A4,4,0,0,1,543.26,454.68Z" transform="translate(-250.67 -217.32)"/><rect class="cls-4" x="276.33" y="249.01" width="12" height="6"/><polygon class="cls-1" points="288.33 246.01 288.33 249.01 276.33 249.01 276.33 255.01 276.33 258.01 268.73 258.01 269.93 246.01 288.33 246.01"/><path class="cls-4" d="M304,481.33v2a2,2,0,0,1-2,2H274a2,2,0,0,1-2-2v-2a2,2,0,0,1,2-2h28A2,2,0,0,1,304,481.33Z" transform="translate(-250.67 -217.32)"/><polygon class="cls-1" points="50.93 258.01 51.33 262.01 23.33 262.01 23.73 258.01 31.33 258.01 50.93 258.01"/><polygon class="cls-1" points="49.73 246.01 50.93 258.01 31.33 258.01 31.33 255.01 43.33 255.01 43.33 249.01 43.33 246.01 49.73 246.01"/><polygon class="cls-1" points="49.33 242.01 49.73 246.01 43.33 246.01 24.93 246.01 25.33 242.01 49.33 242.01"/><path class="cls-4" d="M298.26,454.68l1.74,4.65H276l1.74-4.65a4,4,0,0,1,2.74-2.47,32.57,32.57,0,0,1,15,0A4,4,0,0,1,298.26,454.68Z" transform="translate(-250.67 -217.32)"/><rect class="cls-4" x="31.33" y="249.01" width="12" height="6"/><polygon class="cls-1" points="43.33 246.01 43.33 249.01 31.33 249.01 31.33 255.01 31.33 258.01 23.73 258.01 24.93 246.01 43.33 246.01"/></g><g id="shadows-2" data-name="shadows"><rect class="cls-14" x="267.03" y="262.52" width="30.47" height="2.5"/><polygon class="cls-6" points="268.33 262.02 270.33 242.02 273.33 242.02 271.33 262.02 268.33 262.02"/><rect class="cls-7" x="269.38" y="242.98" width="24.21" height="1.42"/><rect class="cls-6" x="274" y="247.23" width="6.48" height="9.63" rx="2" ry="2"/><path class="cls-6" d="M540.52,452.21a32.57,32.57,0,0,0-15,0,4,4,0,0,0-2.74,2.47L521,459.33h3l.74-2.65a4,4,0,0,1,2.74-2.47l.3-.07v.92a2,2,0,0,0,2,2h1.53a2,2,0,0,0,2-2v-1.68c.55,0,1.11,0,1.69,0a29.91,29.91,0,0,1,7.52.88,3.38,3.38,0,0,1,.63.23A4,4,0,0,0,540.52,452.21Z" transform="translate(-250.67 -217.32)"/><rect class="cls-14" x="22.03" y="262.52" width="30.47" height="2.5"/><polygon class="cls-6" points="23.33 262.02 25.33 242.02 28.33 242.02 26.33 262.02 23.33 262.02"/><rect class="cls-7" x="24.38" y="242.98" width="24.21" height="1.42"/><rect class="cls-6" x="29" y="247.23" width="6.48" height="9.63" rx="2" ry="2"/><path class="cls-6" d="M295.52,452.21a32.57,32.57,0,0,0-15,0,4,4,0,0,0-2.74,2.47L276,459.33h3l.74-2.65a4,4,0,0,1,2.74-2.47l.3-.07v.92a2,2,0,0,0,2,2h1.53a2,2,0,0,0,2-2v-1.68c.55,0,1.11,0,1.69,0a29.91,29.91,0,0,1,7.52.88,3.38,3.38,0,0,1,.63.23A4,4,0,0,0,295.52,452.21Z" transform="translate(-250.67 -217.32)"/></g><g id="lines-2" data-name="lines"><rect class="cls-10" x="266.33" y="262.02" width="32" height="6" rx="2" ry="2"/><polygon class="cls-10" points="294.33 242.02 270.33 242.02 268.33 262.02 296.33 262.02 294.33 242.02"/><path class="cls-10" d="M543.26,454.68a4,4,0,0,0-2.74-2.47,32.59,32.59,0,0,0-15,0,4,4,0,0,0-2.74,2.47L521,459.33h24Z" transform="translate(-250.67 -217.32)"/><line class="cls-11" x1="295.93" y1="258.01" x2="268.73" y2="258.01"/><line class="cls-11" x1="294.73" y1="246.01" x2="269.93" y2="246.01"/><rect class="cls-11" x="276.33" y="249.02" width="12" height="6" rx="1" ry="1"/><rect class="cls-10" x="21.33" y="262.02" width="32" height="6" rx="2" ry="2"/><polygon class="cls-10" points="49.33 242.02 25.33 242.02 23.33 262.02 51.33 262.02 49.33 242.02"/><path class="cls-10" d="M298.26,454.68a4,4,0,0,0-2.74-2.47,32.59,32.59,0,0,0-15,0,4,4,0,0,0-2.74,2.47L276,459.33h24Z" transform="translate(-250.67 -217.32)"/><line class="cls-11" x1="50.93" y1="258.01" x2="23.73" y2="258.01"/><line class="cls-11" x1="49.73" y1="246.01" x2="24.93" y2="246.01"/><rect class="cls-11" x="31.33" y="249.02" width="12" height="6" rx="1" ry="1"/><line class="cls-11" x1="41.9" y1="234.31" x2="41.9" y2="237.62"/><line class="cls-11" x1="39.52" y1="234.01" x2="39.52" y2="237.06"/><line class="cls-11" x1="275.58" y1="242.01" x2="275.58" y2="238.56"/><line class="cls-11" x1="278.02" y1="242.01" x2="278.02" y2="239.06"/><line class="cls-11" x1="293.58" y1="262.02" x2="293.58" y2="265.02"/><line class="cls-11" x1="23.98" y1="255.51" x2="26.98" y2="255.51"/><line class="cls-15" x1="285.33" y1="252.02" x2="279.33" y2="252.02"/><line class="cls-15" x1="40.33" y1="252.02" x2="34.33" y2="252.02"/></g></g><g id="main"><g id="color-3" data-name="color"><path class="cls-16" d="M508.07,269.06c16.33,6.8,25.78,14.46,25.13,21.83-.83,9.45-18.09,16.48-44.67,19.92a64,64,0,0,0,11.53-8.73c14.14-2.71,22.72-6.83,23.18-12.06.36-4.09-4.27-8.36-12.71-12.48h0A26,26,0,0,0,508.07,269.06Z" transform="translate(-250.67 -217.32)"/><path class="cls-17" d="M524,390.46l.17,3.17-5.66,5.66-3.17-.16a4,4,0,0,1-3-1.64l10-10.05A4,4,0,0,1,524,390.46Z" transform="translate(-250.67 -217.32)"/><path class="cls-16" d="M510.53,277.54c8.44,4.12,13.07,8.39,12.71,12.48-.46,5.23-9,9.35-23.18,12.06,6.79-6.58,10.61-14,10.61-21.91A25.59,25.59,0,0,0,510.53,277.54Z" transform="translate(-250.67 -217.32)"/><path class="cls-18" d="M522.35,387.44l-10,10.05a4.1,4.1,0,0,1-.6-1.18l-1.69-5.5,5.65-5.66,5.51,1.7A3.79,3.79,0,0,1,522.35,387.44Z" transform="translate(-250.67 -217.32)"/><polygon class="cls-16" points="265 167.83 259.35 173.49 247.1 161.24 252.76 155.59 265 167.83"/><path class="cls-19" d="M510.53,277.54a25.59,25.59,0,0,1,.14,2.63c0,7.88-3.82,15.33-10.61,21.91a64,64,0,0,1-11.53,8.73,98.37,98.37,0,0,1-13.63,6.79,141,141,0,0,1-21,6.61c-4.27,1-8.71,1.86-13.29,2.56-3.33.51-6.74.94-10.21,1.28-6.39.62-13,.95-19.77.95s-13.38-.33-19.77-.95c-3.47-.34-6.88-.77-10.21-1.28A169.15,169.15,0,0,1,362.74,323q-5.28-1.41-10.15-3.12c-25.38-8.85-41.92-23.36-41.92-39.75,0-13.61,11.4-25.92,29.79-34.77a118.54,118.54,0,0,1,15.2-6l14.15-3.79q6-1.32,12.31-2.23h0a202.7,202.7,0,0,1,57.09,0c4.23.61,8.35,1.36,12.32,2.24l14.15,3.79a118.54,118.54,0,0,1,15.2,6c13.23,6.36,22.84,14.52,27.19,23.66a26,26,0,0,1,2.45,8.48Zm-28.88,2.63c0-19-31.78-34.4-71-34.4s-71,15.4-71,34.4,31.78,34.39,71,34.39S481.65,299.16,481.65,280.17Z" transform="translate(-250.67 -217.32)"/><path class="cls-19" d="M509.67,467.33v3a8,8,0,0,1-8,8h-182a8,8,0,0,1-8-8v-3a20.91,20.91,0,0,1,6.31-15H503.36A21,21,0,0,1,509.67,467.33Z" transform="translate(-250.67 -217.32)"/><rect class="cls-16" x="490.6" y="361.25" width="8" height="16.97" transform="translate(-367.32 240.17) rotate(-44.95)"/><path class="cls-20" d="M503.36,452.33H318a20.91,20.91,0,0,1,14.69-6h156A20.93,20.93,0,0,1,503.36,452.33Z" transform="translate(-250.67 -217.32)"/><path class="cls-21" d="M469.67,478.33h24a8,8,0,0,1-8,8h-8A8,8,0,0,1,469.67,478.33Z" transform="translate(-250.67 -217.32)"/><polygon class="cls-16" points="240.76 143.59 235.1 149.24 222.58 136.72 228.23 131.06 240.76 143.59"/><path class="cls-16" d="M475.4,225.42a12,12,0,0,1,5.48,20,118.54,118.54,0,0,0-15.2-6l5.58,1.5a4,4,0,0,0,4.9-2.83,4,4,0,0,0-2.83-4.9l-21.25-5.69a3.79,3.79,0,0,0-1.05-.14,4,4,0,0,0-1,7.86l1.52.41c-4-.88-8.09-1.63-12.32-2.24a12.14,12.14,0,0,1,.24-5.14,12,12,0,0,1,14.7-8.48Z" transform="translate(-250.67 -217.32)"/><path class="cls-20" d="M479.61,347.67l-.71.71L473.25,354l-.71.7-5.22-5.21h0l-4.41-4.4a11.84,11.84,0,0,1-1.52-1.87l-3.51-5.3h0l-.5-.75h11.74Z" transform="translate(-250.67 -217.32)"/><path class="cls-19" d="M474.9,317.6l-1.61,17.77a2,2,0,0,1-2,1.82H457a2,2,0,0,1-2-1.82l-1-11.16A141,141,0,0,0,474.9,317.6Z" transform="translate(-250.67 -217.32)"/><path class="cls-20" d="M467.32,349.52h0l-4.65,96.64h-10L457.88,338l3.51,5.3a11.84,11.84,0,0,0,1.52,1.87Z" transform="translate(-250.67 -217.32)"/><path class="cls-22" d="M456.67,266.17a14,14,0,1,1-14,14A14,14,0,0,1,456.67,266.17Zm8.5,14a8.5,8.5,0,1,0-8.5,8.5A8.5,8.5,0,0,0,465.17,280.17Z" transform="translate(-250.67 -217.32)"/><path class="cls-19" d="M465.68,239.38l-14.15-3.79C456.47,236.67,461.2,237.94,465.68,239.38Z" transform="translate(-250.67 -217.32)"/><path class="cls-23" d="M456.67,271.67a8.5,8.5,0,1,1-8.5,8.5A8.5,8.5,0,0,1,456.67,271.67Z" transform="translate(-250.67 -217.32)"/><path class="cls-24" d="M410.67,245.77c39.2,0,71,15.4,71,34.4s-31.78,34.39-71,34.39-71-15.4-71-34.39S371.46,245.77,410.67,245.77Zm60,34.4a14,14,0,1,0-14,14A14,14,0,0,0,470.67,280.17Zm-36,0a24,24,0,1,0-24,24A24,24,0,0,0,434.67,280.17Zm-56,0a14,14,0,1,0-14,14A14,14,0,0,0,378.67,280.17Z" transform="translate(-250.67 -217.32)"/><path class="cls-19" d="M426.31,377.25l1.78-13.75h3.18a4,4,0,0,0,4-3.36l5.43-33.37c4.58-.7,9-1.56,13.29-2.56l1,11.16a2,2,0,0,0,2,1.82h.43l.5.75h0l-5.21,108.22H425.08a50.86,50.86,0,0,0,7.11-15.09,8.9,8.9,0,0,0,5.54,1.92,9,9,0,0,0,0-18,8.7,8.7,0,0,0-2.51.36c.29-3,.44-6.05.44-9.19H386.23c0,16.55,4.18,31.19,10.58,40H368.67l-3-63.22,4-.7h4a4,4,0,0,0,4-4h8v1h9.65a4,4,0,0,0,3.87,3h2.48l1,5L403,389a4,4,0,0,0,3.93,3.22h7.44a4,4,0,0,0,3.92-3.22l.35-1.74,1-5h2.48a4,4,0,0,0,4-3.49Z" transform="translate(-250.67 -217.32)"/><path class="cls-19" d="M437.73,415a9,9,0,0,1,0,18,8.9,8.9,0,0,1-5.54-1.92,80.7,80.7,0,0,0,3-15.72A8.7,8.7,0,0,1,437.73,415Z" transform="translate(-250.67 -217.32)"/><path class="cls-19" d="M440.65,326.77l-5.43,33.37a4,4,0,0,1-4,3.36H428a6.51,6.51,0,0,0-2.54-4.83l5-30.62C433.91,327.71,437.32,327.28,440.65,326.77Z" transform="translate(-250.67 -217.32)"/><path class="cls-25" d="M386.23,406.17h49.43c0,3.14-.15,6.21-.44,9.19a80.7,80.7,0,0,1-3,15.72,50.86,50.86,0,0,1-7.11,15.09H396.81C390.41,437.36,386.23,422.72,386.23,406.17ZM418.67,429V417h-16v12Z" transform="translate(-250.67 -217.32)"/><path class="cls-20" d="M430.44,328.05l-5,30.62c-3-2.65-8.53-4.42-14.79-4.42s-11.75,1.77-14.79,4.42l-5-30.62c6.39.62,13,.95,19.77.95S424.05,328.67,430.44,328.05Z" transform="translate(-250.67 -217.32)"/><path class="cls-22" d="M410.67,256.17a24,24,0,1,1-24,24A24,24,0,0,1,410.67,256.17Zm18,24a18,18,0,1,0-18,18A18,18,0,0,0,428.67,280.17Z" transform="translate(-250.67 -217.32)"/><path class="cls-16" d="M428.09,363.5l-1.78,13.75H395l-1-8-.74-5.75h.09a6.51,6.51,0,0,1,2.54-4.83c3-2.65,8.53-4.42,14.79-4.42s11.75,1.77,14.79,4.42A6.51,6.51,0,0,1,428,363.5Z" transform="translate(-250.67 -217.32)"/><path class="cls-16" d="M426.31,377.25l-.19,1.51a4,4,0,0,1-4,3.49h-23a4,4,0,0,1-3.87-3,2.66,2.66,0,0,1-.1-.49l-.19-1.51Z" transform="translate(-250.67 -217.32)"/><path class="cls-23" d="M412.67,286.17a3,3,0,0,0,3-3v-7h-12v7a3,3,0,0,0,3,3Zm-2-24a18,18,0,1,1-18,18A18,18,0,0,1,410.67,262.17Z" transform="translate(-250.67 -217.32)"/><polygon class="cls-18" points="169 164.93 167.99 169.97 167.8 169.93 152.19 169.93 152 169.97 151 164.93 169 164.93"/><rect class="cls-26" x="152" y="199.68" width="16" height="12"/><path class="cls-17" d="M418.66,387.29l-.35,1.74a4,4,0,0,1-3.92,3.22H407A4,4,0,0,1,403,389l-.35-1.74.19,0h15.61Z" transform="translate(-250.67 -217.32)"/><path class="cls-23" d="M415.67,280.17v3a3,3,0,0,1-3,3h-6a3,3,0,0,1-3-3v-3h12Z" transform="translate(-250.67 -217.32)"/><polygon class="cls-23" points="165 58.85 165 62.85 164.69 62.85 153 62.85 153 58.85 165 58.85"/><path class="cls-19" d="M390.9,328.05l5,30.62a6.51,6.51,0,0,0-2.54,4.83h-3.27a4,4,0,0,1-3.95-3.36l-5.43-33.37C384,327.28,387.43,327.71,390.9,328.05Z" transform="translate(-250.67 -217.32)"/><path class="cls-16" d="M395,377.25l.19,1.51a2.66,2.66,0,0,0,.1.49h-9.65v-10H394Z" transform="translate(-250.67 -217.32)"/><path class="cls-19" d="M393.25,363.5l.74,5.75h-8.32v1h-8a4,4,0,0,0-4-4h-4l-4.89-.84-2-42.37a169.15,169.15,0,0,0,17.95,3.73l5.43,33.37a4,4,0,0,0,3.95,3.36Z" transform="translate(-250.67 -217.32)"/><rect class="cls-16" x="127" y="152.93" width="8" height="8"/><path class="cls-16" d="M382.29,231.33a12.24,12.24,0,0,1-.17,2h0q-6.35.91-12.31,2.23l1.52-.41a4,4,0,0,0,3-3.86,4.13,4.13,0,0,0-.14-1,4,4,0,0,0-4.9-2.82L348,233.15a4,4,0,0,0-3,3.86,4.13,4.13,0,0,0,.14,1,4,4,0,0,0,4.9,2.83l5.58-1.5a118.54,118.54,0,0,0-15.2,6A12,12,0,0,1,337,237a12,12,0,0,1,8.9-11.59l21.25-5.69a12,12,0,0,1,15.1,11.6Z" transform="translate(-250.67 -217.32)"/><path class="cls-27" d="M377.67,370.25v8a4,4,0,0,1-4,4h-4v-16h4A4,4,0,0,1,377.67,370.25Z" transform="translate(-250.67 -217.32)"/><path class="cls-22" d="M364.67,266.17a14,14,0,1,1-14,14A14,14,0,0,1,364.67,266.17Zm8.5,14a8.5,8.5,0,1,0-8.5,8.5A8.5,8.5,0,0,0,373.17,280.17Z" transform="translate(-250.67 -217.32)"/><path class="cls-23" d="M364.67,278.36h-3a3.5,3.5,0,1,0,6.5,1.81,3.45,3.45,0,0,0-.5-1.8h-3Zm0-6.69a8.5,8.5,0,1,1-8.5,8.5A8.5,8.5,0,0,1,364.67,271.67Z" transform="translate(-250.67 -217.32)"/><path class="cls-19" d="M369.81,235.59l-14.15,3.79C360.14,237.94,364.87,236.67,369.81,235.59Z" transform="translate(-250.67 -217.32)"/><polygon class="cls-27" points="119 148.93 119 164.93 114.96 165.63 105.04 167.34 90.73 169.8 90.73 144.06 104.03 146.35 114.11 148.09 119 148.93"/><polygon class="cls-20" points="114.96 165.63 118 228.85 108 228.85 105.04 167.34 114.96 165.63"/><path class="cls-23" d="M364.67,278.37h3a3.45,3.45,0,0,1,.5,1.8,3.5,3.5,0,1,1-6.5-1.81h3Z" transform="translate(-250.67 -217.32)"/><path class="cls-20" d="M362.74,323l2,42.37-10.08-1.74-2.11-43.75Q357.45,321.63,362.74,323Z" transform="translate(-250.67 -217.32)"/><path class="cls-21" d="M327.67,478.33h24a8,8,0,0,1-8,8h-8A8,8,0,0,1,327.67,478.33Z" transform="translate(-250.67 -217.32)"/><polygon class="cls-17" points="90.73 144.06 90.73 169.8 84.73 170.84 84.73 143.02 90.73 144.06"/><polygon class="cls-18" points="84.73 143.02 84.73 170.84 78.73 171.87 78.73 141.99 84.73 143.02"/><path class="cls-27" d="M329.4,359.31v29.88a15.16,15.16,0,1,1-2.61-30.1A15.5,15.5,0,0,1,329.4,359.31Z" transform="translate(-250.67 -217.32)"/><path class="cls-28" d="M412.67,286.17h-6a3,3,0,0,1-3-3v-7h12v7A3,3,0,0,1,412.67,286.17Z" transform="translate(-250.67 -217.32)"/></g><g id="shadows-3" data-name="shadows"><rect class="cls-29" x="77" y="261.02" width="24.04" height="4"/><rect class="cls-29" x="219" y="261.02" width="24.04" height="4"/><path class="cls-30" d="M505.36,456.62l-2-4.24H317.92a21.06,21.06,0,0,0-6.25,14.95v3a8,8,0,0,0,4.27,7.08,7.91,7.91,0,0,1-.27-2.08v-3a20.94,20.94,0,0,1,5-13.65,6,6,0,0,1,4.54-2.06h34.92v7.55a8.17,8.17,0,0,0,8.17,8.17h13.83a8.17,8.17,0,0,0,8.17-8.17v-7.55Z" transform="translate(-250.67 -217.32)"/><rect class="cls-29" x="152.75" y="166.1" width="15.05" height="1.75"/><rect class="cls-29" x="153.67" y="170.31" width="13.71" height="1.54"/><polygon class="cls-6" points="116.48 204.43 115.94 193.08 111.5 197.52 111.38 195.07 115.77 190.68 115.77 186 111.16 190.6 109.96 165.7 105 166.49 108 228.85 113 228.85 112.04 208.88 116.48 204.43"/><path class="cls-8" d="M368.81,366h-4L362.74,323h4l0,1c-1.18-.28-2.34-.57-3.49-.87l.39,7.11c1.13.29,2.28.58,3.44.85Z" transform="translate(-250.67 -217.32)"/><polygon class="cls-8" points="122 228.85 118 228.85 114.96 165.63 118.96 165.63 122 228.85"/><path class="cls-8" d="M390.66,363.46l-4.17-1.08-4.8-29.46c1.35.2,2.71.39,4.09.56Z" transform="translate(-250.67 -217.32)"/><polygon class="cls-6" points="113.08 127.81 112.07 118.34 107.89 122.53 106.98 103.68 101.98 103.68 103.98 145.34 109.02 146.14 108.37 132.52 113.08 127.81"/><polygon class="cls-6" points="211.82 128.65 210.96 146.66 205.44 152.17 205.6 157.33 210.69 152.24 210.57 154.82 204.88 160.5 205.21 171.08 210.01 166.27 207.89 210.45 202.79 215.54 203.31 221.35 207.57 217.09 207 228.85 212 228.85 216.65 132.21 211.82 128.65"/><path class="cls-29" d="M453.89,324.22l.53,5.88-.18,0-.74-5.83Z" transform="translate(-250.67 -217.32)"/><path class="cls-29" d="M379.72,326.62l1,.15,1,6.15-.63-.09Z" transform="translate(-250.67 -217.32)"/><path class="cls-29" d="M362.12,322.87l.51,7.13q-5.87-1.57-11.23-3.5l-.59-7.21C354.4,320.6,358.18,321.8,362.12,322.87Z" transform="translate(-250.67 -217.32)"/><rect class="cls-31" x="127.75" y="153.43" width="5.71" height="7.5"/><path class="cls-32" d="M394.54,364.12c2.52-3.44,8.79-5.87,16.13-5.87,7.66,0,14.16,2.65,16.44,6.33l.57-2.87c-1.56-4.25-8.58-7.46-17-7.46-7.72,0-14.26,2.69-16.5,6.42Z" transform="translate(-250.67 -217.32)"/><polygon class="cls-33" points="171.56 160.56 175.56 160.56 175.08 164.29 171 164.93 171.56 160.56"/><path class="cls-34" d="M408,365.35v3.84a3.5,3.5,0,0,1-3.5,3.5h-1.63a3.5,3.5,0,0,1-3.47-3.05L398.9,366a4,4,0,0,1,3.23-4.45l1.26-.21A4,4,0,0,1,408,365.35Z" transform="translate(-250.67 -217.32)"/><path class="cls-34" d="M398.49,356.27l-2.61,2.4-5-30.62h3l0,.26-2.26-.2.79,6.08,2.46.21Z" transform="translate(-250.67 -217.32)"/><path class="cls-35" d="M430.49,328l-5,30.62a20.22,20.22,0,0,0-7.82-4.82c4.49-2.58,7.28-12.68,8.68-19.45l2.48-.21.73-6.07c-.71.07-1.41.13-2.12.18l0-.25Z" transform="translate(-250.67 -217.32)"/><path class="cls-34" d="M401.38,354.25l-1.47-9.58a3.9,3.9,0,0,1,3.26-4.44l2.35-.36a3.9,3.9,0,0,1,4.48,3.85v9.66Z" transform="translate(-250.67 -217.32)"/><polygon class="cls-8" points="259.89 173.49 260.19 173.31 260.19 174.64 259.89 173.49"/><polygon class="cls-34" points="261.3 170.58 258.66 174.17 246.97 162.48 247.55 161.93 248.92 163.59 251.61 160.9 261.3 170.58"/><polygon class="cls-34" points="237.12 146.42 234.18 149.69 211.64 127.15 209.9 124.01 214.7 124.01 222.73 132.04 222.88 132.19 224.99 134.3 222.6 136.7 225.62 139.89 228.1 137.41 237.12 146.42"/><polygon class="cls-32" points="260.19 174.64 260.71 176.63 260.19 177.15 260.19 174.64"/><path class="cls-36" d="M457.8,323.24c-1.28.35-2.59.67-3.91,1l-.06-.69,3.89-1.17Z" transform="translate(-250.67 -217.32)"/><path class="cls-8" d="M458.9,335.37h-4l-.48-5.27c1.32-.32,3.73-.93,5-1.27Z" transform="translate(-250.67 -217.32)"/><polygon class="cls-34" points="249.05 158.36 245.97 161.48 234.87 150.38 235.51 149.73 237.05 151.59 239.66 148.98 241 150.32 241 147.64 242.05 146.59 243.91 147.99 243.91 153.23 245 154.32 245 149.8 246.91 150.99 246.91 156.22 249.05 158.36"/><path class="cls-37" d="M502.42,451.46a20.9,20.9,0,0,0-13.75-5.13h-156a20.93,20.93,0,0,0-14.09,5.42h10.31a21,21,0,0,1,9.09-2.06h47.83l-2.56,2.56L403,452l2.35-2.35h4.79l-2.56,2.56,7.48-.14,2.42-2.42H494A20.85,20.85,0,0,1,502.42,451.46Z" transform="translate(-250.67 -217.32)"/><rect class="cls-35" x="120.4" y="150.01" width="5.44" height="14.05"/><line class="cls-38" x1="171.49" y1="164.93" x2="148.52" y2="164.93"/><line class="cls-38" x1="123" y1="164.93" x2="119" y2="164.93"/><polygon class="cls-29" points="104.03 167.51 114.45 165.71 114.45 170.4 104.03 172.2 104.03 167.51"/><path class="cls-29" d="M400.54,384.25H386.67a1,1,0,0,1-1-1v-.15H381a5.75,5.75,0,0,1-5.13,3.15h-2.23l-7.36,1.27v-4.69l3.36-.58h4a4,4,0,0,0,4-4h8v1h9.65Z" transform="translate(-250.67 -217.32)"/><path class="cls-29" d="M453.7,331.26l-1-6.76q-2.49.57-5.06,1.06l.2-1.22-5,2,0,.1-.34.06-1.68,7.27.85-.15-4.24,26.08a4,4,0,0,1-3.95,3.36h-3.18l-2,15.26a4,4,0,0,1-4,3.49h-2.48l-1.36,6.78a4,4,0,0,1-3.92,3.22h-8.39v1.29a2.71,2.71,0,0,0,2.71,2.71h8.16a5.86,5.86,0,0,0,5.74-4.7l1.06-5.3h.86a5.85,5.85,0,0,0,5.8-5.1L434.28,367h.44a7.21,7.21,0,0,0,7.11-6l4.6-28.23C448.9,332.31,451.33,331.81,453.7,331.26Z" transform="translate(-250.67 -217.32)"/><path class="cls-37" d="M374.4,272.4a12.46,12.46,0,0,0-17.5,17.5,12.45,12.45,0,1,1,17.5-17.5Z" transform="translate(-250.67 -217.32)"/><path class="cls-37" d="M371.11,275.72a7.72,7.72,0,0,0-4.44-1.39,7.84,7.84,0,0,0-7.84,7.84,7.72,7.72,0,0,0,1.39,4.44,7.83,7.83,0,1,1,10.89-10.89Z" transform="translate(-250.67 -217.32)"/><path class="cls-29" d="M382.25,282.17a15.57,15.57,0,0,1-27.55,10,15.57,15.57,0,0,0,21.93-21.93A15.5,15.5,0,0,1,382.25,282.17Z" transform="translate(-250.67 -217.32)"/><path class="cls-29" d="M375.25,281.54a9.21,9.21,0,0,1-16.36,5.81,9.22,9.22,0,0,0,13-13A9.2,9.2,0,0,1,375.25,281.54Z" transform="translate(-250.67 -217.32)"/><path class="cls-37" d="M466.4,272.4a12.46,12.46,0,0,0-17.5,17.5,12.45,12.45,0,1,1,17.5-17.5Z" transform="translate(-250.67 -217.32)"/><path class="cls-37" d="M463.11,275.72a7.72,7.72,0,0,0-4.44-1.39,7.84,7.84,0,0,0-7.84,7.84,7.72,7.72,0,0,0,1.39,4.44,7.83,7.83,0,1,1,10.89-10.89Z" transform="translate(-250.67 -217.32)"/><path class="cls-29" d="M474.25,282.17a15.57,15.57,0,0,1-27.55,10,15.57,15.57,0,0,0,21.93-21.93A15.5,15.5,0,0,1,474.25,282.17Z" transform="translate(-250.67 -217.32)"/><path class="cls-29" d="M467.25,281.54a9.21,9.21,0,0,1-16.36,5.81,9.22,9.22,0,0,0,13-13A9.2,9.2,0,0,1,467.25,281.54Z" transform="translate(-250.67 -217.32)"/><path class="cls-29" d="M439,283.17a25.33,25.33,0,0,1-44.68,16.34A25.32,25.32,0,0,0,430,263.82,25.25,25.25,0,0,1,439,283.17Z" transform="translate(-250.67 -217.32)"/><path class="cls-37" d="M428.19,265.65a22.76,22.76,0,0,0-32,32,22.75,22.75,0,1,1,32-32Z" transform="translate(-250.67 -217.32)"/><path class="cls-37" d="M424.46,269.37A17.51,17.51,0,0,0,399.87,294a17.52,17.52,0,1,1,24.59-24.59Z" transform="translate(-250.67 -217.32)"/><path class="cls-29" d="M430.79,281.46A18.83,18.83,0,0,1,398,294.1a18.82,18.82,0,0,0,26.59-26.59A18.77,18.77,0,0,1,430.79,281.46Z" transform="translate(-250.67 -217.32)"/><path class="cls-34" d="M403.62,306.43l-7.93,7.92L383.57,312l11.55-11.55A25.36,25.36,0,0,0,403.62,306.43Z" transform="translate(-250.67 -217.32)"/><path class="cls-37" d="M477.27,268.25c-7-9.14-21.73-16.45-40.37-20h0a139.09,139.09,0,0,0-26.21-2.43q-2,0-3.91.05l-3.48-.27-.43.43c-35.53,1.89-63.17,16.47-63.17,34.19,0,6.56,3.8,12.7,10.39,17.92a19.51,19.51,0,0,1-4.39-11.92c0-15.43,21-28.48,49.82-32.84l-17.82,17.82a15.58,15.58,0,1,1-22,22l-5,5,25.14,11.11L391.07,294a24,24,0,0,1,33.45-33.44l8-8c3.12.34,6.17.79,9.12,1.32l-10.68,10.67a25.36,25.36,0,0,1,6,8.5l16.4-16.41C463.09,259.57,471.32,263.54,477.27,268.25Z" transform="translate(-250.67 -217.32)"/><path class="cls-37" d="M367.19,219.73l-21.25,5.69a12,12,0,0,0-8.49,14.7,11.86,11.86,0,0,0,3,5.28l.75-.22a11.77,11.77,0,0,1-.76-2.06,12,12,0,0,1,8.49-14.7l3.25-.87v3.87l5.38-.7v-4.61l1.69-.35v4.41l2.73-.73v-4.51l8.22-2.2a12,12,0,0,1,10,1.74A12,12,0,0,0,367.19,219.73Z" transform="translate(-250.67 -217.32)"/><path class="cls-37" d="M475.4,225.42l-21.25-5.69a12,12,0,0,0-14.7,8.48,12.14,12.14,0,0,0-.24,5.14l1,.28a10.18,10.18,0,0,1,.28-1.42,12,12,0,0,1,14.7-8.48l4.91,1.32-2.69,2.69,4.5,1.35,2.8-2.8,1.17.31-2.49,2.49,2.73.35,2.19-2.19,8.12,2.18a12,12,0,0,1,7.86,6.73A12,12,0,0,0,475.4,225.42Z" transform="translate(-250.67 -217.32)"/><path class="cls-8" d="M503.34,261.8c-17.27-14.63-49.62-24.47-86.67-24.47-55.23,0-100,21.87-100,48.84,0,6.5,2.6,12.7,7.33,18.37-8.48-7.17-13.33-15.49-13.33-24.37,0-27,44.77-48.84,100-48.84C452.59,231.33,488.49,243.93,503.34,261.8Z" transform="translate(-250.67 -217.32)"/><path class="cls-39" d="M510.67,280.17c0,27-44.77,48.83-100,48.83-41.92,0-77.82-12.6-92.67-30.46C335.27,313.16,367.62,323,404.67,323c55.23,0,100-21.86,100-48.83,0-6.5-2.6-12.7-7.33-18.37C505.82,263,510.67,271.29,510.67,280.17Z" transform="translate(-250.67 -217.32)"/><ellipse class="cls-8" cx="335.21" cy="264.55" rx="6.17" ry="3.46" transform="translate(-341.08 12.63) rotate(-33.63)"/><path class="cls-37" d="M534.7,291.21a10.52,10.52,0,0,1-3.72,6.73,8.63,8.63,0,0,0,.72-2.73c.5-5.7-5-11.57-15.12-17.08a25,25,0,0,0-1-5.33L509.27,270l.3-.64C525.9,276.18,535.35,283.84,534.7,291.21Z" transform="translate(-250.67 -217.32)"/><path class="cls-29" d="M487.08,283.2c0,19.51-32.65,35.33-72.92,35.33-30.11,0-56-8.85-67.08-21.46,12.39,11,36.41,18.38,64,18.38,40.27,0,71.25-15.77,71.25-35.28,0-4.91-.4-9.64-4.14-13.89C483.86,271.3,487.08,277.06,487.08,283.2Z" transform="translate(-250.67 -217.32)"/><path class="cls-8" d="M418.67,417v2h-13a1,1,0,0,0-1,1v9h-2V417Z" transform="translate(-250.67 -217.32)"/><path class="cls-40" d="M392.46,435.5c3.64,6.67,36.69,3.66,41.87-17.17l-8.48,26.73H396Z" transform="translate(-250.67 -217.32)"/><path class="cls-6" d="M434.92,407.25H391.25c0-.36,0-.72,0-1.08h-5c0,16.55,4.18,31.19,10.58,40h5c-5.57-7.66-9.44-19.74-10.36-33.64a2,2,0,0,1,2-2.11h2.94l1.56,13.18a3.5,3.5,0,0,0,3.48,3.09h1.25V417h6.83v-6.58h25.42Z" transform="translate(-250.67 -217.32)"/><path class="cls-39" d="M439.73,477.41c23.34,0,28.76-14.75,28.76-25.08l33.93-.87,7.25,11.87v7l-3.55,5.75-4.45,2.25Z" transform="translate(-250.67 -217.32)"/><path class="cls-39" d="M388.18,425.15c1.82,8.51,4.83,15.79,8.63,21H368.67l-1.29-26.79C367.62,424.44,376.31,426.45,388.18,425.15Z" transform="translate(-250.67 -217.32)"/><path class="cls-39" d="M451.56,386.06l-2.89,60.11H425.08c6.4-8.81,10.58-23.45,10.58-40h-.8A59.09,59.09,0,0,0,451.56,386.06Z" transform="translate(-250.67 -217.32)"/><polygon class="cls-32" points="198 228.85 203.32 118.34 207.15 122 202 228.85 198 228.85"/><path class="cls-39" d="M394.9,372.88c8.87,5.88,32.6.37,32.33-12.17a97.84,97.84,0,0,1-1.93,19.9l-3.89.19-26.27-.19Z" transform="translate(-250.67 -217.32)"/><path class="cls-29" d="M410.67,329c6.46,0,12.79-.3,18.91-.88l-.73,6.07c-5.89.53-12,.81-18.18.81s-12.3-.28-18.2-.81l-.79-6.08C397.83,328.7,404.18,329,410.67,329Z" transform="translate(-250.67 -217.32)"/><path class="cls-29" d="M441.33,326.66c-3.3.52-6.67,1-10.11,1.3l-.72,3.6h-1.33l-3.66,27.11,1.72,2,5.91-27c2.46-.28,4.89-.58,7.28-.94Z" transform="translate(-250.67 -217.32)"/><path class="cls-29" d="M390.22,328l1.11,6.12q-5.25-.49-10.27-1.26l-1.34-6.21C383.14,327.16,386.65,327.62,390.22,328Z" transform="translate(-250.67 -217.32)"/><path class="cls-29" d="M474.84,317.62l-.44,6.18a139.94,139.94,0,0,1-20.16,6.34l-.74-5.83A140,140,0,0,0,474.84,317.62Z" transform="translate(-250.67 -217.32)"/><rect class="cls-29" x="207.67" y="119.87" width="14.08" height="4.15"/><polygon class="cls-29" points="222.6 136.71 228.24 131.07 231.34 134.17 225.63 139.89 222.6 136.71"/><polygon class="cls-29" points="235.1 149.23 240.74 143.59 242.77 145.88 237.05 151.59 235.1 149.23"/><polygon class="cls-29" points="246.97 161.23 252.61 155.59 254.64 157.88 248.92 163.59 246.97 161.23"/><polygon class="cls-32" points="267.58 169.77 260.19 177.16 260.19 172.26 264.1 168.36 267.58 169.77"/><path class="cls-6" d="M513.56,391.77l.81,3.4s1.13,1,4.79,1.29c1.21-.75,1.21-1.46,1.21-1.46l-5.67-4.37Z" transform="translate(-250.67 -217.32)"/><ellipse class="cls-34" cx="325.53" cy="369.25" rx="8.01" ry="6.25" transform="translate(-377.42 -42.38) rotate(-25.35)"/><path class="cls-35" d="M317.33,381.38c11.43,2.88,50.4,1.56,43.47-16.65,4,1.23,8.87,2.78,8.87,2.78v14.75l-43.87,8-10.33-6Z" transform="translate(-250.67 -217.32)"/><path class="cls-29" d="M381.3,333.86a170.15,170.15,0,0,1-17.61-3.57l-.39-7.11A170.08,170.08,0,0,0,380,326.67Z" transform="translate(-250.67 -217.32)"/><path class="cls-29" d="M516.67,280.17c0,10.71-7,20.6-19,28.65l-6.55.36c12.29-8.11,19.56-18.14,19.56-29a25.39,25.39,0,0,0-2.36-10.58l7.23,3.21A24.91,24.91,0,0,1,516.67,280.17Z" transform="translate(-250.67 -217.32)"/></g><g id="lines-3" data-name="lines"><path class="cls-38" d="M82,229H238a21,21,0,0,1,21,21v3a8,8,0,0,1-8,8H69a8,8,0,0,1-8-8v-3A21,21,0,0,1,82,229Z"/><path class="cls-38" d="M219,261h24a0,0,0,0,1,0,0v0a8,8,0,0,1-8,8h-8a8,8,0,0,1-8-8v0A0,0,0,0,1,219,261Z"/><path class="cls-38" d="M77,261h24a0,0,0,0,1,0,0v0a8,8,0,0,1-8,8H85a8,8,0,0,1-8-8v0A0,0,0,0,1,77,261Z"/><line class="cls-38" x1="15" y1="269.02" x2="313" y2="269.02"/><line class="cls-38" x1="319.98" y1="269.02" x2="320" y2="269.02"/><line class="cls-38" x1="7.33" y1="269.02" x2="2" y2="269.02"/><polyline class="cls-38" points="216.65 132.2 216.65 132.21 212 228.85 174.41 228.85 146.14 228.85 108 228.85 105.04 167.34"/><line class="cls-38" x1="104.03" y1="146.35" x2="101.92" y2="102.6"/><ellipse class="cls-38" cx="160" cy="62.85" rx="100" ry="48.83"/><path class="cls-38" d="M340.46,245.4A12,12,0,0,1,337,237a12,12,0,0,1,8.9-11.59l21.25-5.69a12,12,0,0,1,15.1,11.6,12.36,12.36,0,0,1-.17,2" transform="translate(-250.67 -217.32)"/><rect class="cls-38" x="344.67" y="230.17" width="30" height="8" rx="4" ry="4" transform="translate(-299.02 -116.25) rotate(-15)"/><path class="cls-38" d="M439.21,233.35a12.14,12.14,0,0,1,.24-5.14,12,12,0,0,1,14.7-8.48l21.25,5.69a12,12,0,0,1,5.48,20" transform="translate(-250.67 -217.32)"/><rect class="cls-38" x="446.67" y="230.17" width="30" height="8" rx="4" ry="4" transform="translate(-174.33 -328.83) rotate(15)"/><ellipse class="cls-38" cx="160" cy="62.85" rx="70.99" ry="34.39"/><circle class="cls-38" cx="160" cy="62.85" r="24"/><circle class="cls-38" cx="206" cy="62.85" r="14"/><circle class="cls-38" cx="114" cy="62.85" r="14"/><circle class="cls-41" cx="114" cy="62.85" r="8.5"/><circle class="cls-41" cx="206" cy="62.85" r="8.5"/><circle class="cls-41" cx="160" cy="62.85" r="18"/><path class="cls-38" d="M508.07,269.06c16.33,6.8,25.78,14.46,25.13,21.83-.83,9.45-18.09,16.48-44.67,19.92" transform="translate(-250.67 -217.32)"/><path class="cls-41" d="M510.52,277.54h0c8.44,4.12,13.07,8.39,12.71,12.48-.46,5.23-9,9.35-23.18,12.06" transform="translate(-250.67 -217.32)"/><path class="cls-38" d="M428,363.5h3.27a4,4,0,0,0,4-3.36l5.43-33.37" transform="translate(-250.67 -217.32)"/><path class="cls-38" d="M380.69,326.77l5.43,33.37a4,4,0,0,0,3.95,3.36h3.27" transform="translate(-250.67 -217.32)"/><path class="cls-38" d="M428.09,363.5l-2,15.26a4,4,0,0,1-4,3.49h-23a4,4,0,0,1-4-3.49l-2-15.26" transform="translate(-250.67 -217.32)"/><polyline class="cls-38" points="143.32 151.93 135 151.93 135 161.93 144.65 161.93"/><rect class="cls-38" x="127" y="152.93" width="8" height="8"/><path class="cls-38" d="M119,148.93h4a4,4,0,0,1,4,4v8a4,4,0,0,1-4,4h-4a0,0,0,0,1,0,0v-16A0,0,0,0,1,119,148.93Z"/><path class="cls-38" d="M329.4,359.31l40.26,6.94v16l-40.26,6.94a15.16,15.16,0,0,1-17.74-14.94h0A15.16,15.16,0,0,1,329.4,359.31Z" transform="translate(-250.67 -217.32)"/><path class="cls-38" d="M393.34,363.5c0-5.11,7.76-9.25,17.33-9.25S428,358.39,428,363.5" transform="translate(-250.67 -217.32)"/><path class="cls-38" d="M414.39,392.25h-7.44A4,4,0,0,1,403,389l-1.36-6.78h18L418.31,389A4,4,0,0,1,414.39,392.25Z" transform="translate(-250.67 -217.32)"/><path class="cls-41" d="M390.67,306.27a74.63,74.63,0,0,0,40,0" transform="translate(-250.67 -217.32)"/><path class="cls-41" d="M390.67,254.06a74.49,74.49,0,0,1,40,0" transform="translate(-250.67 -217.32)"/><path class="cls-38" d="M474.9,317.6l-1.61,17.77a2,2,0,0,1-2,1.82H456.95a2,2,0,0,1-2-1.82l-1-11.16" transform="translate(-250.67 -217.32)"/><rect class="cls-38" x="490.46" y="343.59" width="8" height="52" transform="translate(-367.11 241.11) rotate(-45.05)"/><path class="cls-38" d="M524.16,393.63l-5.66,5.66-3.17-.16a4,4,0,0,1-3.62-2.82l-1.7-5.5,5.66-5.66,5.5,1.7a4,4,0,0,1,2.82,3.62Z" transform="translate(-250.67 -217.32)"/><path class="cls-38" d="M457.38,337.19l4,6.06a12,12,0,0,0,1.53,1.87l4.41,4.4h0l5.22,5.21.71-.7,5.65-5.66.71-.71-10.49-10.48" transform="translate(-250.67 -217.32)"/><line class="cls-41" x1="240.76" y1="143.59" x2="235.1" y2="149.24"/><line class="cls-41" x1="252.76" y1="155.59" x2="247.1" y2="161.24"/><line class="cls-41" x1="271.68" y1="170.12" x2="261.64" y2="180.17"/><line class="cls-41" x1="114.11" y1="148.09" x2="112.07" y2="105.72"/><line class="cls-41" x1="118" y1="228.85" x2="114.96" y2="165.63"/><polyline class="cls-41" points="202 228.85 207.21 120.63 207.21 120.62"/><path class="cls-41" d="M367.67,278.37a3.45,3.45,0,0,1,.5,1.8,3.5,3.5,0,1,1-6.5-1.81" transform="translate(-250.67 -217.32)"/><line class="cls-41" x1="114" y1="62.85" x2="114" y2="58.85"/><line class="cls-42" x1="202.5" y1="64.85" x2="209.5" y2="64.85"/><line class="cls-42" x1="201.5" y1="60.85" x2="210.5" y2="60.85"/><line class="cls-41" x1="145.21" y1="141.35" x2="140.23" y2="110.73"/><line class="cls-41" x1="179.77" y1="110.73" x2="174.79" y2="141.35"/><line class="cls-41" x1="175.77" y1="159.93" x2="144.23" y2="159.93"/><line class="cls-41" x1="167.8" y1="169.93" x2="152.19" y2="169.93"/><line class="cls-41" x1="78.74" y1="141.99" x2="78.74" y2="171.88"/><line class="cls-41" x1="84.73" y1="170.84" x2="84.73" y2="143.02"/><line class="cls-41" x1="90.73" y1="169.8" x2="90.73" y2="144.06"/><line class="cls-42" x1="189.33" y1="153.56" x2="200.83" y2="153.56"/><line class="cls-42" x1="193.33" y1="157.56" x2="200.83" y2="157.56"/><line class="cls-41" x1="252.69" y1="235.01" x2="67.31" y2="235.01"/><line class="cls-41" x1="209.5" y1="105.29" x2="209.5" y2="109.68"/><path class="cls-41" d="M342.44,253.52A94.3,94.3,0,0,1,363.77,244" transform="translate(-250.67 -217.32)"/><path class="cls-41" d="M372.72,241.56q-2.14.51-4.2,1.08" transform="translate(-250.67 -217.32)"/><line class="cls-41" x1="119" y1="153.43" x2="114.07" y2="153.43"/><line class="cls-41" x1="70.08" y1="164.85" x2="63.23" y2="164.85"/><line class="cls-41" x1="189.06" y1="261.01" x2="185.51" y2="255.51"/><line class="cls-41" x1="194.06" y1="261.01" x2="190.51" y2="255.51"/><line class="cls-41" x1="61" y1="250.02" x2="65.91" y2="250.02"/><line class="cls-41" x1="61" y1="254.02" x2="66.91" y2="254.02"/><line class="cls-41" x1="165.99" y1="137.51" x2="165.99" y2="133.2"/><path class="cls-28" d="M153,58.85h12a0,0,0,0,1,0,0v7a3,3,0,0,1-3,3h-6a3,3,0,0,1-3-3v-7A0,0,0,0,1,153,58.85Z"/><path class="cls-28" d="M415.67,277.71c2.77,0,4,1.55,4,3.46s-1.24,3.45-4,3.45h-.35" transform="translate(-250.67 -217.32)"/><path class="cls-28" d="M417.17,268.91a13,13,0,0,0-13,0" transform="translate(-250.67 -217.32)"/><path class="cls-28" d="M399.41,273.67a13,13,0,0,0,0,13" transform="translate(-250.67 -217.32)"/><path class="cls-28" d="M421.93,286.67a13,13,0,0,0,0-13" transform="translate(-250.67 -217.32)"/><path class="cls-38" d="M435.66,406.17c0,16.55-4.18,31.19-10.58,40H396.81c-6.4-8.81-10.58-23.45-10.58-40Z" transform="translate(-250.67 -217.32)"/><line class="cls-38" x1="184.99" y1="188.85" x2="135.56" y2="188.85"/><path class="cls-38" d="M435.22,415.36a8.7,8.7,0,0,1,2.51-.36,9,9,0,0,1,0,18,8.9,8.9,0,0,1-5.54-1.92" transform="translate(-250.67 -217.32)"/><rect class="cls-41" x="152" y="199.68" width="16" height="12" rx="2" ry="2"/><line class="cls-42" x1="155" y1="203.68" x2="165" y2="203.68"/><line class="cls-42" x1="157" y1="207.68" x2="163" y2="207.68"/><path class="cls-41" d="M393.07,424.62c-.51-2.44-.92-5-1.23-7.62" transform="translate(-250.67 -217.32)"/><path class="cls-41" d="M394.1,429c-.11-.41-.22-.82-.32-1.25" transform="translate(-250.67 -217.32)"/></g></g></svg>