<svg xmlns="http://www.w3.org/2000/svg" xmlns:xlink="http://www.w3.org/1999/xlink" viewBox="0 0 563.84 292"><defs><style>.cls-1,.cls-16,.cls-17,.cls-18{fill:none;stroke-linecap:round;stroke-linejoin:round;}.cls-1{stroke:#dff0f7;stroke-width:3px;}.cls-2{fill:#0095ba;}.cls-3{fill:#00b6e3;}.cls-4{fill:url(#linear-gradient);}.cls-5{fill:#99807a;}.cls-6{fill:#ebedf7;}.cls-7{fill:#b5b5b5;}.cls-8{fill:url(#linear-gradient-2);}.cls-9{opacity:0.1;}.cls-10,.cls-11,.cls-13,.cls-14,.cls-15,.cls-22,.cls-23{fill:#fff;}.cls-10{opacity:0.5;}.cls-11,.cls-12{opacity:0.25;}.cls-13{opacity:0.35;}.cls-14{opacity:0.27;}.cls-16{stroke:#4a5466;}.cls-16,.cls-17{stroke-width:4px;}.cls-17,.cls-18{stroke:#3a4c73;}.cls-18{stroke-width:2px;}.cls-19{opacity:0.75;fill:url(#linear-gradient-3);}.cls-20{fill:#ccefff;}.cls-21{opacity:0.06;}.cls-22{opacity:0.55;}.cls-23{opacity:0.6;}.cls-24{fill:#ffbf73;}.cls-25{opacity:0.08;}.cls-26{opacity:0.7;}.cls-27{opacity:0.15;}.cls-28{opacity:0.33;}</style><linearGradient id="linear-gradient" x1="236.69" y1="206.9" x2="237.36" y2="251.56" gradientUnits="userSpaceOnUse"><stop offset="0" stop-color="#915b45"/><stop offset="1" stop-color="#80503e"/></linearGradient><linearGradient id="linear-gradient-2" x1="363.17" y1="368.67" x2="363.17" y2="418.33" gradientUnits="userSpaceOnUse"><stop offset="0" stop-color="#b37055"/><stop offset="1" stop-color="#915b45"/></linearGradient><linearGradient id="linear-gradient-3" x1="231.33" y1="166.95" x2="242.83" y2="166.95" gradientUnits="userSpaceOnUse"><stop offset="0" stop-color="#6b4333"/><stop offset="1" stop-color="#59382b"/></linearGradient></defs><title>french-press</title><g id="back"><rect class="cls-1" x="502.44" y="135.97" width="54.93" height="109.87" rx="27.47" ry="27.47"/><polyline class="cls-1" points="529.91 265.7 529.91 190.91 538.3 182.51"/><line class="cls-1" x1="529.91" y1="207.88" x2="516.28" y2="194.25"/><line class="cls-1" x1="529.91" y1="225.47" x2="544.25" y2="211.12"/><line class="cls-1" x1="529.91" y1="190.91" x2="529.91" y2="172.24"/><path class="cls-1" d="M658.6,500.39a13.27,13.27,0,0,1,4.29-1.17,10.85,10.85,0,0,1,1.35-.07,13.37,13.37,0,0,1,13.37,13.37,12.68,12.68,0,0,1-.16,2.06" transform="translate(-126.17 -224.59)"/><path class="cls-1" d="M629,499.21a18.31,18.31,0,0,1,33.93,0" transform="translate(-126.17 -224.59)"/><path class="cls-1" d="M632.93,500.24a13.37,13.37,0,0,0-4-1,10.85,10.85,0,0,0-1.35-.07,13.36,13.36,0,0,0-13.36,13.37,12.68,12.68,0,0,0,.16,2.06" transform="translate(-126.17 -224.59)"/><rect class="cls-1" x="9.39" y="139.97" width="56.28" height="112.56" rx="28.14" ry="28.14"/><polyline class="cls-1" points="46.13 187.66 37.53 196.26 37.53 213.65 37.53 231.67 37.53 252.54 37.53 271.66"/><line class="cls-1" x1="37.53" y1="213.64" x2="23.57" y2="199.68"/><line class="cls-1" x1="37.53" y1="231.66" x2="52.23" y2="216.96"/><line class="cls-1" x1="37.53" y1="196.25" x2="37.53" y2="177.13"/><path class="cls-1" d="M182.49,514.57c0-.43.06-.88.06-1.32a17.09,17.09,0,0,0-31.1-9.79" transform="translate(-126.17 -224.59)"/><path class="cls-1" d="M153,506.86a10,10,0,1,0-18,7.71" transform="translate(-126.17 -224.59)"/><path class="cls-1" d="M218.14,491.77a17.89,17.89,0,0,1,30.79,1.39" transform="translate(-126.17 -224.59)"/><path class="cls-1" d="M221.56,494.58A13.52,13.52,0,1,0,203,514.07" transform="translate(-126.17 -224.59)"/><path class="cls-1" d="M244.73,496.8A22.68,22.68,0,0,1,284.27,512q0,1.06-.1,2.1" transform="translate(-126.17 -224.59)"/><path class="cls-1" d="M205.2,272.18a9.63,9.63,0,0,0-4.18-1.23l-.58,0a9.74,9.74,0,0,0-9.72,9.07" transform="translate(-126.17 -224.59)"/><path class="cls-1" d="M201,270.95a20.73,20.73,0,0,1,39.68-2" transform="translate(-126.17 -224.59)"/><path class="cls-1" d="M252.27,280a12,12,0,0,0-11.57-11.08h-.38a11.87,11.87,0,0,0-4.81,1" transform="translate(-126.17 -224.59)"/><line class="cls-1" x1="122.06" y1="55.41" x2="132.47" y2="55.41"/><line class="cls-1" x1="58.47" y1="55.41" x2="67.76" y2="55.41"/><path class="cls-1" d="M514.18,287.46a16.78,16.78,0,0,1,16.36-13.06,16.55,16.55,0,0,1,6.33,1.25,16.8,16.8,0,0,1,6.37,4.58" transform="translate(-126.17 -224.59)"/><path class="cls-1" d="M536.87,275.65c5.9-9.48,18.71-16,33.57-16,20.47,0,37.07,12.47,37.07,27.86" transform="translate(-126.17 -224.59)"/><line class="cls-1" x1="492.05" y1="62.87" x2="446.03" y2="62.87"/><line class="cls-1" x1="438.57" y1="62.87" x2="438.56" y2="62.87"/><line class="cls-1" x1="395.78" y1="62.87" x2="380.05" y2="62.87"/></g><g id="french_press" data-name="french press"><g id="color"><path class="cls-2" d="M486.17,322.59v138a16,16,0,0,1-16,16h-37v-16h29a8,8,0,0,0,8-8v-122a8,8,0,0,0-8-8h-29v-16h37A16,16,0,0,1,486.17,322.59Z" transform="translate(-126.17 -224.59)"/><path class="cls-3" d="M443.17,511.59v3h-160v-3a5,5,0,0,1,5-5h150A5,5,0,0,1,443.17,511.59Z" transform="translate(-126.17 -224.59)"/><path class="cls-3" d="M438.33,291.59v10a5,5,0,0,1-5,5h-140a5,5,0,0,1-5-5v-10a5,5,0,0,1,5-5h140A5,5,0,0,1,438.33,291.59Z" transform="translate(-126.17 -224.59)"/><path class="cls-2" d="M438.17,481.59v25h-150v-25a5,5,0,0,1,5-5h140A5,5,0,0,1,438.17,481.59Z" transform="translate(-126.17 -224.59)"/><polygon class="cls-4" points="307 236 307 252 167 252 167 204 167.16 204 307 204 307 236"/><polygon class="cls-5" points="307 194 307 204 167.16 204 167 204 167 194 167.16 194 233.16 194 241.16 194 307 194"/><rect class="cls-6" x="241.16" y="102" width="65.84" height="40"/><polygon class="cls-2" points="307 98 307 102 241.16 102 233.16 102 167.16 102 167 102 167 82.08 167.16 82 307 82 307 98"/><path class="cls-3" d="M363.33,226.59a15,15,0,1,1-15,15A15,15,0,0,1,363.33,226.59Z" transform="translate(-126.17 -224.59)"/><polygon class="cls-5" points="241.16 192 241.16 194 233.16 194 233.16 192 233.16 142 241.16 142 241.16 192"/><rect class="cls-7" x="233.16" y="102" width="8" height="40"/><path class="cls-7" d="M367.33,256.05v30.54h-8V256.05a15.08,15.08,0,0,0,8,0Z" transform="translate(-126.17 -224.59)"/><path class="cls-8" d="M433.17,366.59v52H367.33v-52Zm-73.84,0H293.17v52h66.16v-52Z" transform="translate(-126.17 -224.59)"/><polygon class="cls-6" points="167 117.18 167 102 167.16 102 233.16 102 233.16 142 167.16 142 167 142 167 117.18"/><polygon class="cls-6" points="167 102 167 117.18 148.83 91.16 167 82.08 167 102"/></g><g id="shadows"><path class="cls-9" d="M470.48,419.33c0,9.67,15.68,4.08,15.68-23.29v66c0,17-16.08,15.52-20.46,15.52H433.33V459.39l28.84,1.2C473.33,460.59,470.48,419.33,470.48,419.33Z" transform="translate(-126.17 -224.59)"/><rect class="cls-10" x="158" y="282" width="158.17" height="4"/><rect class="cls-11" x="162" y="253.41" width="148.79" height="3.59"/><rect class="cls-12" x="307.17" y="234.8" width="11.92" height="18.13"/><rect class="cls-12" x="307.17" y="80.8" width="11.92" height="18.13"/><path class="cls-9" d="M293.33,428.59c0,42.92,140,22.41,140-45.93v94.85H293.17Z" transform="translate(-126.17 -224.59)"/><rect class="cls-12" x="167" y="82.08" width="139.48" height="5"/><path class="cls-10" d="M338.36,291.33H439.29v-4.74H290v4.74h18.36c0,.09,0,.17,0,.26v10a5,5,0,0,0,5,5h30a5,5,0,0,1-5-5v-10C338.33,291.5,338.35,291.42,338.36,291.33Z" transform="translate(-126.17 -224.59)"/><rect class="cls-13" x="187.16" y="87" width="30" height="15"/><path class="cls-14" d="M187.16,103.74h30a0,0,0,0,1,0,0v57a15,15,0,0,1-15,15h0a15,15,0,0,1-15-15v-57A0,0,0,0,1,187.16,103.74Z"/><polygon class="cls-15" points="167 89.57 155.83 92.91 165.12 114.48 148.83 91.16 167 82.08 167 89.57"/><path class="cls-13" d="M486.17,322.59a16,16,0,0,0-16-16l-24.83.74-.08,4.26h24.92a16,16,0,0,1,16,16v-5" transform="translate(-126.17 -224.59)"/><path class="cls-13" d="M469.75,324.42a8,8,0,0,1,5.42,7.58V453.59a12,12,0,0,1-12,12H445.25l.08-5h16.84a8,8,0,0,0,8-8V327a8.16,8.16,0,0,0-.42-2.58" transform="translate(-126.17 -224.59)"/><path class="cls-11" d="M434,366.59H298.42v-40H294v88h4.42V373.67a2,2,0,0,1,2-2H434Z" transform="translate(-126.17 -224.59)"/><g class="cls-12"><path d="M337.67,452.63a21.94,21.94,0,0,0-17-8v44a21.94,21.94,0,0,0,17-8Z" transform="translate(-126.17 -224.59)"/><path d="M337.67,428.59h3a2,2,0,0,0,2-2v-4a2,2,0,0,0-2-2h-15a2,2,0,0,1-2,2h-3v10a33.76,33.76,0,0,1,17,4.56Z" transform="translate(-126.17 -224.59)"/><path d="M340.15,494.45a33.78,33.78,0,0,1-19.48,6.14v2a12,12,0,0,1-12,12h27.39a12,12,0,0,0,1.61-6v-2a34,34,0,0,0,2.41-67.91h0a34.05,34.05,0,0,1,13.26,18.47,22,22,0,0,1-13.19,37.3Z" transform="translate(-126.17 -224.59)"/></g><rect class="cls-11" x="198.67" y="193.87" width="108.33" height="4.13"/><rect class="cls-11" x="233.17" y="103.74" width="3.57" height="90.83"/><rect class="cls-12" x="233.17" y="102" width="8" height="8"/><path class="cls-9" d="M382.25,326.59c20.25,0,27.25-10.66,27.25-20h23.15v20Z" transform="translate(-126.17 -224.59)"/><path class="cls-9" d="M414.75,477.55c0,12.7-11.75,23-50.75,23H301.67v6.24h138L437,481.59l-3.63-4.08Z" transform="translate(-126.17 -224.59)"/><path class="cls-12" d="M367.33,257v5a15.09,15.09,0,0,1-8,0v-5a15.09,15.09,0,0,0,8,0Z" transform="translate(-126.17 -224.59)"/><ellipse class="cls-10" cx="360.38" cy="236.4" rx="5.56" ry="3.59" transform="translate(-187.78 99.47) rotate(-45)"/><circle class="cls-10" cx="229.21" cy="18.56" r="1.56"/><path class="cls-9" d="M359.33,278.33c0,5.5,8.84-2,8.84-9.17v17.43h-7.79Z" transform="translate(-126.17 -224.59)"/></g><g id="lines"><line class="cls-16" x1="307" y1="194" x2="167.16" y2="194"/><line class="cls-16" x1="307" y1="204" x2="167.16" y2="204"/><line class="cls-16" x1="233.16" y1="194" x2="233.16" y2="142"/><line class="cls-16" x1="241.16" y1="194" x2="241.16" y2="142"/><path class="cls-17" d="M443.17,514.59v-3a5,5,0,0,0-5-5h-150a5,5,0,0,0-5,5v3Z" transform="translate(-126.17 -224.59)"/><path class="cls-17" d="M288.17,506.59v-25a5,5,0,0,1,5-5h140a5,5,0,0,1,5,5v25" transform="translate(-126.17 -224.59)"/><line class="cls-17" x1="307" y1="82" x2="307" y2="252"/><line class="cls-17" x1="167" y1="252" x2="167" y2="82"/><rect class="cls-17" x="162.17" y="62" width="150" height="20" rx="5" ry="5"/><path class="cls-17" d="M433.17,476.59h37a16,16,0,0,0,16-16v-138a16,16,0,0,0-16-16h-37" transform="translate(-126.17 -224.59)"/><path class="cls-17" d="M433.17,322.59h29a8,8,0,0,1,8,8v122a8,8,0,0,1-8,8h-29" transform="translate(-126.17 -224.59)"/><line class="cls-17" x1="233.17" y1="142" x2="233.17" y2="102"/><line class="cls-17" x1="241.17" y1="142" x2="241.17" y2="102"/><line class="cls-17" x1="233.16" y1="62" x2="233.16" y2="31.46"/><line class="cls-17" x1="241.16" y1="62" x2="241.16" y2="31.46"/><circle class="cls-17" cx="237.17" cy="17" r="15"/><line class="cls-17" x1="307" y1="102" x2="167.16" y2="102"/><polyline class="cls-17" points="167 117.18 148.83 91.16 167 82.08 167.16 82"/><line class="cls-17" x1="157" y1="290" x2="19" y2="290"/><line class="cls-17" x1="12" y1="290" x2="2" y2="290"/><line class="cls-17" x1="554.31" y1="290" x2="335" y2="290"/><line class="cls-17" x1="327" y1="290" x2="317" y2="290"/><line class="cls-17" x1="561.84" y1="290" x2="561.83" y2="290"/><line class="cls-18" x1="306" y1="282" x2="306" y2="273.07"/><line class="cls-18" x1="301" y1="282" x2="301" y2="277.07"/><line class="cls-18" x1="307" y1="246.6" x2="314.58" y2="246.6"/><line class="cls-18" x1="312.16" y1="76.91" x2="300.8" y2="76.91"/><line class="cls-18" x1="296.39" y1="76.91" x2="292" y2="76.91"/><line class="cls-18" x1="300.8" y1="82" x2="300.8" y2="89.57"/><line class="cls-18" x1="202.83" y1="95.91" x2="215.58" y2="95.91"/><line class="cls-18" x1="211.58" y1="91.41" x2="225.83" y2="91.41"/><line class="cls-18" x1="269.93" y1="257.78" x2="268.37" y2="262.08"/><polyline class="cls-18" points="264.68 272.22 266.11 268.3 267.32 264.95"/><polyline class="cls-18" points="267.51 277.86 270.46 269.75 271.69 266.38 273.12 262.46"/><line class="cls-18" x1="266.11" y1="268.3" x2="262.18" y2="266.86"/><polyline class="cls-18" points="275.18 271.47 270.46 269.75 269.48 269.39"/><line class="cls-18" x1="274.54" y1="259.11" x2="274.54" y2="259.11"/></g><g id="kostil"><rect class="cls-19" x="231.33" y="142" width="11.5" height="49.91"/></g></g><g id="mug"><g id="color-2" data-name="color"><path class="cls-20" d="M320.67,432.59a34,34,0,0,1,0,68v-12a22,22,0,0,0,0-44Z" transform="translate(-126.17 -224.59)"/><path class="cls-20" d="M325.67,416.59v4a2,2,0,0,1-2,2h-116a2,2,0,0,1-2-2v-4a2,2,0,0,1,2-2h116A2,2,0,0,1,325.67,416.59Z" transform="translate(-126.17 -224.59)"/><path class="cls-20" d="M320.67,500.59v2a12,12,0,0,1-12,12h-86a12,12,0,0,1-12-12v-80h110v78Z" transform="translate(-126.17 -224.59)"/></g><g id="shadows-2" data-name="shadows"><rect class="cls-12" x="84.5" y="198" width="109.5" height="6.74"/><path class="cls-21" d="M210.67,487c0,20.43,109.5,4.75,109.5-52.25v67.84c0,9.41-3.11,13.16-18.89,13.16s-76-1.16-76-1.16C213.5,514.59,210.67,507.25,210.67,487Z" transform="translate(-126.17 -224.59)"/><path class="cls-22" d="M95.5,204.74h26.25a0,0,0,0,1,0,0v38.54a13.13,13.13,0,0,1-13.13,13.13h0A13.13,13.13,0,0,1,95.5,243.28V204.74A0,0,0,0,1,95.5,204.74Z"/><polygon class="cls-22" points="198.67 190 117.75 190 117.75 189.74 91.5 189.74 91.5 190 79.5 190 79.5 193.87 91.5 193.87 91.5 198 117.75 198 117.75 193.87 198.67 193.87 198.67 190"/><rect class="cls-12" x="195.34" y="208.02" width="6.66" height="11.98"/><rect class="cls-12" x="195.34" y="264.02" width="6.66" height="11.98"/><path class="cls-23" d="M328.17,438.6c16.24,3.65,25.17,20.19,25.17,28,0-21.93-17.17-31.84-25.17-31.84Z" transform="translate(-126.17 -224.59)"/><path class="cls-21" d="M337.67,481c-4.65,3.8,15.09,4.43,16.59-18.29-2.51,33.79-23.42,39.88-34.09,39.88a79.61,79.61,0,0,1,1.34-14C328.17,488.61,337.67,481,337.67,481Z" transform="translate(-126.17 -224.59)"/></g><g id="lines-2" data-name="lines"><rect class="cls-17" x="79.5" y="190" width="120" height="8" rx="2" ry="2"/><path class="cls-17" d="M84.5,198h110a0,0,0,0,1,0,0v80a12,12,0,0,1-12,12h-86a12,12,0,0,1-12-12V198A0,0,0,0,1,84.5,198Z"/><path class="cls-17" d="M320.67,444.59a22,22,0,0,1,0,44" transform="translate(-126.17 -224.59)"/><path class="cls-17" d="M320.67,432.59a34,34,0,0,1,0,68" transform="translate(-126.17 -224.59)"/><path class="cls-18" d="M313.67,498.59v4a11.74,11.74,0,0,1-.78,4.24,12,12,0,0,1-11.22,7.76" transform="translate(-126.17 -224.59)"/><line class="cls-18" x1="187.5" y1="269.41" x2="187.5" y2="264"/><path class="cls-18" d="M306.89,506.83a12,12,0,0,1-11.22,7.76" transform="translate(-126.17 -224.59)"/><line class="cls-18" x1="89.67" y1="198" x2="89.67" y2="204.74"/><line class="cls-18" x1="187.5" y1="198" x2="187.5" y2="208"/><line class="cls-18" x1="222.21" y1="250.66" x2="228.91" y2="243.95"/><line class="cls-18" x1="222.21" y1="244" x2="228.09" y2="238.12"/><polyline class="cls-17" points="121.5 253.41 121.5 237.41 157.5 237.41 157.5 253.41"/><path class="cls-17" d="M283.67,478a18,18,0,0,1-36,0" transform="translate(-126.17 -224.59)"/><path class="cls-17" d="M283.67,462h12a8,8,0,0,1-8,8h-4" transform="translate(-126.17 -224.59)"/><path class="cls-17" d="M247.67,470h-4a8,8,0,0,1-8-8h12" transform="translate(-126.17 -224.59)"/><line class="cls-17" x1="131.5" y1="247.41" x2="131.51" y2="247.41"/><line class="cls-17" x1="147.5" y1="247.41" x2="147.51" y2="247.41"/><line class="cls-17" x1="136.5" y1="256.41" x2="142.5" y2="256.41"/><line class="cls-17" x1="139.5" y1="256.41" x2="139.5" y2="259.41"/><line class="cls-17" x1="131.5" y1="237.41" x2="131.5" y2="225.41"/><polyline class="cls-17" points="115.51 217.41 115.51 229.41 131.51 229.41"/><line class="cls-17" x1="123.51" y1="229.41" x2="123.51" y2="221.41"/><line class="cls-17" x1="147.52" y1="237.41" x2="147.52" y2="225.41"/><polyline class="cls-17" points="147.51 229.41 163.51 229.41 163.51 217.41"/><line class="cls-17" x1="155.51" y1="229.41" x2="155.51" y2="221.41"/><line class="cls-18" x1="101.67" y1="272.57" x2="94.5" y2="279.74"/><line class="cls-18" x1="102.67" y1="265.57" x2="95.5" y2="272.74"/></g></g><g id="crusik"><g id="color-3" data-name="color"><path class="cls-20" d="M623.93,488.59h41.55a5,5,0,0,1,0,10h-190a5,5,0,0,1,0-10H623.93Z" transform="translate(-126.17 -224.59)"/><path class="cls-20" d="M660.48,498.59l-10.26,11a16,16,0,0,1-11.67,5.05H502.41a16,16,0,0,1-11.67-5.05l-10.26-11Z" transform="translate(-126.17 -224.59)"/><path class="cls-24" d="M631.87,459.71c13.49,5.19,22.22,17,16.68,28.88H623.93C630.49,476.39,633,466.93,631.87,459.71Z" transform="translate(-126.17 -224.59)"/><path class="cls-24" d="M631.87,459.71c1.12,7.22-1.38,16.68-7.94,28.88H596.4c6.71-18.31,12.21-35.2,10.21-47.59C621.45,443.72,630.3,449.46,631.87,459.71Z" transform="translate(-126.17 -224.59)"/><path class="cls-24" d="M606.61,441c2,12.39-3.5,29.28-10.21,47.59H544.68c-6.73-18.36-12.25-35.3-10.19-47.7s11.89-20.44,36-20.44S604.58,428.39,606.61,441Z" transform="translate(-126.17 -224.59)"/><path class="cls-24" d="M508.6,459.71c1.6-10.38,10.67-16.14,25.88-18.82h0c-2.06,12.4,3.46,29.34,10.19,47.7H516.56C510,476.39,507.49,466.93,508.6,459.71Z" transform="translate(-126.17 -224.59)"/><path class="cls-24" d="M516.56,488.59H491.93c-5.54-11.9,3.18-23.68,16.67-28.88C507.49,466.93,510,476.39,516.56,488.59Z" transform="translate(-126.17 -224.59)"/></g><g id="shadows-3" data-name="shadows"><rect class="cls-12" x="356.83" y="274" width="173.33" height="5.16"/><path class="cls-25" d="M578.83,514.59c14.42,0,26.63-6,31-16h50.63c-8.69,8.69-13.48,16-24.48,16Z" transform="translate(-126.17 -224.59)"/><g class="cls-26"><path class="cls-15" d="M669.25,488.59H470.48v5h18a5,5,0,0,0,5,5h20a5,5,0,0,1-5-5H669.25Z" transform="translate(-126.17 -224.59)"/><path class="cls-15" d="M508.74,509.54a16,16,0,0,0,11.67,5.06h20a16,16,0,0,1-11.67-5.06" transform="translate(-126.17 -224.59)"/><polygon class="cls-15" points="402.57 284.95 382.57 284.95 377.14 279.16 397.14 279.16 402.57 284.95"/></g><path class="cls-25" d="M538.05,469c3.3,9.64,62.41,6.55,66.81-28.86,3.31,19.48-8,47.27-8,47.27H544.25Z" transform="translate(-126.17 -224.59)"/><path class="cls-25" d="M602.14,471.94c-2.57,7.77,27.77,7.89,29.73-10.11,0,13.67-7.34,25.6-7.34,25.6l-29.26,1.73Z" transform="translate(-126.17 -224.59)"/><path class="cls-25" d="M628.42,479.14c-2.34,5.41,19.91,6.36,17.74-5.8,8.33,8.5,2.38,15.26,2.38,15.26l-23.7.58Z" transform="translate(-126.17 -224.59)"/><path class="cls-25" d="M511.7,478.25c2.8,6.34,28.06,1.54,24.14-17.66,4.06,10.52,8.42,26.84,8.42,26.84L516,488.59Z" transform="translate(-126.17 -224.59)"/><path class="cls-25" d="M490.24,482.3c1,4.72,22.8.74,19.53-9.78,1.93,5.73,6.26,16.07,6.26,16.07l-25,.58Z" transform="translate(-126.17 -224.59)"/><path class="cls-27" d="M611.49,442.06c3.76,14.44-1.62,35.23-9.25,46.69a44.54,44.54,0,0,1-7,.41s16.9-34.46,11.19-49A11.52,11.52,0,0,1,611.49,442.06Z" transform="translate(-126.17 -224.59)"/><path class="cls-27" d="M636.25,462.5c2.13,7.8-2.74,22.58-5.66,26.67a25,25,0,0,0-5.74,0l8-29.46Z" transform="translate(-126.17 -224.59)"/><g class="cls-28"><path class="cls-15" d="M553,456.08h0a9.12,9.12,0,0,0,10.73-4.93L568.51,441A9.12,9.12,0,0,0,560,428l-4.27.1a9.12,9.12,0,0,0-8.89,8.68l-.49,10.09A9.12,9.12,0,0,0,553,456.08Z" transform="translate(-126.17 -224.59)"/><circle class="cls-15" cx="425.78" cy="239.21" r="4.41"/><path class="cls-15" d="M518.18,467.94h0a4.66,4.66,0,0,0,4.64-3.87l1-5.66a4.66,4.66,0,0,0-5.92-5.26h0a7,7,0,0,0-4.85,8.22l.64,2.91A4.66,4.66,0,0,0,518.18,467.94Z" transform="translate(-126.17 -224.59)"/><circle class="cls-15" cx="373.15" cy="249.92" r="3"/><path class="cls-15" d="M626.47,460h0c-1.06.81-2.76.44-4-.87l-3.16-3.3c-1.9-2-1.77-4.92.25-5.44h0c2.14-.55,4.85,1,6.19,3.6l1.09,2.09C627.62,457.64,627.47,459.27,626.47,460Z" transform="translate(-126.17 -224.59)"/><circle class="cls-15" cx="489.58" cy="224.31" r="1.41"/><ellipse class="cls-15" cx="641.06" cy="471.69" rx="1.41" ry="2.1" transform="translate(-268.92 108.96) rotate(-26.35)"/></g></g><g id="lines-3" data-name="lines"><rect class="cls-17" x="344.32" y="264" width="200" height="10" rx="5" ry="5"/><path class="cls-17" d="M660.48,498.59l-10.26,10.94a16,16,0,0,1-11.67,5.06H502.41a16,16,0,0,1-11.67-5.06l-10.26-10.94" transform="translate(-126.17 -224.59)"/><path class="cls-17" d="M596.4,488.59c13.55-36.94,22.17-68.14-25.86-68.14s-39.41,31.2-25.86,68.14" transform="translate(-126.17 -224.59)"/><path class="cls-17" d="M516.56,488.59c-16-29.76-7.87-43.16,17.92-47.7" transform="translate(-126.17 -224.59)"/><path class="cls-17" d="M491.93,488.59c-5.54-11.9,3.18-23.69,16.68-28.88" transform="translate(-126.17 -224.59)"/><path class="cls-17" d="M606.6,441c25.31,4.63,33.2,18.07,17.31,47.6" transform="translate(-126.17 -224.59)"/><path class="cls-17" d="M648.55,488.59c5.54-11.9-3.18-23.69-16.68-28.88" transform="translate(-126.17 -224.59)"/><path class="cls-18" d="M527.26,396.82h0" transform="translate(-126.17 -224.59)"/><path class="cls-18" d="M524.63,379.25c5.15,4.1,5.75,8.16,4.56,12.22" transform="translate(-126.17 -224.59)"/><path class="cls-18" d="M527.93,420.91a23.64,23.64,0,0,1-2.55-2" transform="translate(-126.17 -224.59)"/><path class="cls-18" d="M522.37,415.23c-2.45-4.42-.86-8.78,1.47-13.11" transform="translate(-126.17 -224.59)"/><path class="cls-18" d="M608.18,379.25c11.31,9,.67,17.81-2.6,26.79" transform="translate(-126.17 -224.59)"/><path class="cls-18" d="M611.49,420.91c-4.18-2.89-6.09-5.75-6.63-8.58" transform="translate(-126.17 -224.59)"/><path class="cls-18" d="M566.4,365.58c7,5.58,5.59,11.09,2.71,16.62" transform="translate(-126.17 -224.59)"/><path class="cls-18" d="M564.21,401.67a17.52,17.52,0,0,0,5.5,5.58" transform="translate(-126.17 -224.59)"/><path class="cls-18" d="M562.93,397.07h0c-.08-3.91,2.17-7.76,4.37-11.61" transform="translate(-126.17 -224.59)"/><path class="cls-18" d="M595.28,472h0" transform="translate(-126.17 -224.59)"/><path class="cls-18" d="M593.83,476c-1.35,4.1-2.86,8.3-4.43,12.59" transform="translate(-126.17 -224.59)"/><line class="cls-18" x1="460.83" y1="256.57" x2="458.83" y2="264"/><path class="cls-18" d="M543.77,468.07a95,95,0,0,1-3.48-16.85" transform="translate(-126.17 -224.59)"/><path class="cls-18" d="M547,478.25q-1.1-3.21-2.06-6.31" transform="translate(-126.17 -224.59)"/><path class="cls-18" d="M522.56,488.59q-2.26-4.2-3.88-8" transform="translate(-126.17 -224.59)"/><path class="cls-18" d="M531.42,471.19q-.23-.9-.39-1.77h0" transform="translate(-126.17 -224.59)"/><path class="cls-18" d="M532.54,475c.2.63.42,1.28.67,1.93a91.77,91.77,0,0,0,5.35,11.66" transform="translate(-126.17 -224.59)"/><path class="cls-18" d="M505.64,475.32A45,45,0,0,1,504,469" transform="translate(-126.17 -224.59)"/><path class="cls-18" d="M497.08,488.59A42.63,42.63,0,0,1,496,484" transform="translate(-126.17 -224.59)"/><path class="cls-18" d="M528.28,448h0" transform="translate(-126.17 -224.59)"/><path class="cls-18" d="M526.28,451h0" transform="translate(-126.17 -224.59)"/><path class="cls-18" d="M595.17,435.7a19.62,19.62,0,0,0-3.68-5.91" transform="translate(-126.17 -224.59)"/><path class="cls-18" d="M589.16,427.59c-5-4-12.54-6.45-23.58-7h-.08" transform="translate(-126.17 -224.59)"/><path class="cls-18" d="M543.43,432.68a21.3,21.3,0,0,0-2.56,6.32" transform="translate(-126.17 -224.59)"/><path class="cls-18" d="M624.85,470.86q-1.3,3.9-3.21,8.27" transform="translate(-126.17 -224.59)"/><path class="cls-18" d="M609.21,469.41h0q-.16.87-.39,1.77" transform="translate(-126.17 -224.59)"/><path class="cls-18" d="M601.68,488.59A91.77,91.77,0,0,0,607,476.93c.25-.65.47-1.3.67-1.93" transform="translate(-126.17 -224.59)"/><path class="cls-18" d="M635,474.15a45,45,0,0,1-1.69,6.29" transform="translate(-126.17 -224.59)"/><path class="cls-18" d="M640.64,484a42.63,42.63,0,0,1-1.13,4.56" transform="translate(-126.17 -224.59)"/><path class="cls-18" d="M577.65,447.17c1,4,.66,13.27,0,17.63" transform="translate(-126.17 -224.59)"/><path class="cls-18" d="M574.1,461.25a79.41,79.41,0,0,1-.73,11.27" transform="translate(-126.17 -224.59)"/><line class="cls-18" x1="534.32" y1="269" x2="544.32" y2="269"/><line class="cls-18" x1="530.17" y1="269" x2="527.33" y2="269"/><line class="cls-18" x1="513.91" y1="279.16" x2="528.75" y2="279.16"/><line class="cls-18" x1="474.83" y1="284.57" x2="465.45" y2="284.57"/><path class="cls-18" d="M615,423.37h0" transform="translate(-126.17 -224.59)"/></g></g></svg>