<svg xmlns="http://www.w3.org/2000/svg" viewBox="0 0 863.051 424">
  <defs>
    <style>
      .cls-1 {
        fill: #24ccd9;
      }

      .cls-2 {
        fill: #fff;
      }
    </style>
  </defs>
  <g id="Group_1" data-name="Group 1" transform="translate(-956 -338)">
    <path id="Rectangle_1" data-name="Rectangle 1" class="cls-1" d="M177,0H791.429a0,0,0,0,1,0,0V424a0,0,0,0,1,0,0H177A177,177,0,0,1,0,247V177A177,177,0,0,1,177,0Z" transform="translate(1027.622 338)"/>
    <rect id="Rectangle_2" data-name="Rectangle 2" class="cls-2" width="85.052" height="17" rx="8.5" transform="translate(1027.622 401)"/>
    <rect id="Rectangle_3" data-name="Rectangle 3" class="cls-2" width="85.052" height="17" rx="8.5" transform="translate(1091.188 730)"/>
    <rect id="Rectangle_4" data-name="Rectangle 4" class="cls-1" width="162.046" height="17" rx="8.5" transform="translate(956 673)"/>
    <rect id="Rectangle_5" data-name="Rectangle 5" class="cls-1" width="162.046" height="17" rx="8.5" transform="translate(972.115 645)"/>
    <rect id="Rectangle_6" data-name="Rectangle 6" class="cls-1" width="162.046" height="17" rx="8.5" transform="translate(967.639 373)"/>
  </g>
</svg>
