<svg xmlns="http://www.w3.org/2000/svg" viewBox="0 0 267.22 253.17"><defs><style>.cls-1{fill:#fff8f5;}.cls-2{fill:#f5faff;}.cls-3{opacity:0.05;}.cls-4{opacity:0.04;}.cls-27,.cls-28,.cls-29,.cls-5,.cls-7,.cls-8{fill:#fff;}.cls-24,.cls-5{opacity:0.2;}.cls-6{opacity:0.8;}.cls-8{opacity:0.9;}.cls-10,.cls-31,.cls-32,.cls-33,.cls-34,.cls-36,.cls-37,.cls-9{fill:none;}.cls-9{stroke:#faf1ed;stroke-width:1.5px;}.cls-10,.cls-9{stroke-miterlimit:10;}.cls-10{stroke:#e6e4df;}.cls-10,.cls-36{stroke-width:3px;}.cls-11{fill:#00b6e3;}.cls-12{fill:#ffc05a;}.cls-13{fill:#f5645d;}.cls-14{fill:#9b9795;}.cls-15{fill:#e4cfd4;}.cls-16{fill:#ffbd66;}.cls-17{fill:#d89041;}.cls-18{fill:#c69535;}.cls-19{fill:#ff7171;}.cls-20{fill:#fc6;}.cls-21{fill:#c6b5ba;}.cls-22{fill:#7df486;}.cls-23{opacity:0.1;}.cls-25,.cls-28{opacity:0.15;}.cls-26{opacity:0.35;}.cls-27{opacity:0.4;}.cls-29,.cls-30{opacity:0.25;}.cls-31,.cls-32,.cls-33,.cls-34,.cls-36{stroke:#454b6e;}.cls-31,.cls-32,.cls-36,.cls-37{stroke-linecap:round;}.cls-31,.cls-32,.cls-33,.cls-34,.cls-36,.cls-37{stroke-linejoin:round;}.cls-31,.cls-33{stroke-width:4px;}.cls-32,.cls-34,.cls-37{stroke-width:2px;}.cls-35{opacity:0.75;}.cls-37{stroke:#b37438;}</style></defs><title>toaster</title><g id="Background"><g id="color"><path class="cls-1" d="M533.83,345.33v4a6,6,0,0,1-6,6h-240a6,6,0,0,1-6-6v-4a6,6,0,0,1,6-6h240A6,6,0,0,1,533.83,345.33Z" transform="translate(-276.67 -142.17)"/><polygon class="cls-1" points="244.5 31.5 244.5 197.16 214.5 197.16 214.5 119.5 214.5 111.5 214.5 109.5 214.5 101.5 214.5 31.5 244.5 31.5"/><path class="cls-1" d="M521.17,151.67v22H294.5v-22a8,8,0,0,1,8-8H513.17A8,8,0,0,1,521.17,151.67Z" transform="translate(-276.67 -142.17)"/><rect class="cls-2" x="136.5" y="119.5" width="78" height="77.66"/><rect class="cls-1" x="136.5" y="111.5" width="78" height="8"/><polygon class="cls-1" points="214.5 109.5 214.5 111.5 136.5 111.5 125.83 111.5 47.83 111.5 47.83 109.5 125.83 109.5 136.5 109.5 214.5 109.5"/><polygon class="cls-2" points="214.5 101.5 214.5 109.5 136.5 109.5 136.5 101.5 136.5 31.5 214.5 31.5 214.5 101.5"/><rect class="cls-1" x="125.83" y="119.5" width="10.67" height="77.66"/><rect class="cls-1" x="125.83" y="111.5" width="10.67" height="8"/><polygon class="cls-1" points="136.5 101.5 136.5 109.5 125.83 109.5 125.83 101.5 125.83 31.5 136.5 31.5 136.5 101.5"/><rect class="cls-2" x="47.83" y="119.5" width="78" height="77.66"/><rect class="cls-1" x="47.83" y="111.5" width="78" height="8"/><polygon class="cls-2" points="125.83 101.5 125.83 109.5 47.83 109.5 47.83 101.5 47.83 31.5 125.83 31.5 125.83 101.5"/><polygon class="cls-1" points="47.83 119.5 47.83 197.16 17.83 197.16 17.83 31.5 47.83 31.5 47.83 101.5 47.83 109.5 47.83 111.5 47.83 119.5"/></g><g id="Shadows"><polygon class="cls-3" points="5.42 208.9 256.91 208.9 251.17 213.17 8.67 213.17 5.42 208.9"/><rect class="cls-4" x="125.83" y="119.5" width="10.67" height="5"/><rect class="cls-5" x="125.83" y="31.5" width="3.5" height="69.33"/><rect class="cls-4" x="125.83" y="31.5" width="10.67" height="5"/><path class="cls-4" d="M490.17,258.67H330.08a2.42,2.42,0,0,1-2.42-2.42V252H323.5v11h4.17v-.33h162.5Z" transform="translate(-276.67 -142.17)"/><g class="cls-6"><polygon class="cls-7" points="5.42 201.44 256.91 201.44 251.17 197.17 9.55 197.17 5.42 201.44"/><rect class="cls-7" x="47.83" y="109.5" width="166.67" height="4.33"/><rect class="cls-7" x="125.33" y="119.17" width="4" height="78"/><rect class="cls-7" x="125.33" y="32.17" width="4" height="78"/><polygon class="cls-7" points="22 31.5 22 31.5 17.83 31.5 17.83 197.17 22 197.17 22 31.5"/><path class="cls-7" d="M519.17,144.67v3H306.5a8,8,0,0,0-8,8v18.66h-3V152.67a8,8,0,0,1,8-8Z" transform="translate(-276.67 -142.17)"/><polygon class="cls-7" points="218.5 32.17 218.5 32.16 214.33 32.16 214.33 197.83 218.5 197.83 218.5 32.17"/></g><polygon class="cls-8" points="47.83 71.08 85.92 33 97.83 31 47.79 81.04 47.83 71.08"/><polygon class="cls-8" points="47.83 87.08 103.17 31.75 125.83 31.5 126.58 45.75 62.29 110.04 48.67 108.67 47.83 87.08"/><polygon class="cls-8" points="47.83 161.08 89.41 119.5 126.83 120.33 49.08 198.08 47.83 177.08 47.83 161.08"/><polygon class="cls-8" points="135.83 71.08 173.92 33 185.83 31 135.79 81.04 135.83 71.08"/><polygon class="cls-8" points="135.83 87.08 191.17 31.75 213.83 31.5 214.58 45.75 150.29 110.04 136.67 108.67 135.83 87.08"/><polygon class="cls-8" points="135.83 159.08 173.92 121 185.83 119 135.79 169.04 135.83 159.08"/><polygon class="cls-8" points="135.83 175.08 191.17 119.75 213.83 119.5 214.58 133.75 150.29 198.04 136.67 196.67 135.83 175.08"/><rect class="cls-4" x="17.33" y="32.16" width="30.46" height="3.75"/><rect class="cls-4" x="214.33" y="32.16" width="30.46" height="3.75"/></g><g id="Lines"><path class="cls-9" d="M311.33,340c16-34-19-57.37,2-97s8.67-69.33-14.83-69.33c11.57-19.5,22.13-13.55,51-8.08s56.19-1.92,50.52-21.92" transform="translate(-276.67 -142.17)"/><path class="cls-9" d="M324.46,223.67c0,15.67-11.46,29-11.46,48.67,0,13.85,11.5,17.75,11.5,45.88" transform="translate(-276.67 -142.17)"/><path class="cls-9" d="M294.5,289.67c0-45.67,23.18-56.67,23.18-81.9,0-14.42-7.54-26.1-16.84-26.1a11.77,11.77,0,0,0-6.34,1.92" transform="translate(-276.67 -142.17)"/><path class="cls-9" d="M294.5,224.71a7.17,7.17,0,0,0,5.28,2.62c5.22,0,9.45-6.86,9.45-15.33s-4.23-15.33-9.45-15.33a7.17,7.17,0,0,0-5.28,2.62" transform="translate(-276.67 -142.17)"/><path class="cls-9" d="M294.5,217.82c.6,1.91,1.68,3.18,2.92,3.18,1.89,0,3.42-3,3.42-6.62s-1.53-6.61-3.42-6.61c-1.24,0-2.32,1.27-2.92,3.17" transform="translate(-276.67 -142.17)"/><path class="cls-9" d="M325.2,247.33c-5.2,13.67-9.41,20.13-.7,33.67" transform="translate(-276.67 -142.17)"/><path class="cls-9" d="M294.5,281c0,25.25,21.75,31.75,6.34,58.33" transform="translate(-276.67 -142.17)"/><path class="cls-9" d="M294.5,313.25c4.17,3.5,8.28,11.42,0,18.75" transform="translate(-276.67 -142.17)"/><path class="cls-9" d="M505.36,173.67c-16,34,19,57.37-2,97S494.7,340,518.2,340" transform="translate(-276.67 -142.17)"/><path class="cls-9" d="M492.24,290c0-15.67,11.46-29,11.46-48.67,0-13.85-11.5-17.75-11.5-45.87" transform="translate(-276.67 -142.17)"/><path class="cls-9" d="M522.2,224c0,45.67-23.18,56.67-23.18,81.9,0,14.42,7.54,26.1,16.84,26.1a11.77,11.77,0,0,0,6.34-1.92" transform="translate(-276.67 -142.17)"/><path class="cls-9" d="M522.2,289a7.17,7.17,0,0,0-5.28-2.62c-5.22,0-9.45,6.86-9.45,15.33S511.7,317,516.92,317a7.17,7.17,0,0,0,5.28-2.62" transform="translate(-276.67 -142.17)"/><path class="cls-9" d="M522.2,295.84c-.6-1.91-1.68-3.18-2.92-3.18-1.89,0-3.42,3-3.42,6.62s1.53,6.61,3.42,6.61c1.24,0,2.32-1.27,2.92-3.17" transform="translate(-276.67 -142.17)"/><path class="cls-9" d="M491.5,266.34c5.2-13.67,9.41-20.13.7-33.67" transform="translate(-276.67 -142.17)"/><path class="cls-9" d="M522.2,232.66c0-25.25-21.75-31.75-6.34-58.33" transform="translate(-276.67 -142.17)"/><path class="cls-9" d="M522.2,200.41c-4.17-3.5-8.28-11.42,0-18.75" transform="translate(-276.67 -142.17)"/><path class="cls-9" d="M503.67,143.67c1.65,1.52,2.48,3.1,2.29,4.65-.66,5.3-13.15,8.1-27.9,6.27-12.91-1.6-23.29-6.23-25.22-10.92" transform="translate(-276.67 -142.17)"/><path class="cls-9" d="M385.66,143.67c1.78,2,2.62,4.15,2.31,6.2-1.09,7.31-16.4,11.08-34.19,8.42-15-2.26-27-8.37-29.71-14.62" transform="translate(-276.67 -142.17)"/><path class="cls-9" d="M369.14,143.67a3.81,3.81,0,0,1,.19,1.16c0,3.78-6,6.84-13.33,6.84s-13.33-3.06-13.33-6.84a3.81,3.81,0,0,1,.19-1.16" transform="translate(-276.67 -142.17)"/><path class="cls-9" d="M307.73,143.67c3.21,2,5,5,4.26,7.76-1,3.73-6.38,5.52-12,4a14.3,14.3,0,0,1-5.51-2.82" transform="translate(-276.67 -142.17)"/><path class="cls-9" d="M424.79,173.67a.45.45,0,0,1,0-.11c.49-3.77,7.73-5.94,16.18-4.83,5.49.72,8.31,2.64,9.94,4.94" transform="translate(-276.67 -142.17)"/><path class="cls-9" d="M497.95,173.17c11.39,0,23.51-11.5,23.51-15.17" transform="translate(-276.67 -142.17)"/><path class="cls-9" d="M456,173.67c.13-.35,4.21-.72,4.25-1.1.52-5.21-12.43-10.35-24-11.49s-21.31,2.17-21.83,7.38c-.18,1.8.77,3.59,2.57,5.21" transform="translate(-276.67 -142.17)"/><path class="cls-9" d="M467.61,143.67a35.68,35.68,0,0,0,11.55,3.56c8.84,1.28,16.55-.3,18.34-3.56" transform="translate(-276.67 -142.17)"/><path class="cls-9" d="M303.24,143.67a4.69,4.69,0,0,1-7.86,4.35" transform="translate(-276.67 -142.17)"/><path class="cls-9" d="M381,173.67c18.33,0,24.1-30.87,74.67-14.17s61.33-7.17,57.5-15.83" transform="translate(-276.67 -142.17)"/><path class="cls-9" d="M313,173.67c9.34-18.52,29.34,0,58.5,0" transform="translate(-276.67 -142.17)"/><rect class="cls-10" x="5.17" y="197.17" width="252" height="16" rx="6" ry="6"/><path class="cls-10" d="M294.5,339.33V151.67a8,8,0,0,1,8-8H513.17a8,8,0,0,1,8,8V339.33" transform="translate(-276.67 -142.17)"/><line class="cls-10" x1="17.83" y1="31.5" x2="244.5" y2="31.5"/><polyline class="cls-10" points="214.5 197.16 214.5 111.5 214.5 101.5 214.5 31.5"/><polyline class="cls-10" points="47.83 31.5 47.83 101.5 47.83 111.5 47.83 197.16"/><line class="cls-10" x1="125.83" y1="197.16" x2="125.83" y2="119.5"/><line class="cls-10" x1="125.83" y1="109.5" x2="125.83" y2="31.5"/><line class="cls-10" x1="136.5" y1="109.5" x2="136.5" y2="31.5"/><line class="cls-10" x1="136.5" y1="197.16" x2="136.5" y2="119.5"/><polyline class="cls-10" points="47.83 109.5 125.83 109.5 136.5 109.5 214.5 109.5"/><polyline class="cls-10" points="47.83 119.5 125.83 119.5 136.5 119.5 214.5 119.5"/></g></g><g id="Main"><g id="Color-2" data-name="Color"><path class="cls-11" d="M493.87,347.13a17,17,0,0,1,0,34h-.17a12,12,0,0,0,.17-2v-7a8,8,0,0,0,0-16Z" transform="translate(-276.67 -142.17)"/><path class="cls-11" d="M475.42,337.13h14.45a4,4,0,0,1,4,4v38a12,12,0,0,1-12,12h-32a12,12,0,0,1-12-12v-38a4,4,0,0,1,4-4h33.55Zm7,29.95v-14a2,2,0,0,0-2-2h-10a2,2,0,0,0-2,2v14a2,2,0,0,0,2,2h10A2,2,0,0,0,482.42,367.08Z" transform="translate(-276.67 -142.17)"/><path class="cls-12" d="M482.42,353.08v14a2,2,0,0,1-2,2h-10a2,2,0,0,1-2-2v-14a2,2,0,0,1,2-2h10A2,2,0,0,1,482.42,353.08Z" transform="translate(-276.67 -142.17)"/><path class="cls-13" d="M364.4,375h-9V321.33A30.31,30.31,0,0,1,385.08,291c.21,0,.43,0,.65,0h45.34a30.33,30.33,0,0,1,30.33,30.33v15.8H441.87a4,4,0,0,0-4,4V375H364.4Z" transform="translate(-276.67 -142.17)"/><path class="cls-14" d="M443.9,389.53A8,8,0,0,1,430.05,385h9.36A11.91,11.91,0,0,0,443.9,389.53Z" transform="translate(-276.67 -142.17)"/><path class="cls-15" d="M439.41,385h-89a5,5,0,0,1,0-10h87.47v4.13A11.92,11.92,0,0,0,439.41,385Z" transform="translate(-276.67 -142.17)"/><path class="cls-16" d="M436.23,280.17V291l-.07.4a30.49,30.49,0,0,0-5.09-.43H385.73c-.22,0-.44,0-.65,0v0H384V280.17a2.83,2.83,0,0,1,1.13-2.36,6.08,6.08,0,0,0,0-8.6,2.8,2.8,0,0,1-1.13-2.35v-1.51A9.32,9.32,0,0,1,393.3,256h33.61a9.32,9.32,0,0,1,9.32,9.32v1.51a2.8,2.8,0,0,1-1.13,2.35,6.08,6.08,0,0,0,0,8.6A2.83,2.83,0,0,1,436.23,280.17Z" transform="translate(-276.67 -142.17)"/><path class="cls-17" d="M386.31,256h7a9.32,9.32,0,0,0-9.32,9.32v1.51a2.8,2.8,0,0,0,1.13,2.35h-7a2.8,2.8,0,0,1-1.13-2.35v-1.51A9.32,9.32,0,0,1,386.31,256Z" transform="translate(-276.67 -142.17)"/><path class="cls-17" d="M385.11,269.21a6.08,6.08,0,0,1,0,8.6h-7a6.08,6.08,0,0,0,0-8.6Z" transform="translate(-276.67 -142.17)"/><path class="cls-16" d="M377,256h9.32a9.32,9.32,0,0,0-9.32,9.32v1.51a2.8,2.8,0,0,0,1.13,2.35,6.08,6.08,0,0,1,0,8.6,2.83,2.83,0,0,0-1.13,2.36V291h-9.33V280.17a2.86,2.86,0,0,1,1.13-2.36,6.06,6.06,0,0,0,0-8.6,2.83,2.83,0,0,1-1.13-2.35v-1.51A9.33,9.33,0,0,1,377,256Z" transform="translate(-276.67 -142.17)"/><path class="cls-17" d="M378.12,277.81h7a2.83,2.83,0,0,0-1.13,2.36V291h-7V280.17A2.83,2.83,0,0,1,378.12,277.81Z" transform="translate(-276.67 -142.17)"/><path class="cls-18" d="M385.08,291v0a30.31,30.31,0,0,0-29.68,30.31V375h-.65V321.33A30.32,30.32,0,0,1,384,291C384.34,291,384.71,291,385.08,291Z" transform="translate(-276.67 -142.17)"/><path class="cls-18" d="M385.08,291c-.37,0-.74,0-1.1,0v0Z" transform="translate(-276.67 -142.17)"/><circle class="cls-19" cx="52.08" cy="222.83" r="2.5"/><circle class="cls-19" cx="68.08" cy="222.83" r="2.5"/><path class="cls-19" d="M342.25,341a4,4,0,1,1,0,8h-13a4,4,0,1,1,0-8h13Z" transform="translate(-276.67 -142.17)"/><path class="cls-19" d="M384,291v0a30.32,30.32,0,0,0-29.23,30.3V375h-36V321.33A30.33,30.33,0,0,1,349.08,291H384Zm-36.73,74a2.5,2.5,0,1,0-2.5,2.5A2.5,2.5,0,0,0,347.25,365Zm-1-20a4,4,0,0,0-4-4h-13a4,4,0,0,0,0,8h13a4,4,0,0,0,4-4Zm-15,20a2.5,2.5,0,1,0-2.5,2.5A2.5,2.5,0,0,0,331.25,365Z" transform="translate(-276.67 -142.17)"/><path class="cls-17" d="M370,256h7a9.33,9.33,0,0,0-9.33,9.32v1.51a2.83,2.83,0,0,0,1.13,2.35h-7a2.8,2.8,0,0,1-1.13-2.35v-1.51A9.32,9.32,0,0,1,370,256Z" transform="translate(-276.67 -142.17)"/><path class="cls-14" d="M359.4,385h16a8,8,0,0,1-16,0Z" transform="translate(-276.67 -142.17)"/><path class="cls-17" d="M368.79,269.21a6.06,6.06,0,0,1,0,8.6h-7a6.08,6.08,0,0,0,0-8.6Z" transform="translate(-276.67 -142.17)"/><path class="cls-17" d="M361.8,277.81h7a2.86,2.86,0,0,0-1.13,2.36V291h-7V280.17A2.83,2.83,0,0,1,361.8,277.81Z" transform="translate(-276.67 -142.17)"/><path class="cls-15" d="M318.75,375H350.4a5,5,0,1,0,0,10H313.75a5,5,0,0,1,0-10Z" transform="translate(-276.67 -142.17)"/><circle class="cls-20" cx="66.08" cy="222.83" r="2.5"/><path class="cls-21" d="M342.25,321a4,4,0,1,1,0,8h-6a4,4,0,0,0,0-8h6Z" transform="translate(-276.67 -142.17)"/><path class="cls-14" d="M324,385h16a8,8,0,0,1-16,0Z" transform="translate(-276.67 -142.17)"/><path class="cls-15" d="M336.25,321a4,4,0,1,1,0,8h-7a4,4,0,1,1,0-8h7Z" transform="translate(-276.67 -142.17)"/><circle class="cls-22" cx="54.08" cy="222.83" r="2.5"/></g><g id="Shadows-2" data-name="Shadows"><path class="cls-5" d="M471.92,369.08V356.17a1.58,1.58,0,0,1,1.58-1.58h7.67v-3.35H468.89v17.1Z" transform="translate(-276.67 -142.17)"/><path class="cls-23" d="M468.42,362.37c0,3.47,14,2.53,14-2.21v8.51h-14Z" transform="translate(-276.67 -142.17)"/><path class="cls-23" d="M437.88,375c0,7.13,55.82,8,55.82-5.25l-1.57,15.62-5.75,5.76H445L438.38,385Z" transform="translate(-276.67 -142.17)"/><polygon class="cls-24" points="218.2 204.96 222.2 205.44 222.2 215.04 218.2 213.96 218.2 204.96"/><polygon class="cls-24" points="218.2 229.96 222.2 229.33 222.2 238.96 218.03 238.96 218.2 229.96"/><path class="cls-25" d="M485.92,352.62v15.14a4.62,4.62,0,0,1-4.62,4.62H470.2a2.25,2.25,0,0,1-2.28-2.22v-1.78a2,2,0,0,0,2,2h12a2,2,0,0,0,2-2v-16a2,2,0,0,0-2-2h1.71A2.26,2.26,0,0,1,485.92,352.62Z" transform="translate(-276.67 -142.17)"/><path class="cls-5" d="M489.87,336.15H456.5a7.58,7.58,0,0,0-6.16,0h-8.59l-3.88,5.47H446a7.64,7.64,0,0,0-.15,1.49v20.77a7.62,7.62,0,0,0,15.23,0V343.12a7.64,7.64,0,0,0-.15-1.49h33Z" transform="translate(-276.67 -142.17)"/><polygon class="cls-26" points="154.08 242.83 154.9 246.4 165 246.4 160.75 242.83 154.08 242.83"/><polygon class="cls-26" points="84.08 242.83 84.9 246.4 97.17 246.4 98.73 242.83 84.08 242.83"/><polygon class="cls-26" points="48.08 242.83 48.9 246.4 61.17 246.4 62.73 242.83 48.08 242.83"/><polygon class="cls-27" points="31.77 232.83 30.18 237.08 58.18 237.08 53.48 241.79 56.93 241.79 61.64 237.08 88.83 237.08 83.67 242.24 92.6 242.24 97.76 237.08 100.59 237.08 95.43 242.24 98.77 242.08 103.76 237.08 136.02 237.08 131.19 241.91 135.68 241.91 140.51 237.08 158.41 237.08 158.41 232.83 31.77 232.83"/><path class="cls-25" d="M318.75,360.25c0,9.25,36-.13,36-13.38v27.38h-36.5Z" transform="translate(-276.67 -142.17)"/><polygon class="cls-27" points="69.58 178.83 49.58 178.83 49.58 182.83 55.01 182.83 52.42 185.42 53.08 185.58 55.83 182.83 56.21 182.83 52.83 186.21 54.77 186.77 58.71 182.83 69.58 182.83 69.58 178.83"/><path class="cls-25" d="M354.75,357.21c0,11.29,83.13,5,83.13-17.21v35H354.25Z" transform="translate(-276.67 -142.17)"/><rect class="cls-28" x="90.41" y="166.5" width="13.54" height="26.3" rx="6.77" ry="6.77"/><path class="cls-5" d="M454.87,302.53a30.19,30.19,0,0,0-18.8-6.53H386.7a26.3,26.3,0,0,0-26.3,26.3V375h-5V321.33A30.33,30.33,0,0,1,385.73,291h45.34A30.27,30.27,0,0,1,454.87,302.53Z" transform="translate(-276.67 -142.17)"/><path class="cls-29" d="M369.92,296H349.7a26.3,26.3,0,0,0-26.3,26.3V375h-5V321.33A30.33,30.33,0,0,1,348.73,291H375.4Z" transform="translate(-276.67 -142.17)"/><rect class="cls-25" x="102.06" y="127.62" width="7.02" height="2.34"/><g class="cls-30"><rect class="cls-7" x="101.02" y="136.15" width="5.86" height="3"/><path class="cls-7" d="M378.75,265.17c.88-4.17,5.75-4.67,5.75-4.67l3.13-2.54-4.44-1.39S376.75,261.12,378.75,265.17Z" transform="translate(-276.67 -142.17)"/><rect class="cls-7" x="84.02" y="136.15" width="5.86" height="3"/><path class="cls-7" d="M361.75,265.17c.88-4.17,5.75-4.67,5.75-4.67l3.13-2.54-4.44-1.39S359.75,261.12,361.75,265.17Z" transform="translate(-276.67 -142.17)"/></g><rect class="cls-25" x="85.06" y="127.62" width="7.02" height="2.34"/><path class="cls-25" d="M384,282.83c0,6.5,48.81.57,48.14-13,4.67,3.71,4.11,21.25,4.11,21.25H384.47Z" transform="translate(-276.67 -142.17)"/><path class="cls-25" d="M367.66,282.33c1.17,2.5,7.74.67,7.74.67l1.59,6.63-8.16,1.4Z" transform="translate(-276.67 -142.17)"/><g class="cls-26"><path class="cls-7" d="M432.55,260.2a9.28,9.28,0,0,0-7.38-3.63H391.56a9.32,9.32,0,0,0-9.32,9.32v1.51a2.8,2.8,0,0,0,1.13,2.35c1.05.71,3.09.62,3.09,2.55a5.22,5.22,0,0,1-1.78,4.3,2.83,2.83,0,0,0-1.13,2.36v10.86h4V282a2.83,2.83,0,0,1,1.13-2.36,6.08,6.08,0,0,0,0-8.6c-.76-.51-2.44.31-2.44-.6v-1.51a9.32,9.32,0,0,1,9.32-9.32h33.61A9.27,9.27,0,0,1,432.55,260.2Z" transform="translate(-276.67 -142.17)"/></g><ellipse class="cls-27" cx="53.02" cy="221.86" rx="1.44" ry="1.69"/><ellipse class="cls-27" cx="65.02" cy="221.86" rx="1.44" ry="1.69"/></g><g id="Lines-2" data-name="Lines"><line class="cls-31" x1="21.67" y1="251.17" x2="258.67" y2="251.17"/><line class="cls-31" x1="265.12" y1="251.17" x2="265.22" y2="251.17"/><line class="cls-31" x1="13.67" y1="251.17" x2="2" y2="251.17"/><path class="cls-31" d="M165.21,195h48a4,4,0,0,1,4,4v38a12,12,0,0,1-12,12h-32a12,12,0,0,1-12-12V199a4,4,0,0,1,4-4Z"/><path class="cls-31" d="M493.87,372.13a8,8,0,0,0,0-16" transform="translate(-276.67 -142.17)"/><path class="cls-31" d="M493.87,347.13a17,17,0,0,1,0,34h-.17" transform="translate(-276.67 -142.17)"/><path class="cls-31" d="M437.83,375H350.4a5,5,0,0,0-5,5h0a5,5,0,0,0,5,5h89" transform="translate(-276.67 -142.17)"/><path class="cls-31" d="M354.75,385h-41a5,5,0,0,1,0-10h41" transform="translate(-276.67 -142.17)"/><path class="cls-31" d="M324,385a8,8,0,0,0,16,0" transform="translate(-276.67 -142.17)"/><path class="cls-31" d="M359.4,385a8,8,0,0,0,16,0" transform="translate(-276.67 -142.17)"/><path class="cls-31" d="M355.4,375V321.33A30.33,30.33,0,0,1,385.73,291h45.34a30.33,30.33,0,0,1,30.33,30.33v15.8" transform="translate(-276.67 -142.17)"/><path class="cls-31" d="M318.75,375V321.33A30.33,30.33,0,0,1,349.08,291h36" transform="translate(-276.67 -142.17)"/><path class="cls-31" d="M354.75,375V321.33A30.33,30.33,0,0,1,385.08,291" transform="translate(-276.67 -142.17)"/><path class="cls-31" d="M342.91,303a30.1,30.1,0,0,0-6.15,18,0,0,0,0,0,0,0" transform="translate(-276.67 -142.17)"/><polyline class="cls-31" points="60.08 186.8 60.08 186.83 60.08 210.83"/><rect class="cls-31" x="48.58" y="178.83" width="15" height="8" rx="4" ry="4"/><path class="cls-31" d="M332.25,321h10a4,4,0,0,1,4,4h0a4,4,0,0,1-4,4h-10" transform="translate(-276.67 -142.17)"/><circle class="cls-32" cx="66.08" cy="222.83" r="2.5"/><circle class="cls-32" cx="54.08" cy="222.83" r="2.5"/><line class="cls-33" x1="110.83" y1="190.83" x2="148.83" y2="190.83"/><line class="cls-33" x1="116.83" y1="180.83" x2="142.83" y2="180.83"/><path class="cls-33" d="M482.42,353.08a2,2,0,0,0-2-2h-10a2,2,0,0,0-2,2v14a2,2,0,0,0,2,2h10a2,2,0,0,0,2-2Z" transform="translate(-276.67 -142.17)"/><line class="cls-34" x1="198.75" y1="193.72" x2="198.75" y2="207.68"/><path class="cls-34" d="M468.42,335.89a3.5,3.5,0,0,1,7,0" transform="translate(-276.67 -142.17)"/><path class="cls-31" d="M393.3,256h33.6a9.32,9.32,0,0,1,9.32,9.32v1.5a2.82,2.82,0,0,1-1.13,2.35,6.08,6.08,0,0,0,0,8.6,2.82,2.82,0,0,1,1.13,2.35V291" transform="translate(-276.67 -142.17)"/><path class="cls-31" d="M384,291V280.17a2.82,2.82,0,0,1,1.13-2.35,6.08,6.08,0,0,0,0-8.6,2.82,2.82,0,0,1-1.13-2.35v-1.5A9.32,9.32,0,0,1,393.3,256h-7a9.32,9.32,0,0,0-9.32,9.32v1.5a2.82,2.82,0,0,0,1.13,2.35,6.08,6.08,0,0,1,0,8.6,2.82,2.82,0,0,0-1.13,2.35V291" transform="translate(-276.67 -142.17)"/><path class="cls-31" d="M367.66,291V280.17a2.82,2.82,0,0,1,1.13-2.35,6.08,6.08,0,0,0,0-8.6,2.82,2.82,0,0,1-1.13-2.35v-1.5A9.32,9.32,0,0,1,377,256h9.32" transform="translate(-276.67 -142.17)"/><path class="cls-31" d="M360.67,291V280.17a2.82,2.82,0,0,1,1.13-2.35,6.08,6.08,0,0,0,0-8.6,2.82,2.82,0,0,1-1.13-2.35v-1.5A9.32,9.32,0,0,1,370,256h7" transform="translate(-276.67 -142.17)"/><g class="cls-35"><path class="cls-32" d="M479.55,305.54a10,10,0,0,1-4.36,19" transform="translate(-276.67 -142.17)"/><path class="cls-32" d="M470.46,275.29a15,15,0,0,0,.67,28.68" transform="translate(-276.67 -142.17)"/><path class="cls-32" d="M482.4,272.05a25,25,0,0,0-4.89-49.52" transform="translate(-276.67 -142.17)"/><path class="cls-32" d="M506.35,252.36a24.76,24.76,0,0,0,0-5.79" transform="translate(-276.67 -142.17)"/><path class="cls-32" d="M504.75,258.75a25.09,25.09,0,0,1-11.81,13" transform="translate(-276.67 -142.17)"/><line class="cls-32" x1="196.54" y1="80.36" x2="196.53" y2="80.36"/><path class="cls-32" d="M468.46,223.29a15,15,0,0,0,.67,28.68" transform="translate(-276.67 -142.17)"/><path class="cls-32" d="M480.55,232.54a10,10,0,0,1-4.36,19" transform="translate(-276.67 -142.17)"/><path class="cls-32" d="M472.14,239.14a4.58,4.58,0,0,1,3.92-8" transform="translate(-276.67 -142.17)"/></g><line class="cls-36" x1="85.13" y1="127.05" x2="92.13" y2="127.05"/><line class="cls-36" x1="101.45" y1="127.05" x2="108.44" y2="127.05"/><line class="cls-36" x1="101.45" y1="135.65" x2="108.44" y2="135.65"/><line class="cls-36" x1="85.13" y1="135.65" x2="92.13" y2="135.65"/><line class="cls-32" x1="211.96" y1="226.92" x2="211.96" y2="234.46"/><line class="cls-32" x1="211.96" y1="237.68" x2="211.96" y2="237.69"/><line class="cls-32" x1="83.73" y1="224.83" x2="83.73" y2="232.83"/><path class="cls-32" d="M424.34,292.17" transform="translate(-276.67 -142.17)"/><line class="cls-32" x1="87.73" y1="232.83" x2="87.73" y2="228.83"/><line class="cls-37" x1="118.66" y1="123" x2="118.67" y2="123"/><line class="cls-37" x1="116.66" y1="126" x2="116.67" y2="126"/><line class="cls-37" x1="146.66" y1="124" x2="146.67" y2="124"/><line class="cls-37" x1="124.67" y1="141.67" x2="124.68" y2="141.67"/><line class="cls-37" x1="143.66" y1="141.67" x2="143.67" y2="141.67"/><path class="cls-37" d="M394.33,280.81a2,2,0,0,1,4,0" transform="translate(-276.67 -142.17)"/><path class="cls-37" d="M424.33,280.81a2,2,0,0,1,4,0" transform="translate(-276.67 -142.17)"/><path class="cls-37" d="M415.77,264.29a2,2,0,1,1,4,0" transform="translate(-276.67 -142.17)"/><line class="cls-37" x1="131.66" y1="131" x2="131.67" y2="131"/><path class="cls-31" d="M430.05,385a8,8,0,0,0,13.85,4.53" transform="translate(-276.67 -142.17)"/></g></g></svg>